SplineFontDB: 3.0
FontName: PonomarUnicode
FullName: Ponomar Unicode
FamilyName: Ponomar Unicode
Weight: Regular
Copyright: Copyright 2013-2020 Aleksandr Andreev and Nikita Simmons (https://sci.ponomar.net/).
FontLog: "Based on Hirmos UCS. Copyright (c) Vladislav V. Dorosh, Calmius Software, 2007-2008. All rights reserved. Used with permission.+AAoACgAK-Converted to Unicode 5.1 Yuri Shardt, as part of the Ponomar Project. +AAoACgAA-Additional characters, including the Typicon Symbols, added by Yuri Shardt in 2009 to 2011.+AAoACgAA-Additional help in correcting some of the characters was provided by Nikita Simmons in 2011, 2012.+AAoACgAA-Additional revisions by Aleksandr Andreev in 2012, including kerning support and other fine tuning.+AAoACgAA-Additional revisions by Nikita Simmons.+AAoACgAA-Renamed to Ponomar Unicode in 2015 and released."
Version: 1.3
DefaultBaseFilename: PonomarUnicode
ItalicAngle: 0
UnderlinePosition: -39
UnderlineWidth: 7
Ascent: 800
Descent: 200
InvalidEm: 0
woffMajor: 1
woffMinor: 0
LayerCount: 2
Layer: 0 0 "Back" 1
Layer: 1 0 "Fore" 0
XUID: [1021 300 1517649419 16006353]
FSType: 0
OS2Version: 2
OS2_WeightWidthSlopeOnly: 0
OS2_UseTypoMetrics: 1
CreationTime: 1187031600
ModificationTime: 1585556910
PfmFamily: 17
TTFWeight: 400
TTFWidth: 5
LineGap: 0
VLineGap: 0
Panose: 2 0 5 0 9 0 0 2 0 3
OS2TypoAscent: 955
OS2TypoAOffset: 0
OS2TypoDescent: -460
OS2TypoDOffset: 0
OS2TypoLinegap: 0
OS2WinAscent: 1110
OS2WinAOffset: 0
OS2WinDescent: 460
OS2WinDOffset: 0
HheadAscent: 955
HheadAOffset: 0
HheadDescent: -460
HheadDOffset: 0
OS2SubXSize: 203
OS2SubYSize: 203
OS2SubXOff: 0
OS2SubYOff: 286
OS2SupXSize: 203
OS2SupYSize: 203
OS2SupXOff: 0
OS2SupYOff: 286
OS2StrikeYSize: 50
OS2StrikeYPos: 250
OS2Vendor: '    '
OS2CodePages: 00000005.00000000
OS2UnicodeRanges: 800002e3.1200c044.00000000.00000000
Lookup: 4 0 0 "Precomposed Latin forms" { "Precomposed Latin forms-1"  } ['ccmp' ('DFLT' <'dflt' > 'cyrl' <'dflt' > 'geor' <'dflt' > 'latn' <'ENG ' 'dflt' > ) ]

StartChar: .notdef
Encoding: 1114112 -1 0
Width: 427
GlyphClass: 2
Flags: W
HStem: 0 19<29 398> 748 22<29 398>
VStem: 0 22<34 733> 405 22<34 733>
DStem2: 29 748 22 733 0.465951 -0.884811<10.0105 395.419 421.078 806.952> 22 34 29 19 0.465951 0.884811<0 385.408 411.068 796.942>
LayerCount: 2
Fore
SplineSet
0 770 m 1
 427 770 l 1
 427 0 l 1
 0 0 l 1
 0 770 l 1
29 748 m 1
 213 398 l 1
 398 748 l 1
 29 748 l 1
221 383 m 1
 405 34 l 1
 405 733 l 1
 221 383 l 1
398 19 m 1
 213 369 l 1
 29 19 l 1
 398 19 l 1
22 733 m 1
 22 34 l 1
 206 383 l 1
 22 733 l 1
EndSplineSet
Validated: 1
Colour: ff00
EndChar

StartChar: uni0021
Encoding: 33 33 2
Width: 222
GlyphClass: 2
Flags: W
HStem: -8 139<60.1589 159.955>
VStem: 40 140<11.6823 110.841>
LayerCount: 2
Fore
SplineSet
117 178 m 0
 117 176 115 175 111 175 c 0
 107 175 105 176 105 178 c 0
 91 324 75 477 57 618 c 0
 51 668 40 707 40 737 c 0
 40 744 46 752 52 752 c 0
 53 752 53 752 54 752 c 0
 84 750 127 746 156 744 c 1
 161 742 168 735 166 728 c 1
 164 713 162 691 159 664 c 2
 150 572 l 2
 144 505 137 424 131 355 c 0
 126 296 119 230 117 178 c 0
40 63 m 0
 40 101 73 131 112 131 c 0
 150 131 180 98 180 59 c 0
 180 21 147 -8 109 -8 c 0
 70 -8 40 24 40 63 c 0
EndSplineSet
Validated: 1
Colour: ff00
EndChar

StartChar: uni0022
Encoding: 34 34 3
Width: 404
GlyphClass: 2
Flags: W
HStem: 656 77<78.943 152 284.943 358>
VStem: 132 56<550.646 649.599> 338 56<550.646 649.599>
LayerCount: 2
Fore
SplineSet
132 733 m 0
 172 733 188 682 188 641 c 0
 188 551 129 487 72 453 c 0
 70 452 69 452 67 452 c 0
 63 452 64 457 68 463 c 0
 85 485 100 508 113 531 c 0
 126 554 132 577 132 598 c 0
 132 622 128 648 98 655 c 0
 94 656 93 656 88 656 c 0
 59 656 35 636 22 619 c 0
 17 613 8 616 14 625 c 1
 32 669 68 714 113 730 c 0
 119 732 126 733 132 733 c 0
338 733 m 0
 378 733 394 682 394 641 c 0
 394 551 335 487 278 453 c 0
 276 452 275 452 273 452 c 0
 269 452 270 457 274 463 c 0
 291 485 306 508 319 531 c 0
 332 554 338 577 338 598 c 0
 338 622 334 648 304 655 c 0
 300 656 299 656 294 656 c 0
 265 656 241 636 228 619 c 0
 223 613 214 616 220 625 c 1
 238 669 274 714 319 730 c 0
 325 732 332 733 338 733 c 0
EndSplineSet
Validated: 1
Colour: ff00
EndChar

StartChar: uni0027
Encoding: 39 39 4
Width: 199
GlyphClass: 2
Flags: W
HStem: 656 77<78.943 152>
VStem: 132 56<550.646 649.599>
LayerCount: 2
Fore
SplineSet
132 733 m 0
 172 733 188 682 188 641 c 0
 188 551 129 487 72 453 c 0
 70 452 69 452 67 452 c 0
 63 452 64 457 68 463 c 0
 85 485 100 508 113 531 c 0
 126 554 132 577 132 598 c 0
 132 622 128 648 98 655 c 0
 94 656 93 656 88 656 c 0
 59 656 35 636 22 619 c 0
 17 613 8 616 14 625 c 1
 32 669 68 714 113 730 c 0
 119 732 126 733 132 733 c 0
EndSplineSet
Validated: 1
Colour: ff00
EndChar

StartChar: uni0028
Encoding: 40 40 5
Width: 319
GlyphClass: 2
Flags: W
HStem: 1000 23<337.869 363>
VStem: 51 115<46.7982 531.883>
LayerCount: 2
Fore
SplineSet
363 -434 m 1
 332 -429 302 -416 275 -393 c 0
 180 -316 125 -177 90 -37 c 0
 66 57 51 172 51 285 c 0
 51 292 51 298 51 305 c 0
 51 474 86 629 134 755 c 0
 168 843 212 920 273 975 c 0
 301 1000 331 1016 363 1023 c 1
 363 1000 l 1
 300 980 262 924 236 862 c 0
 175 719 166 520 166 319 c 2
 166 285 l 2
 166 133 179 -19 206 -144 c 0
 216 -189 228 -229 242 -264 c 0
 267 -327 303 -384 363 -404 c 1
 363 -434 l 1
EndSplineSet
Validated: 1
Colour: ff00
EndChar

StartChar: uni0029
Encoding: 41 41 6
Width: 319
GlyphClass: 2
Flags: W
HStem: -434 30<-44 -14.6914>
VStem: 153 115<50.8388 530.198>
LayerCount: 2
Fore
SplineSet
268 285 m 0
 268 111 231 -50 182 -179 c 0
 149 -264 104 -342 44 -393 c 0
 17 -416 -13 -429 -44 -434 c 1
 -44 -404 l 1
 17 -384 53 -326 78 -265 c 0
 123 -153 141 -9 149 140 c 0
 152 190 152 238 153 285 c 1
 153 331 l 2
 153 479 144 628 118 750 c 0
 101 829 73 903 29 951 c 0
 8 974 -16 991 -44 1000 c 1
 -44 1023 l 1
 -12 1016 18 1000 46 975 c 0
 141 890 195 752 231 606 c 0
 253 515 268 413 268 305 c 0
 268 298 268 292 268 285 c 0
EndSplineSet
Validated: 1
Colour: ff00
EndChar

StartChar: uniA673
Encoding: 42611 42611 7
Width: 387
GlyphClass: 2
Flags: W
DStem2: 233 620 223 600 0.900159 0.435561<0 58.3361> 68 539 21 539 0.942627 -0.333847<0 57.5395> 105 631 71 665 0.431455 -0.902134<0 56.6383> 73 412 105 445 0.427668 0.903936<43.5153 102.883> 71 665 105 631 0.900159 -0.435561<45.4145 103.315> 105 445 73 412 0.896389 0.443269<0 58.2062> 164 620 173 599 0.333847 0.942627<0 57.5395> 173 478 164 457 0.333847 -0.942627<16.7905 74.3301> 198 716 198 669 0.342529 -0.939507<44.1568 102.181> 280 573 258 564 0.942627 -0.333847<0 57.5395> 258 564 280 573 0.447214 0.894427<17.8885 76.0263> 223 478 233 457 0.900159 -0.435561<18.1484 76.4845> 280 505 258 513 0.443354 -0.896347<0 59.101> 258 513 280 505 0.942627 0.333847<18.067 75.6066>
LayerCount: 2
Fore
SplineSet
280 505 m 1
 326 412 l 1
 233 457 l 1
 198 361 l 1
 164 457 l 1
 73 412 l 1
 117 505 l 1
 21 539 l 1
 115 573 l 1
 71 665 l 1
 164 620 l 1
 198 716 l 1
 233 620 l 1
 326 665 l 1
 280 573 l 1
 376 539 l 1
 280 505 l 1
258 564 m 1
 292 632 l 1
 223 600 l 1
 198 669 l 1
 173 599 l 1
 105 631 l 1
 137 564 l 1
 68 539 l 1
 138 513 l 1
 105 445 l 1
 173 478 l 1
 198 408 l 1
 223 478 l 1
 292 445 l 1
 258 513 l 1
 329 539 l 1
 258 564 l 1
EndSplineSet
Validated: 1
Colour: ff00
EndChar

StartChar: uni002B
Encoding: 43 43 8
Width: 453
GlyphClass: 2
Flags: W
HStem: 240 96<0 180 277 450>
VStem: 180 97<48 240 336 520>
LayerCount: 2
Fore
SplineSet
0 336 m 5
 180 336 l 5
 180 520 l 5
 277 520 l 5
 277 336 l 5
 450 336 l 5
 450 240 l 5
 277 240 l 5
 277 48 l 5
 180 48 l 5
 180 240 l 5
 0 240 l 5
 0 336 l 5
EndSplineSet
Validated: 19457
Colour: ff00
EndChar

StartChar: uni002C
Encoding: 44 44 9
Width: 304
GlyphClass: 2
Flags: W
HStem: 51 96<118.603 207.5>
VStem: 181 73<-48.6288 70>
LayerCount: 2
Fore
SplineSet
181 -22 m 0
 181 17 158 51 122 51 c 0
 97 51 73 37 49 10 c 0
 43 3 33 6 33 13 c 0
 33 14 33 16 34 17 c 0
 53 60 69 79 100 110 c 0
 117 127 149 147 181 147 c 0
 234 147 254 97 254 43 c 0
 254 -31 215 -87 175 -120 c 0
 170 -125 117 -169 100 -169 c 0
 91 -169 95 -159 101 -155 c 0
 137 -134 164 -101 176 -57 c 0
 179 -45 181 -33 181 -22 c 0
EndSplineSet
Validated: 1
Substitution2: "'locl' Localized Forms in Latin lookup 19-1" uni002C.latin
Colour: ff00
EndChar

StartChar: uni002D
Encoding: 45 45 10
Width: 375
GlyphClass: 2
Flags: W
HStem: 240 96<17.7812 357.219>
VStem: 14 347<241.388 334.552>
LayerCount: 2
Fore
SplineSet
329 336 m 6
 356 336 361 314 361 287 c 4
 361 260 356 240 329 240 c 6
 46 240 l 6
 19 240 14 260 14 287 c 4
 14 314 19 336 46 336 c 6
 329 336 l 6
EndSplineSet
Validated: 19457
Substitution2: "'ss01' Cyrillic Hyphenation Char-1" uni005F
Colour: ff00
EndChar

StartChar: uni002E
Encoding: 46 46 11
Width: 216
GlyphClass: 2
Flags: W
HStem: -18 142<55.25 154.75>
VStem: 34 142<3.25 102.75>
LayerCount: 2
Fore
SplineSet
34 53 m 0
 34 91 67 124 105 124 c 0
 143 124 176 91 176 53 c 0
 176 15 143 -18 105 -18 c 0
 67 -18 34 15 34 53 c 0
EndSplineSet
Validated: 1
Substitution2: "'locl' Localized Forms in Latin lookup 19-1" uni002E.latin
Colour: ff00
EndChar

StartChar: uni002F
Encoding: 47 47 12
Width: 405
GlyphClass: 2
Flags: W
HStem: -283 21G<-53 12.4241>
VStem: -53 59<-283 -224> 362 59<950 1009>
DStem2: -53 -283 6 -283 0.305818 0.95209<18.0433 1357.01>
LayerCount: 2
Fore
SplineSet
6 -283 m 1
 -53 -283 l 1
 362 1009 l 1
 421 1009 l 1
 6 -283 l 1
EndSplineSet
Validated: 1
Colour: ff00
EndChar

StartChar: uni0030.ss02
Encoding: 62512 62512 13
Width: 532
GlyphClass: 2
Flags: W
HStem: -4 21G<267 310.5> 620 141<173 300.5>
VStem: 19 69<360.275 511.294> 436 76<229.5 394>
LayerCount: 2
Fore
SplineSet
441 144 m 0
 389 45 337 -4 284 -4 c 0
 250 -4 208 24 157 81 c 1
 120 124 88 169 63 214 c 1
 34 269 19 329 19 392 c 0
 19 492 60 579 141 653 c 1
 218 725 263 761 276 761 c 0
 325 761 377 707 433 598 c 1
 486 499 512 422 512 366 c 0
 512 309 488 235 441 144 c 0
344 461 m 0
 279 567 227 620 186 620 c 0
 160 620 137 602 116 565 c 0
 97 532 88 502 88 476 c 0
 88 425 120 355 185 264 c 0
 252 171 308 124 355 124 c 1
 367 126 l 1
 385 134 401 150 415 174 c 0
 429 198 436 220 436 239 c 0
 436 286 405 360 344 461 c 0
EndSplineSet
Validated: 1
Colour: ff00
EndChar

StartChar: uni0031.ss02
Encoding: 62513 62513 14
Width: 419
GlyphClass: 2
Flags: MW
HStem: 0 32<82 161 315 394>
LayerCount: 2
Fore
SplineSet
82 0 m 1
 82 32 l 1
 161 32 l 1
 161 555 l 2
 161 600 148 623 122 623 c 0
 97 623 78 620 64 613 c 1
 57 652 l 1
 144 667 230 702 315 756 c 1
 315 32 l 1
 394 32 l 1
 394 0 l 1
 82 0 l 1
EndSplineSet
Validated: 1
Colour: ff00
EndChar

StartChar: uni0032.ss02
Encoding: 62514 62514 15
Width: 529
GlyphClass: 2
Flags: W
HStem: -11 20G<51.3333 82.5 433.5 447.342> 16 112<195.175 410.037> 607 144<183.224 309.717>
VStem: 350 128<430 634>
LayerCount: 2
Fore
SplineSet
283 128 m 0
 308 128 392 116 417 116 c 0
 443 116 466 131 485 161 c 1
 509 140 l 1
 438 -12 l 1
 429 -9 385 0 311 10 c 0
 270 15 238 16 216 16 c 0
 201 16 191 16 187 16 c 0
 134 16 95 7 70 -11 c 1
 42 19 l 1
 247 233 350 385 350 475 c 0
 350 563 312 607 237 607 c 0
 209 607 174 589 152 572 c 1
 104 525 l 1
 40 588 l 1
 99 697 183 751 291 751 c 0
 390 751 478 683 478 585 c 0
 478 486 383 327 194 109 c 1
 219 122 248 128 283 128 c 0
EndSplineSet
Validated: 1
Colour: ff00
EndChar

StartChar: uni0033.ss02
Encoding: 62515 62515 16
Width: 553
GlyphClass: 2
Flags: W
HStem: -49 55<110.818 160.383> 640 111<193.773 356>
VStem: 333 153<542.57 662.5> 362 165<203.931 309.441>
LayerCount: 2
Fore
SplineSet
311 751 m 0xe0
 401 751 486 705 486 620 c 0xe0
 486 586 474 553 450 521 c 1
 379 441 l 1
 383 434 l 1
 425 434 459 417 485 394 c 0
 513 369 527 337 527 297 c 0
 527 212 477 135 377 64 c 0
 294 6 207 -32 114 -49 c 1
 89 6 l 1
 271 52 362 131 362 244 c 0xd0
 362 311 312 350 244 350 c 0
 222 350 194 341 159 324 c 1
 138 364 l 1
 214 389 333 479 333 568 c 0
 333 614 286 640 237 640 c 0
 174 640 125 608 89 544 c 1
 36 581 l 1
 96 694 188 751 311 751 c 0xe0
EndSplineSet
Validated: 1
Colour: ff00
EndChar

StartChar: uni0034.ss02
Encoding: 62516 62516 17
Width: 655
GlyphClass: 2
Flags: MW
HStem: 0 32<275 359 498 572> 195 115<499.728 583> 210 96<127.188 359>
LayerCount: 2
Fore
SplineSet
583 195 m 1xc0
 563 195 535 203 498 210 c 1
 498 32 l 1
 572 32 l 1
 572 0 l 1
 275 0 l 1
 275 32 l 1
 359 32 l 1
 359 210 l 1
 268 210 l 2xa0
 158 210 81 198 38 175 c 1
 21 246 l 1
 166 459 301 610 424 700 c 1
 424 700 447 716 460 727 c 0
 469 735 478 737 488 756 c 1
 537 736 l 1
 511 678 498 617 498 558 c 2
 498 310 l 1
 502 310 l 2
 543 310 582 319 619 337 c 1
 583 195 l 1xc0
139 298 m 2
 180 298 318 306 359 306 c 1
 359 576 l 1
 282 513 205 420 127 298 c 1
 139 298 l 2
EndSplineSet
Validated: 1
Colour: ff00
EndChar

StartChar: uni0035.ss02
Encoding: 62517 62517 18
Width: 470
GlyphClass: 2
Flags: W
HStem: -38 50<79.48 131.929> 609 122<130.939 331.81> 609 102<130.939 396.964>
VStem: 31 81<476.5 590> 301 138<206.312 346>
LayerCount: 2
Fore
SplineSet
64 12 m 1xd8
 174 33 301 117 301 234 c 0
 301 279 277 315 230 341 c 1
 101 397 l 1
 54 421 31 455 31 498 c 0
 31 539 61 616 121 731 c 1xd8
 258 731 329 711 332 711 c 0xb8
 375 711 405 726 424 756 c 1
 452 749 l 1
 441 729 423 684 398 615 c 1
 376 611 347 609 311 609 c 2
 260 609 l 2
 235 609 191 615 128 627 c 1
 127 626 126 624 126 623 c 0
 117 608 112 595 112 585 c 0
 112 547 140 520 197 505 c 0
 293 480 345 465 354 461 c 0
 411 432 439 382 439 310 c 0
 439 224 400 146 323 76 c 1
 250 11 170 -27 82 -38 c 1
 64 12 l 1xd8
EndSplineSet
Validated: 1
Colour: ff00
EndChar

StartChar: uni0036.ss02
Encoding: 62518 62518 19
Width: 557
GlyphClass: 2
Flags: W
HStem: -14 21G<261.5 309> 406 124<278.265 359.083> 760 20G<272.5 412.379>
VStem: 35 127<266.091 394.423> 455 80<198.5 312>
LayerCount: 2
Fore
SplineSet
214 421 m 1
 235 450 310 530 348 530 c 0
 388 530 430 500 473 440 c 0
 514 383 535 333 535 291 c 0
 535 245 505 183 445 106 c 0
 382 26 330 -14 288 -14 c 0
 235 -14 179 25 120 102 c 0
 63 176 35 242 35 301 c 0
 35 422 154 581 391 780 c 1
 422 751 l 1
 257 576 l 1
 194 499 162 428 162 362 c 0
 162 301 185 246 230 199 c 0
 257 171 306 134 377 89 c 1
 430 143 l 1
 447 164 455 186 455 211 c 0
 455 253 433 296 388 340 c 0
 344 384 300 406 255 406 c 0
 248 406 241 405 234 403 c 1
 214 421 l 1
EndSplineSet
Validated: 1
Colour: ff00
EndChar

StartChar: uni0037.ss02
Encoding: 62519 62519 20
Width: 551
GlyphClass: 2
Flags: W
HStem: 580 150<115.47 384.856>
LayerCount: 2
Fore
SplineSet
536 725 m 1
 507 689 459 600 394 458 c 0
 335 329 295 233 276 172 c 1
 255 110 245 46 245 -19 c 0
 245 -50 247 -75 251 -92 c 1
 206 -75 167 -67 132 -67 c 0
 127 -67 123 -67 118 -67 c 1
 151 119 292 416 385 580 c 1
 180 580 l 2
 139 580 116 569 109 548 c 1
 58 566 l 1
 69 607 88 666 114 744 c 1
 145 735 199 730 276 730 c 0
 381 730 455 739 498 756 c 1
 536 725 l 1
EndSplineSet
Validated: 1
Colour: ff00
EndChar

StartChar: uni0038.ss02
Encoding: 62520 62520 21
Width: 594
GlyphClass: 2
Flags: W
HStem: -14 87<271.5 381> 664 87<213.5 336.5>
VStem: 57 95<200.5 298.412> 81 87<500 617> 437 91<490.141 552.973> 457 104<141.459 219.566>
LayerCount: 2
Fore
SplineSet
457 60 m 1xc4
 390 11 337 -14 294 -14 c 0
 249 -14 198 14 141 70 c 0
 85 126 57 177 57 224 c 0xe4
 57 287 98 341 179 386 c 1
 114 429 81 475 81 525 c 0
 81 573 108 623 162 674 c 0
 216 725 267 751 315 751 c 0
 358 751 404 728 454 681 c 0
 503 634 528 590 528 547 c 0xd8
 528 507 490 459 413 402 c 1
 470 365 505 338 519 323 c 0
 547 292 561 251 561 201 c 0
 561 160 526 113 457 60 c 1xc4
227 664 m 0
 200 664 168 631 168 603 c 0
 168 566 195 530 250 495 c 1
 268 482 311 459 380 426 c 1
 418 443 437 468 437 501 c 0xd8
 437 533 410 568 357 606 c 0
 304 645 260 664 227 664 c 0
203 197 m 0
 227 174 323 73 378 73 c 0
 384 73 389 74 394 76 c 1
 428 99 l 1
 447 114 457 134 457 157 c 0
 457 189 444 216 417 239 c 0
 395 258 360 283 312 312 c 0
 258 345 224 362 209 362 c 0
 178 362 152 323 152 292 c 0xe4
 152 259 170 228 203 197 c 0
EndSplineSet
Validated: 1
Colour: ff00
EndChar

StartChar: uni0039.ss02
Encoding: 62521 62521 22
Width: 570
GlyphClass: 2
Flags: W
HStem: 213 124<214.937 300.951>
VStem: 42 79<429.5 536.154> 412 128<347.16 481.255>
LayerCount: 2
Fore
SplineSet
363 321 m 1
 339 287 273 213 229 213 c 0
 188 213 146 243 103 302 c 0
 62 359 42 408 42 451 c 0
 42 524 92 604 193 689 c 1
 237 727 l 1
 258 743 275 751 290 751 c 0
 337 751 391 716 451 645 c 0
 510 574 540 511 540 454 c 0
 540 369 497 278 412 179 c 0
 381 142 306 69 185 -40 c 1
 151 0 l 1
 245 73 412 251 412 386 c 0
 412 447 389 500 343 545 c 0
 334 554 286 590 199 653 c 1
 147 609 121 568 121 529 c 0
 121 484 143 440 186 399 c 0
 229 358 275 337 322 337 c 0
 329 337 336 337 342 338 c 1
 363 321 l 1
EndSplineSet
Validated: 1
Colour: ff00
EndChar

StartChar: uni003A
Encoding: 58 58 23
Width: 276
GlyphClass: 2
Flags: W
HStem: -14 21G<139.5 140.5>
VStem: 68 147
AnchorPoint: "left" 21.7778 509.2 basechar 0
AnchorPoint: "right" 275 512 basechar 0
LayerCount: 2
Fore
SplineSet
144 -12 m 2
 143 -14 141 -14 140 -14 c 0
 139 -14 137 -14 136 -12 c 2
 68 68 l 2
 67 70 68 71 68 73 c 0
 68 74 67 76 68 77 c 2
 136 156 l 2
 139 159 141 159 144 156 c 2
 215 77 l 2
 216 76 216 74 216 73 c 0
 216 72 216 71 215 70 c 2
 144 -12 l 2
144 254 m 2
 143 252 141 252 140 252 c 0
 139 252 137 252 136 254 c 2
 68 334 l 2
 67 336 68 337 68 339 c 0
 68 340 67 342 68 343 c 2
 136 422 l 2
 137 423 139 424 140 424 c 0
 141 424 143 423 144 422 c 2
 215 343 l 2
 216 342 216 340 216 339 c 0
 216 338 216 337 215 336 c 2
 144 254 l 2
EndSplineSet
Validated: 19457
Substitution2: "'locl' Localized Forms in Latin lookup 19-1" uni003A.latin
Colour: ff00
EndChar

StartChar: uni003C
Encoding: 60 60 24
Width: 611
GlyphClass: 2
Flags: W
DStem2: 161 296 40 296 0.894756 -0.446554<0 471.81> 40 296 161 296 0.894098 0.447872<108.186 580.444>
LayerCount: 2
Fore
SplineSet
583 508 m 1
 161 296 l 1
 583 85 l 1
 583 25 l 1
 40 296 l 1
 583 568 l 1
 583 508 l 1
EndSplineSet
Validated: 1
Colour: ff00
EndChar

StartChar: uni003D
Encoding: 61 61 25
Width: 376
GlyphClass: 2
Flags: W
HStem: 203 96<17.7812 357.219> 395 96<17.7812 358.219>
LayerCount: 2
Fore
SplineSet
330 491 m 2
 356 491 362 469 362 442 c 0
 362 415 356 395 330 395 c 2
 46 395 l 2
 20 395 14 415 14 442 c 0
 14 469 20 491 46 491 c 2
 330 491 l 2
329 299 m 2
 356 299 361 277 361 250 c 0
 361 223 356 203 329 203 c 2
 46 203 l 2
 19 203 14 223 14 250 c 0
 14 277 19 299 46 299 c 2
 329 299 l 2
EndSplineSet
Validated: 19457
Colour: ff00
EndChar

StartChar: uni003E
Encoding: 62 62 26
Width: 600
GlyphClass: 2
Flags: W
DStem2: 40 568 40 508 0.894098 -0.447872<26.8723 500.025> 40 84 40 25 0.894756 0.446554<0 473.152>
LayerCount: 2
Fore
SplineSet
40 84 m 1
 463 296 l 1
 40 508 l 1
 40 568 l 1
 583 296 l 1
 40 25 l 1
 40 84 l 1
EndSplineSet
Validated: 1
Colour: ff00
EndChar

StartChar: uni003F
Encoding: 63 63 27
Width: 368
GlyphClass: 2
Flags: W
HStem: 702 79<43 177.133>
VStem: 243 98<556.137 648.508>
LayerCount: 2
Fore
SplineSet
129 781 m 0
 234 781 341 725 341 626 c 0
 341 579 312 533 254 487 c 1
 219 458 l 2
 173 421 150 391 150 367 c 0
 150 330 177 303 232 285 c 1
 205 268 181 242 161 209 c 1
 116 228 86 252 70 279 c 1
 79 328 108 385 157 448 c 1
 181 480 l 1
 222 532 243 570 243 594 c 0
 243 666 154 702 76 702 c 0
 69 702 58 701 43 700 c 1
 63 722 79 748 92 779 c 1
 105 780 117 781 129 781 c 0
220 84 m 1
 189 68 163 41 140 4 c 1
 117 41 91 67 60 84 c 1
 91 100 117 127 140 164 c 1
 163 127 189 100 220 84 c 1
EndSplineSet
Validated: 1
Colour: ff00
EndChar

StartChar: uni005B
Encoding: 91 91 28
Width: 297
GlyphClass: 2
Flags: W
HStem: -200 19<120 261> 903 19<120 261>
VStem: 63 57<-181 903>
LayerCount: 2
Fore
SplineSet
63 -200 m 1
 63 922 l 1
 261 922 l 1
 261 903 l 1
 120 903 l 1
 120 -181 l 1
 261 -181 l 1
 261 -200 l 1
 63 -200 l 1
EndSplineSet
Validated: 1
Colour: ff00
EndChar

StartChar: uni005C
Encoding: 92 92 29
Width: 555
GlyphClass: 2
Flags: W
VStem: 6 55<958 1013> 396 55<-202 -147>
DStem2: 61 1013 6 1013 0.305629 -0.952151<0 1259.25>
LayerCount: 2
Fore
SplineSet
451 -202 m 1
 396 -202 l 1
 6 1013 l 1
 61 1013 l 1
 451 -202 l 1
EndSplineSet
Validated: 1
Colour: ff00
EndChar

StartChar: uni005D
Encoding: 93 93 30
Width: 297
GlyphClass: 2
Flags: W
HStem: -200 19<18 159> 903 19<18 159>
VStem: 159 57<-181 903>
LayerCount: 2
Fore
SplineSet
18 -200 m 1
 18 -181 l 1
 159 -181 l 1
 159 903 l 1
 18 903 l 1
 18 922 l 1
 216 922 l 1
 216 -200 l 1
 18 -200 l 1
EndSplineSet
Validated: 1
Colour: ff00
EndChar

StartChar: uni005F
Encoding: 95 95 31
Width: 375
GlyphClass: 2
Flags: W
HStem: 0 96<17.0059 357.994>
VStem: 14 347<1.15037 94.7421>
LayerCount: 2
Fore
SplineSet
329 96 m 2
 356 96 361 74 361 47 c 0
 361 20 356 0 329 0 c 2
 46 0 l 2
 19 0 14 20 14 47 c 0
 14 74 19 96 46 96 c 2
 329 96 l 2
EndSplineSet
Validated: 19457
Colour: ff00
EndChar

StartChar: uni007B
Encoding: 123 123 32
Width: 320
GlyphClass: 2
Flags: W
HStem: -242 20<258.485 296> 343 20<15 50.6535> 932 20<258.485 296>
VStem: 115 65<-113.81 252.053 449.296 820.952>
LayerCount: 2
Fore
SplineSet
115 56 m 0
 115 247 84 343 21 343 c 0
 19 343 17 343 15 343 c 1
 15 363 l 1
 17 363 19 363 21 363 c 0
 84 363 115 459 115 652 c 0
 115 852 175 952 296 952 c 1
 296 932 l 1
 219 932 180 850 180 686 c 2
 180 646 l 2
 180 484 153 387 99 353 c 1
 153 312 180 213 180 56 c 2
 180 17 l 2
 180 -142 219 -222 296 -222 c 1
 296 -242 l 1
 175 -242 115 -143 115 56 c 0
EndSplineSet
Validated: 1
Colour: ff00
EndChar

StartChar: uni007C
Encoding: 124 124 33
Width: 161
GlyphClass: 2
Flags: W
VStem: 54 56<-306 1032>
LayerCount: 2
Fore
SplineSet
110 -306 m 1
 54 -324 l 1
 54 1032 l 1
 110 1051 l 1
 110 -306 l 1
EndSplineSet
Validated: 1
Colour: ff00
EndChar

StartChar: uni007D
Encoding: 125 125 34
Width: 302
GlyphClass: 2
Flags: W
HStem: -242 20<6 43.5152> 343 20<251.346 287> 932 20<6 43.5152>
VStem: 122 65<-113.81 252.053 449.296 820.952>
LayerCount: 2
Fore
SplineSet
6 -242 m 1
 6 -222 l 1
 83 -222 122 -142 122 17 c 2
 122 56 l 2
 122 213 149 312 203 353 c 1
 149 387 122 484 122 646 c 2
 122 686 l 2
 122 850 83 932 6 932 c 1
 6 952 l 1
 127 952 187 852 187 652 c 0
 187 459 218 363 281 363 c 0
 283 363 285 363 287 363 c 1
 287 343 l 1
 285 343 283 343 281 343 c 0
 218 343 187 247 187 56 c 0
 187 -143 127 -242 6 -242 c 1
EndSplineSet
Validated: 1
Colour: ff00
EndChar

StartChar: uni00AB
Encoding: 171 171 36
Width: 480
GlyphClass: 2
Flags: W
HStem: -5 21G<212.767 255 422.498 467> 417 20G<212.47 255 422.196 467>
LayerCount: 2
Fore
SplineSet
229 -5 m 1
 48 218 l 1
 229 437 l 1
 255 437 l 1
 141 218 l 1
 255 -5 l 1
 229 -5 l 1
439 -5 m 1
 255 218 l 1
 439 437 l 1
 467 437 l 1
 354 218 l 1
 467 -5 l 1
 439 -5 l 1
EndSplineSet
Validated: 1
Colour: ff00
EndChar

StartChar: uni00AC
Encoding: 172 172 37
Width: 399
GlyphClass: 2
Flags: W
HStem: 223 59<36 310>
VStem: 310 57<91 223>
LayerCount: 2
Fore
SplineSet
367 282 m 1
 367 91 l 1
 310 91 l 1
 310 223 l 1
 36 223 l 1
 36 282 l 1
 367 282 l 1
EndSplineSet
Validated: 1
Colour: ff00
EndChar

StartChar: uni00B6
Encoding: 182 182 39
Width: 512
GlyphClass: 2
Flags: W
HStem: 758 20G<203.5 315 396 477>
VStem: 34 281<480.402 665.516> 235 80<-256 373> 396 81<-256 778>
LayerCount: 2
Fore
SplineSet
34 579 m 0xd0
 34 631 60 683 89 716 c 0
 124 753 172 778 235 778 c 2
 315 778 l 1
 315 -256 l 1
 235 -256 l 1
 235 373 l 1xb0
 178 373 131 389 96 426 c 0
 63 461 34 503 34 579 c 0xd0
396 778 m 1
 477 778 l 1
 477 -256 l 1
 396 -256 l 1
 396 778 l 1
EndSplineSet
Validated: 1
Colour: ff00
EndChar

StartChar: uni00B7
Encoding: 183 183 40
Width: 149
GlyphClass: 2
Flags: W
HStem: 153 130<26.8503 122.603>
VStem: 10 129<169.85 266.15>
LayerCount: 2
Fore
SplineSet
10 218 m 260
 10 254 39 283 75 283 c 260
 111 283 139 254 139 218 c 260
 139 182 111 153 75 153 c 260
 39 153 10 182 10 218 c 260
EndSplineSet
Validated: 1
Colour: ff00
EndChar

StartChar: uni00BB
Encoding: 187 187 41
Width: 480
GlyphClass: 2
Flags: W
HStem: -5 21G<13 57.6516 225 267.38> 417 20G<13 57.6516 225 267.38>
VStem: 126 99<166.5 265.5> 339 93<169.5 262.5>
LayerCount: 2
Fore
SplineSet
251 437 m 1
 432 216 l 1
 251 -5 l 1
 225 -5 l 1
 339 216 l 1
 225 437 l 1
 251 437 l 1
41 437 m 1
 225 216 l 1
 41 -5 l 1
 13 -5 l 1
 126 216 l 1
 13 437 l 1
 41 437 l 1
EndSplineSet
Validated: 1
Colour: ff00
EndChar

StartChar: uniA67E
Encoding: 42622 42622 42
Width: 334
GlyphClass: 2
Flags: W
HStem: 538 57<112.682 221.619>
VStem: 21 58<630.305 729> 253 58<627.75 729>
LayerCount: 2
Fore
SplineSet
166 538 m 0
 92 538 48 586 30 643 c 0
 24 662 21 682 21 701 c 2
 21 729 l 1
 79 729 l 1
 79 704 l 2
 79 659 97 624 126 606 c 1
 136 598 150 595 166 595 c 0
 225 595 253 646 253 704 c 2
 253 729 l 1
 311 729 l 1
 311 701 l 2
 311 630 276 578 229 552 c 0
 211 543 190 538 166 538 c 0
EndSplineSet
Validated: 1
Colour: ff00
EndChar

StartChar: uni0300
Encoding: 768 768 43
Width: 0
GlyphClass: 4
Flags: W
HStem: 539 227
VStem: -328 194
AnchorPoint: "stacking" -158.722 539 mark 0
AnchorPoint: "stacking" -280 788 basemark 0
AnchorPoint: "Diacritic" -161 539 mark 0
LayerCount: 2
Fore
SplineSet
-173 539 m 1
 -328 762 l 2
 -329 763 -328 763 -328 764 c 0
 -328 766 -327 766 -325 766 c 0
 -324 766 -323 766 -322 766 c 2
 -252 766 l 1
 -134 548 l 2
 -133 546 -133 545 -133 544 c 0
 -133 541 -135 539 -138 539 c 2
 -173 539 l 1
EndSplineSet
Validated: 19457
Colour: ff00
EndChar

StartChar: uni0301
Encoding: 769 769 44
Width: 0
GlyphClass: 4
Flags: W
HStem: 539 222
VStem: -241 192
AnchorPoint: "stacking" -76.7222 788.2 basemark 0
AnchorPoint: "stacking" -223 539 mark 0
AnchorPoint: "Diacritic" -224 539 mark 0
LayerCount: 2
Fore
SplineSet
-236 539 m 2
 -238 539 -240 540 -241 543 c 0
 -241 544 -241 546 -240 548 c 2
 -122 761 l 1
 -56 761 l 2
 -53 761 -49 758 -49 754 c 0
 -49 753 -49 752 -50 751 c 2
 -203 539 l 1
 -236 539 l 2
EndSplineSet
Validated: 19457
Colour: ff00
EndChar

StartChar: uniA66F
Encoding: 42607 42607 45
Width: 0
GlyphClass: 4
Flags: W
HStem: 519 139<-456 -361 -157 -62> 623 35<-361 -157> 635 23<-484.813 -456 -62 -31.1874>
VStem: -456 95<519 623> -157 95<519 623>
AnchorPoint: "stacking" -252 718.2 basemark 0
AnchorPoint: "stacking" -256 525 mark 0
AnchorPoint: "Diacritic" -257 538.8 mark 0
LayerCount: 2
Fore
SplineSet
-226 623 m 1x58
 -361 623 l 1x58
 -361 519 l 1
 -456 519 l 1x98
 -456 635 l 1
 -477 638 l 2
 -483 639 -485 644 -485 649 c 0
 -485 654 -482 658 -475 658 c 2x38
 -226 658 l 1x58
 -41 658 l 2
 -34 658 -31 654 -31 649 c 0
 -31 644 -33 639 -39 638 c 2
 -62 635 l 1x38
 -62 519 l 1
 -157 519 l 1x98
 -157 623 l 1
 -226 623 l 1x58
EndSplineSet
Validated: 19457
Colour: ff00ff
EndChar

StartChar: uni0306
Encoding: 774 774 46
Width: 0
GlyphClass: 4
Flags: W
HStem: 539 68<-228.077 -129.262>
VStem: -287 37<632.461 719.143> -90 30<658.809 750.237>
AnchorPoint: "stacking" -167.5 780.6 basemark 0
AnchorPoint: "stacking" -187.5 539.4 mark 0
AnchorPoint: "Diacritic" -187 539.1 mark 0
LayerCount: 2
Fore
SplineSet
-60 697 m 0
 -60 622 -108 539 -184 539 c 0
 -186 539 -188 539 -190 539 c 0
 -256 539 -287 586 -287 646 c 0
 -287 686 -269 730 -249 743 c 0
 -241 748 -232 741 -238 732 c 0
 -246 720 -250 706 -250 687 c 0
 -250 637 -216 607 -179 607 c 0
 -136 607 -99 653 -92 690 c 0
 -90 700 -90 705 -90 710 c 0
 -90 715 -90 722 -91 732 c 0
 -92 742 -92 752 -82 752 c 2
 -81 752 l 2
 -72 752 -66 739 -64 732 c 0
 -62 724 -60 711 -60 697 c 0
EndSplineSet
Validated: 19457
Colour: ff00
EndChar

StartChar: uni0307
Encoding: 775 775 47
Width: 0
GlyphClass: 4
Flags: W
HStem: 536 115<-106.875 -30.6455>
VStem: -117 85<543.691 649>
AnchorPoint: "stacking" -68.5 672.3 basemark 0
AnchorPoint: "stacking" -65.5 539.3 mark 0
AnchorPoint: "Diacritic" -69 539 mark 0
LayerCount: 2
Fore
SplineSet
-16 542 m 1
 -30 538 -47 536 -64 536 c 0
 -78 536 -90 537 -101 540 c 1
 -110 560 -114 595 -117 621 c 1
 -117 631 -117 640 -117 647 c 1
 -102 649 -85 651 -68 651 c 0
 -55 651 -43 649 -32 649 c 1
 -22 619 -20 578 -16 542 c 1
EndSplineSet
Validated: 1
Colour: ff00
EndChar

StartChar: uni0308
Encoding: 776 776 48
Width: 0
GlyphClass: 4
Flags: W
HStem: 530 115<-283.934 -207.645> 536 115<-146.875 -70.6455>
VStem: -294 85<537.691 643> -157 85<543.691 649>
AnchorPoint: "stacking" -183 685.8 basemark 0
AnchorPoint: "stacking" -175 539.2 mark 0
AnchorPoint: "Diacritic" -176 539.3 mark 0
LayerCount: 2
Fore
SplineSet
-56 542 m 1x70
 -70 538 -87 536 -104 536 c 0
 -118 536 -130 537 -141 540 c 1
 -150 560 -154 595 -157 621 c 1
 -157 631 -157 640 -157 647 c 1
 -142 649 -125 651 -108 651 c 0
 -95 651 -83 649 -72 649 c 1
 -62 619 -60 578 -56 542 c 1x70
-193 536 m 1
 -207 532 -224 530 -241 530 c 0xb0
 -255 530 -267 533 -278 536 c 1x70
 -287 556 -294 589 -294 615 c 0
 -294 625 -294 634 -294 641 c 1
 -279 644 -262 645 -245 645 c 0xb0
 -232 645 -220 643 -209 643 c 1
 -199 613 -197 572 -193 536 c 1
EndSplineSet
Validated: 19457
Colour: ff00
EndChar

StartChar: uni0311
Encoding: 785 785 49
Width: 0
GlyphClass: 4
Flags: W
HStem: 672 58<-295.262 -192.712>
VStem: -383 58<539 639.601> -161 58<539 638.221>
AnchorPoint: "stacking" -244 772.6 basemark 0
AnchorPoint: "stacking" -232 539 mark 0
AnchorPoint: "Diacritic" -231 539 mark 0
LayerCount: 2
Fore
SplineSet
-243 672 m 0
 -302 672 -325 615 -325 556 c 2
 -325 539 l 1
 -383 539 l 1
 -383 554 l 2
 -383 630 -352 688 -303 715 c 0
 -286 725 -266 730 -243 730 c 0
 -169 730 -128 678 -112 620 c 0
 -106 599 -103 577 -103 554 c 2
 -103 539 l 1
 -161 539 l 1
 -161 556 l 2
 -161 604 -176 642 -206 662 c 0
 -216 668 -228 672 -243 672 c 0
EndSplineSet
Validated: 1
Colour: ff00
EndChar

StartChar: uni033E
Encoding: 830 830 50
Width: 0
GlyphClass: 4
Flags: W
HStem: 543 266
VStem: -154 96<616 677.71>
DStem2: -197 561 -187 543 0.870311 0.492502<-8.97735 54.9017> -57 809 -95 763 0.872506 0.488603<-57.016 6.13009>
AnchorPoint: "stacking" -176 539.9 mark 0
AnchorPoint: "stacking" -50 829.9 basemark 0
AnchorPoint: "Yerok" -175 537.1 mark 0
LayerCount: 2
Fore
SplineSet
-187 543 m 2
 -191 541 -198 543 -200 548 c 0
 -202 553 -201 559 -197 561 c 2
 -154 585 l 1
 -154 604 -156 627 -162 640 c 0
 -171 663 -183 691 -183 722 c 0
 -183 730 -183 734 -182 739 c 1
 -57 809 l 2
 -55 810 -53 811 -51 811 c 0
 -46 811 -41 807 -41 801 c 0
 -41 798 -42 794 -47 791 c 1
 -95 763 l 1
 -82 731 -64 676 -59 639 c 0
 -58 631 -57 623 -58 616 c 1
 -187 543 l 2
EndSplineSet
Validated: 19457
Colour: ff00
EndChar

StartChar: uni0400
Encoding: 1024 1024 51
Width: 697
GlyphClass: 2
Flags: W
HStem: -8 25<208.935 307.102> 309 21<420.012 477 593 625.988> 473 70<358.239 442.272> 625 21<370.02 446 562.809 615.985> 756 22<263.805 379.745>
VStem: 55 121<420.575 611.624> 176 52<19.4475 185.842> 477 116<330 436.989>
DStem2: 376 215 370 191 0.959949 -0.280176<-10.2512 54.3645 176.889 228.694>
LayerCount: 2
Fore
SplineSet
381 625 m 1xfd
 375 625 370 628 370 635 c 0
 370 640 373 646 379 646 c 2
 445 646 l 1
 446 650 446 652 446 657 c 0
 446 715 389 756 331 756 c 0
 191 756 176 652 176 553 c 0xfd
 176 506 192 449 205 386 c 1
 253 442 341 543 436 543 c 0
 437 543 438 543 439 543 c 0
 509 543 566 485 579 437 c 0
 590 400 593 366 593 341 c 0
 593 338 593 333 593 330 c 1
 615 330 l 2
 622 330 626 326 626 320 c 0
 626 314 622 309 615 309 c 2
 430 309 l 2
 424 309 420 313 420 319 c 0
 420 325 424 330 430 330 c 2
 477 330 l 1
 477 351 476 373 471 400 c 0
 463 444 431 473 383 473 c 0
 354 473 322 456 298 437 c 0
 275 419 237 384 211 358 c 1
 227 270 228 177 228 105 c 0
 228 74 218 37 208 21 c 1
 226 18 234 17 252 17 c 0
 341 17 419 110 419 176 c 1
 370 191 l 2
 365 193 362 196 362 204 c 0
 362 211 370 216 376 215 c 1
 585 154 l 2
 590 152 593 147 593 142 c 0
 593 135 588 128 579 130 c 2
 540 141 l 1
 515 71 382 -8 251 -8 c 0
 218 -8 190 -5 165 0 c 0
 159 1 157 6 157 11 c 0
 157 18 159 25 161 28 c 0
 172 49 176 72 176 95 c 0xfb
 176 166 127 234 104 294 c 0
 74 373 55 423 55 507 c 0
 55 666 183 778 330 778 c 0
 489 778 545 714 566 646 c 1
 605 646 l 2
 611 646 616 642 616 635 c 0
 616 629 612 625 606 625 c 2
 381 625 l 1xfd
337 844 m 2
 338 843 338 842 338 841 c 0
 338 838 332 835 330 835 c 2
 299 835 l 1
 120 1032 l 2
 118 1034 118 1035 118 1037 c 0
 118 1043 126 1048 131 1048 c 2
 195 1048 l 1
 337 844 l 2
EndSplineSet
Validated: 1
Ligature2: "Cyrillic Canonical Equivalents" uni0415 uni0300
LCarets2: 1 0
Colour: ff00ff
EndChar

StartChar: uni0401
Encoding: 1025 1025 52
Width: 687
GlyphClass: 2
Flags: W
HStem: -8 25<208.935 307.102> 309 21<420.012 477 593 625.988> 473 70<358.239 442.272> 625 21<370.02 446 562.809 615.985> 756 22<263.805 379.745> 849 126<188.335 266.392> 854 126<363.335 441.392>
VStem: 55 121<420.575 611.624> 176 52<19.4475 185.842> 477 116<330 436.989>
DStem2: 376 215 370 191 0.959949 -0.280176<-10.2512 54.3645 176.889 228.694>
LayerCount: 2
Fore
SplineSet
381 625 m 1xf940
 375 625 370 628 370 635 c 0
 370 640 373 646 379 646 c 2
 445 646 l 1
 446 650 446 652 446 657 c 0
 446 715 389 756 331 756 c 0
 191 756 176 652 176 553 c 0xf940
 176 506 192 449 205 386 c 1
 253 442 341 543 436 543 c 0
 437 543 438 543 439 543 c 0
 509 543 566 485 579 437 c 0
 590 400 593 366 593 341 c 0
 593 338 593 333 593 330 c 1
 615 330 l 2
 622 330 626 326 626 320 c 0
 626 314 622 309 615 309 c 2
 430 309 l 2
 424 309 420 313 420 319 c 0
 420 325 424 330 430 330 c 2
 477 330 l 1
 477 351 476 373 471 400 c 0
 463 444 431 473 383 473 c 0
 354 473 322 456 298 437 c 0
 275 419 237 384 211 358 c 1
 227 270 228 177 228 105 c 0
 228 74 218 37 208 21 c 1
 226 18 234 17 252 17 c 0
 341 17 419 110 419 176 c 1
 370 191 l 2
 365 193 362 196 362 204 c 0
 362 211 370 216 376 215 c 1
 585 154 l 2
 590 152 593 147 593 142 c 0
 593 135 588 128 579 130 c 2
 540 141 l 1
 515 71 382 -8 251 -8 c 0
 218 -8 190 -5 165 0 c 0
 159 1 157 6 157 11 c 0
 157 18 159 25 161 28 c 0
 172 49 176 72 176 95 c 0xf8c0
 176 166 127 234 104 294 c 0
 74 373 55 423 55 507 c 0
 55 666 183 778 330 778 c 0
 489 778 545 714 566 646 c 1
 605 646 l 2
 611 646 616 642 616 635 c 0
 616 629 612 625 606 625 c 2
 381 625 l 1xf940
172 971 m 5
 189 974 208 975 226 975 c 4
 240 975 253 975 265 973 c 5
 275 946 283 883 283 855 c 5
 268 851 248 849 230 849 c 4xfc40
 216 849 203 850 189 853 c 5
 182 874 172 939 172 971 c 5
347 976 m 5
 364 979 383 980 401 980 c 4
 415 980 428 980 440 978 c 5
 450 951 458 888 458 860 c 5
 442 856 423 854 405 854 c 4xfa40
 391 854 378 855 364 858 c 5
 357 879 347 944 347 976 c 5
EndSplineSet
Validated: 1
Ligature2: "Cyrillic Canonical Equivalents" uni0415 uni0308
LCarets2: 1 0
Colour: ff00ff
EndChar

StartChar: uni0402
Encoding: 1026 1026 53
Width: 765
GlyphClass: 2
Flags: W
HStem: -100 9<523 530.276> 0 24<204 264 384 437> 441 30<384 486.375> 751 25<11 51 166 264 384 500.111>
VStem: 51 115<532 751> 264 120<24 441 471 751> 565 27<616.012 669.969> 619 127<35.7344 296.448>
LayerCount: 2
Fore
SplineSet
646 776 m 2
 652 776 656 771 654 765 c 1
 654 760 651 752 648 751 c 0
 613 729 599 672 592 623 c 0
 591 618 587 615 579 616 c 1
 570 616 566 618 565 623 c 0
 559 669 534 714 503 737 c 0
 492 745 464 751 420 751 c 2
 384 751 l 1
 384 471 l 5
 427 471 468 465 507 459 c 5
 565 445 l 5
 611 428 650 407 681 374 c 5
 723 326 746 264 746 180 c 4
 746 95 742 70 715 17 c 4
 703 -7 670 -37 646 -55 c 4
 629 -68 584 -86 558 -91 c 6
 513 -100 l 5
 555 -70 590 -33 608 20 c 4
 614 39 619 83 619 117 c 6
 619 140 l 6
 619 240 601 313 558 378 c 5
 524 424 459 441 384 441 c 5
 384 24 l 1
 437 24 l 1
 437 0 l 1
 204 0 l 1
 204 24 l 1
 264 24 l 1
 264 751 l 1
 166 751 l 1
 166 532 l 1
 51 532 l 1
 51 751 l 1
 11 751 l 1
 11 776 l 1
 646 776 l 2
EndSplineSet
Validated: 19457
Colour: ff00ff
EndChar

StartChar: uni0403
Encoding: 1027 1027 54
Width: 502
GlyphClass: 2
Flags: W
HStem: -0 24<55 115 235 295> 746 24<55 115 235 322.348>
VStem: 115 120<24 746>
LayerCount: 2
Fore
SplineSet
235 746 m 1
 235 24 l 1
 295 24 l 1
 295 -0 l 1
 55 -0 l 1
 55 24 l 1
 115 24 l 1
 115 746 l 1
 55 746 l 1
 55 770 l 1
 449 770 l 2
 453 770 455 767 455 763 c 0
 455 759 453 755 452 753 c 0
 431 722 417 676 417 626 c 0
 417 615 419 608 419 597 c 0
 419 590 410 591 406 594 c 0
 388 609 373 635 360 658 c 0
 345 684 329 717 318 746 c 1
 235 746 l 1
171 798 m 2
 168 798 166 800 166 803 c 0
 166 804 166 805 167 806 c 2
 276 1003 l 1
 337 1003 l 2
 339 1003 343 1000 343 996 c 1
 343 996 343 995 342 994 c 2
 201 798 l 1
 171 798 l 2
EndSplineSet
Validated: 1
Ligature2: "Cyrillic Canonical Equivalents" uni0413 uni0301
LCarets2: 1 0
Colour: ff00ff
EndChar

StartChar: uni0404
Encoding: 1028 1028 55
Width: 670
GlyphClass: 2
Flags: W
HStem: -8 25<208.935 307.102> 309 21<420.012 477 593 625.988> 473 70<358.239 442.272> 625 21<370.02 446 562.809 615.985> 756 22<263.805 379.745>
VStem: 55 121<420.575 611.624> 176 52<19.4475 185.842> 477 116<330 436.989>
DStem2: 376 215 370 191 0.959949 -0.280176<-10.2512 54.3645 176.889 228.694>
AnchorPoint: "HalfMark" 327 828.6 basechar 0
AnchorPoint: "DoubleTitlo" 670 826.4 basechar 0
AnchorPoint: "Yerok" 494 827.6 basechar 0
AnchorPoint: "Diacritic" 332 828.6 basechar 0
LayerCount: 2
Fore
SplineSet
381 625 m 1xfd
 375 625 370 628 370 635 c 0
 370 640 373 646 379 646 c 2
 445 646 l 1
 446 650 446 652 446 657 c 0
 446 715 389 756 331 756 c 0
 191 756 176 652 176 553 c 0xfd
 176 506 192 449 205 386 c 1
 253 442 341 543 436 543 c 0
 437 543 438 543 439 543 c 0
 509 543 566 485 579 437 c 0
 590 400 593 366 593 341 c 4
 593 338 593 333 593 330 c 5
 615 330 l 6
 622 330 626 326 626 320 c 4
 626 314 622 309 615 309 c 6
 430 309 l 6
 424 309 420 313 420 319 c 4
 420 325 424 330 430 330 c 6
 477 330 l 5
 477 351 476 373 471 400 c 0
 463 444 431 473 383 473 c 0
 354 473 322 456 298 437 c 0
 275 419 237 384 211 358 c 1
 227 270 228 177 228 105 c 0
 228 74 218 37 208 21 c 1
 226 18 234 17 252 17 c 0
 341 17 419 110 419 176 c 1
 370 191 l 2
 365 193 362 196 362 204 c 0
 362 211 370 216 376 215 c 1
 585 154 l 2
 590 152 593 147 593 142 c 0
 593 135 588 128 579 130 c 2
 540 141 l 1
 515 71 382 -8 251 -8 c 0
 218 -8 190 -5 165 0 c 0
 159 1 157 6 157 11 c 0
 157 18 159 25 161 28 c 0
 172 49 176 72 176 95 c 0xfb
 176 166 127 234 104 294 c 0
 74 373 55 423 55 507 c 0
 55 666 183 778 330 778 c 0
 489 778 545 714 566 646 c 1
 605 646 l 2
 611 646 616 642 616 635 c 0
 616 629 612 625 606 625 c 2
 381 625 l 1xfd
EndSplineSet
Validated: 19457
Substitution2: "'locl' Localized Forms in Cyrillic-1" uni0404.var
AlternateSubs2: "'salt' Stylistic Alternatives-1" uni0404.var
Colour: ff00
EndChar

StartChar: uni0405
Encoding: 1029 1029 56
Width: 703
GlyphClass: 2
Flags: W
HStem: -8 58<330.379 476.378> 108 47<164 197.573> 345 38<290.431 440.4> 441 36<285.674 393.011> 629 81<462.5 494.62> 723 55<281.003 387.315>
VStem: 34 138<27.1809 107.531> 110 114<533.505 671.951> 468 24<629.047 683.927> 493 32<713.472 756.526> 522 126<96.3142 271.387>
DStem2: 374 452 299 362 0.78767 0.616098<-114.524 0 46.0271 150.51>
AnchorPoint: "HalfMark" 327 828.6 basechar 0
AnchorPoint: "DoubleTitlo" 670 828.4 basechar 0
AnchorPoint: "Yerok" 494 827.6 basechar 0
AnchorPoint: "Diacritic" 308 828.4 basechar 0
LayerCount: 2
Fore
SplineSet
648 186 m 0xfda0
 648 46 552 -8 422 -8 c 0
 343 -8 260 49 217 86 c 0
 200 101 179 108 165 108 c 2
 164 108 l 1
 169 98 172 87 172 76 c 0
 172 37 137 7 102 7 c 0
 63 7 34 41 34 76 c 0
 34 92 42 113 52 123 c 1
 77 152 105 155 121 155 c 0
 165 155 210 130 234 108 c 0
 274 71 349 50 403 50 c 0
 483 50 522 98 522 183 c 0xfea0
 522 283 457 345 360 345 c 0
 290 345 229 303 198 283 c 0
 196 281 193 280 191 280 c 0
 184 280 179 286 179 293 c 0
 179 297 180 300 184 303 c 2
 374 452 l 1
 352 445 326 441 296 441 c 0
 193 441 110 496 110 604 c 0
 110 710 186 778 292 778 c 0
 357 778 425 744 456 713 c 0
 458 711 461 710 464 710 c 0
 474 710 486 714 493 728 c 0
 497 736 503 758 513 758 c 0
 519 758 525 751 525 744 c 0xfdc0
 525 742 523 740 522 738 c 0
 513 719 498 665 492 639 c 0
 490 632 485 629 479 629 c 0
 473 629 468 633 468 640 c 0
 468 649 472 659 474 669 c 1
 450 694 405 723 357 723 c 0
 321 723 289 710 266 692 c 0
 240 672 224 644 224 606 c 0
 224 541 275 477 342 477 c 0
 388 477 438 505 468 525 c 1
 487 540 l 2
 489 542 492 543 494 543 c 0
 501 543 506 537 506 530 c 0
 506 526 505 523 501 520 c 2
 299 362 l 1
 335 375 376 383 428 383 c 0
 560 383 648 326 648 186 c 0xfda0
EndSplineSet
Validated: 19457
Colour: ff00
EndChar

StartChar: uni0406
Encoding: 1030 1030 57
Width: 310
GlyphClass: 2
Flags: W
HStem: 0 24<55 95 215 255> 746 24<55 95 215 255>
VStem: 95 120<24 746>
AnchorPoint: "HalfMark" 160 829.6 basechar 0
AnchorPoint: "DoubleTitlo" 310 829.4 basechar 0
AnchorPoint: "Yerok" 150 829.6 basechar 0
AnchorPoint: "Diacritic" 158 830 basechar 0
LayerCount: 2
Fore
SplineSet
55 746 m 5
 55 770 l 5
 255 770 l 5
 255 746 l 5
 215 746 l 5
 215 24 l 5
 255 24 l 5
 255 0 l 5
 55 0 l 5
 55 24 l 5
 95 24 l 5
 95 746 l 5
 55 746 l 5
EndSplineSet
Validated: 19457
Colour: ff00
EndChar

StartChar: uni0407
Encoding: 1031 1031 58
Width: 310
GlyphClass: 2
Flags: W
HStem: 0 24<55 95 215 255> 746 24<55 95 215 255>
VStem: 2 75<944.667 968> 95 120<24 746>
AnchorPoint: "HalfMark" 155 828.6 basechar 0
AnchorPoint: "DoubleTitlo" 309.597 1018.4 basechar 0
AnchorPoint: "Yerok" 113 985 basechar 0
AnchorPoint: "Diacritic" 113 985 basechar 0
LayerCount: 2
Fore
SplineSet
95 746 m 1
 55 746 l 1
 55 770 l 1
 255 770 l 1
 255 746 l 1
 215 746 l 1
 215 24 l 1
 255 24 l 1
 255 0 l 1
 55 0 l 1
 55 24 l 1
 95 24 l 1
 95 746 l 1
195 820 m 1
 142 958 l 2
 139 964 145 968 150 968 c 2
 217 968 l 1
 259 828 l 2
 260 823 258 820 253 820 c 2
 195 820 l 1
55 820 m 1
 2 958 l 2
 1 959 2 960 2 961 c 0
 2 965 6 968 10 968 c 2
 77 968 l 1
 119 828 l 2
 120 823 118 820 113 820 c 2
 55 820 l 1
EndSplineSet
Validated: 19457
Ligature2: "Cyrillic Canonical Equivalents" uni0406 uni0308
LCarets2: 1 0
Colour: ff00
EndChar

StartChar: uni0408
Encoding: 1032 1032 59
Width: 477
GlyphClass: 2
Flags: W
HStem: -7 47<177.536 250.717> 746 24<208 262 381 434>
VStem: 20 124<85.4907 169> 262 119<77.3799 746>
AnchorPoint: "HalfMark" 327 828.6 basechar 0
AnchorPoint: "DoubleTitlo" 477 826.4 basechar 0
AnchorPoint: "Yerok" 300 827.6 basechar 0
AnchorPoint: "Diacritic" 323 828.7 basechar 0
LayerCount: 2
Fore
SplineSet
166 78 m 0
 186 44 210 40 223 40 c 0
 235 40 244 45 249 54 c 0
 258 68 262 93 262 130 c 2
 262 746 l 1
 208 746 l 1
 208 770 l 1
 434 770 l 1
 434 746 l 1
 381 746 l 1
 381 170 l 2
 381 94 342 24 285 4 c 0
 258 -5 236 -7 208 -7 c 0
 188 -7 168 -6 144 0 c 0
 86 15 20 86 20 155 c 0
 20 162 25 169 36 169 c 0
 72 169 108 169 144 169 c 1
 144 133 151 103 166 78 c 0
EndSplineSet
Validated: 19457
Colour: ff00ff
EndChar

StartChar: uni0409
Encoding: 1033 1033 60
Width: 847
GlyphClass: 2
Flags: W
HStem: -1 24<13 76 211.441 267 343 403 523 671 791 831> 745 24<343 403 523 583>
VStem: 65 133<24.5016 174.489> 403 120<23 420 435.979 538 557.119 745> 671 120<23 350.155>
LayerCount: 2
Fore
SplineSet
571 391 m 1
 546 406 l 2
 538 410 530 415 523 420 c 1
 523 23 l 1
 671 23 l 1
 671 339 l 1
 638 356 604 374 571 391 c 1
76 24 m 1
 72 34 65 62 65 78 c 0
 65 112 72 144 87 175 c 0
 130 269 216 343 288 411 c 1
 343 466 387 542 403 636 c 1
 403 745 l 1
 343 745 l 1
 343 769 l 1
 583 769 l 1
 583 745 l 1
 523 745 l 1
 523 451 l 1
 562 421 610 396 659 377 c 0
 676 371 713 364 731 362 c 0
 753 359 757 359 782 358 c 0
 788 358 791 355 791 348 c 2
 791 23 l 1
 831 23 l 1
 831 -1 l 1
 343 -1 l 1
 343 23 l 1
 403 23 l 1
 403 538 l 1
 389 502 373 468 351 437 c 2
 316 389 l 1
 284 342 259 295 233 240 c 0
 209 188 198 145 198 76 c 0
 198 54 209 35 220 24 c 1
 267 24 l 1
 267 -1 l 1
 13 -1 l 1
 13 24 l 1
 76 24 l 1
EndSplineSet
Validated: 19457
Colour: ff00ff
EndChar

StartChar: uni040A
Encoding: 1034 1034 61
Width: 877
GlyphClass: 2
Flags: W
HStem: 0 24<41 101 221 281 360 420 540 688 808 848> 744 24<41 101 221 281 360 420 540 600>
VStem: 101 120<22 394 419 744> 420 120<24 345 370 421 436.979 744> 688 120<24 351.155>
DStem2: 221 419 221 394 0.970997 -0.23909<5.97725 204.944>
LayerCount: 2
Fore
SplineSet
588 392 m 1
 562 407 l 2
 555 411 547 416 540 421 c 1
 540 24 l 1
 688 24 l 1
 688 340 l 1
 655 357 621 375 588 392 c 1
600 770 m 1
 600 744 l 1
 540 744 l 1
 540 452 l 1
 579 422 627 397 676 378 c 1
 686 377 701 371 709 370 c 0
 741 366 769 359 799 359 c 0
 805 359 808 356 808 349 c 2
 808 24 l 1
 848 24 l 1
 848 0 l 1
 360 0 l 1
 360 24 l 1
 420 24 l 1
 420 345 l 1
 221 394 l 1
 221 22 l 1
 281 22 l 1
 281 0 l 1
 41 0 l 1
 41 22 l 1
 101 22 l 1
 101 744 l 1
 41 744 l 1
 41 768 l 1
 281 768 l 1
 281 744 l 1
 221 744 l 1
 221 419 l 1
 420 370 l 1
 420 744 l 1
 360 744 l 1
 360 770 l 1
 600 770 l 1
EndSplineSet
Validated: 19457
Colour: ff00ff
EndChar

StartChar: uni040B
Encoding: 1035 1035 62
Width: 828
GlyphClass: 2
Flags: W
HStem: 0 30<204 264 384 437 543 609.856 743 799> 441 30<384 486.75> 751 25<11 51 166 264 384 499.915>
VStem: 51 115<532 751> 264 120<24 441 471 751> 565 27<616.006 668.071> 619 127<31.3688 293.252>
LayerCount: 2
Fore
SplineSet
606 30 m 1
 615 59 619 101 619 140 c 0
 619 239 600 313 558 378 c 1
 524 424 460 441 384 441 c 1
 384 24 l 1
 437 24 l 1
 437 0 l 1
 204 0 l 1
 204 24 l 1
 264 24 l 1
 264 751 l 1
 166 751 l 1
 166 532 l 1
 51 532 l 1
 51 751 l 1
 11 751 l 1
 11 776 l 1
 646 776 l 2
 652 776 655 771 655 765 c 0
 655 759 652 753 648 751 c 0
 612 729 599 673 592 623 c 0
 591 618 585 616 579 616 c 0
 573 616 566 618 565 623 c 0
 559 668 531 713 502 737 c 0
 492 746 464 751 420 751 c 2
 384 751 l 1
 384 471 l 1
 427 471 468 465 507 459 c 1
 565 445 l 1
 611 428 650 406 681 374 c 1
 723 326 746 263 746 180 c 2
 746 158 l 2
 746 116 743 61 743 30 c 1
 799 30 l 1
 799 0 l 1
 543 0 l 1
 543 30 l 1
 606 30 l 1
EndSplineSet
Validated: 1
Colour: ff00ff
EndChar

StartChar: uni040C
Encoding: 1036 1036 63
Width: 648
GlyphClass: 2
Flags: W
HStem: 0 24<55 115 235 295 398 455.988 582 630> 390 24<235 328.513> 746 24<55 115 235 295 378 438.058 558 609>
VStem: 115 120<24 390 414 746> 446 115<523.969 744.812> 454 128<24 146.938> 469 117<25.7395 289.82>
LayerCount: 2
Fore
SplineSet
454 24 m 1xf4
 461 61 469 105 469 149 c 0xf2
 469 219 459 294 428 333 c 0
 404 362 380 385 345 399 c 1
 310 394 274 390 235 390 c 1
 235 24 l 1
 295 24 l 1
 295 0 l 1
 55 0 l 1
 55 24 l 1
 115 24 l 1
 115 746 l 1
 55 746 l 1
 55 770 l 1
 295 770 l 1
 295 746 l 1
 235 746 l 1
 235 414 l 1
 299 414 362 426 391 465 c 0
 429 516 446 575 446 657 c 0
 446 689 442 723 435 746 c 1
 378 746 l 1
 378 770 l 1
 609 770 l 1
 609 746 l 1
 558 746 l 1
 561 721 561 674 561 639 c 2
 561 625 l 2xf8
 561 505 494 440 399 411 c 1
 482 398 537 360 564 291 c 0
 577 257 586 222 586 180 c 0
 586 170 586 147 586 130 c 2xf2
 585 91 l 2
 584 68 582 41 582 24 c 1
 630 24 l 1
 630 0 l 1
 398 0 l 1
 398 24 l 1
 454 24 l 1xf4
301 798 m 2
 298 798 296 800 296 803 c 0
 296 804 296 805 297 806 c 2
 406 1003 l 1
 469 1003 l 2
 471 1003 473 1000 473 997 c 0
 473 996 473 995 472 994 c 2
 331 798 l 1
 301 798 l 2
EndSplineSet
Validated: 1
Ligature2: "Cyrillic Canonical Equivalents" uni041A uni0301
LCarets2: 1 0
Colour: ff00ff
EndChar

StartChar: uni040D
Encoding: 1037 1037 64
Width: 670
GlyphClass: 2
Flags: W
HStem: 0 24<55 115 235 295 375 435 555 615> 746 24<55 115 235 295 375 435 555 615>
VStem: 115 120<24 371 398 746> 435 120<24 468 495 746>
DStem2: 235 398 235 371 0.899761 0.436384<0 210.499>
LayerCount: 2
Fore
SplineSet
55 0 m 1
 55 24 l 1
 115 24 l 1
 115 746 l 1
 55 746 l 1
 55 770 l 1
 295 770 l 1
 295 746 l 1
 235 746 l 1
 235 398 l 1
 435 495 l 1
 435 746 l 1
 375 746 l 1
 375 770 l 1
 615 770 l 1
 615 746 l 1
 555 746 l 1
 555 24 l 1
 615 24 l 1
 615 0 l 1
 375 0 l 1
 375 24 l 1
 435 24 l 1
 435 468 l 1
 235 371 l 1
 235 24 l 1
 295 24 l 1
 295 0 l 1
 55 0 l 1
337 844 m 2
 338 843 338 842 338 841 c 0
 338 838 332 835 330 835 c 2
 299 835 l 1
 120 1032 l 2
 118 1034 118 1035 118 1037 c 0
 118 1043 126 1048 131 1048 c 2
 195 1048 l 1
 337 844 l 2
EndSplineSet
Validated: 1
Ligature2: "Cyrillic Canonical Equivalents" uni0418 uni0300
LCarets2: 1 0
Colour: ff00ff
EndChar

StartChar: uni040F
Encoding: 1039 1039 66
Width: 702
GlyphClass: 2
Flags: W
HStem: 0 24<27 87 207 277 397 467 587 647> 746 24<27 87 207 267 407 467 587 647>
VStem: 87 120<24 746> 277 120<-145.875 0> 467 120<24 746>
CounterMasks: 1 38
LayerCount: 2
Fore
SplineSet
337 -330 m 4
 326 -330 320 -324 317 -315 c 4
 307 -278 271 -251 239 -234 c 4
 226 -227 214 -223 202 -220 c 4
 194 -219 188 -211 188 -202 c 4
 188 -193 194 -186 202 -184 c 4
 246 -171 277 -131 277 -77 c 6
 277 0 l 5
 27 0 l 1
 27 24 l 1
 87 24 l 1
 87 746 l 1
 27 746 l 1
 27 770 l 1
 267 770 l 1
 267 746 l 1
 207 746 l 1
 207 24 l 1
 467 24 l 1
 467 746 l 1
 407 746 l 1
 407 770 l 1
 647 770 l 1
 647 746 l 1
 587 746 l 1
 587 24 l 1
 647 24 l 1
 647 0 l 1
 397 0 l 5
 397 -77 l 6
 397 -131 428 -171 472 -184 c 4
 480 -186 485 -193 485 -202 c 4
 485 -211 480 -219 472 -220 c 4
 431 -229 394 -256 373 -286 c 4
 365 -296 360 -306 357 -315 c 4
 354 -324 348 -330 337 -330 c 4
EndSplineSet
Validated: 1
Colour: ff00ff
EndChar

StartChar: uni0410
Encoding: 1040 1040 67
Width: 568
GlyphClass: 2
Flags: W
HStem: 0 24<19 72.2562 189.828 249 306 366 486 546> 292 44<174.688 243.269> 564 111<161.771 211.636> 680 24<245.02 297.255> 746 24<306 366 486 546>
VStem: 58 162<170.777 273.055> 84 89<338.212 410.597> 116 27<83.4503 146> 147 126<579.63 674.273> 356 130<452.109 585.438> 366 120<24 461 623 746>
AnchorPoint: "HalfMark" 327 829.6 basechar 0
AnchorPoint: "DoubleTitlo" 568.5 830.4 basechar 0
AnchorPoint: "Yerok" 400 827.6 basechar 0
AnchorPoint: "Diacritic" 426 830 basechar 0
LayerCount: 2
Fore
SplineSet
58 222 m 4xfc
 58 265 89 297 128 297 c 5
 100 308 84 334 84 361 c 4xfa
 84 440 162 475 248 522 c 4
 300 550 333 593 333 629 c 6
 333 631 l 5
 316 659 290 680 257 680 c 4
 252 680 248 680 244 680 c 5
 260 669 273 650 273 627 c 4
 273 593 246 564 209 564 c 4
 176 564 147 590 147 625 c 4xf880
 147 643 155 662 169 675 c 4
 170 675 170 675 171 676 c 4
 193 693 225 704 257 704 c 4
 313 704 348 667 366 623 c 5
 366 746 l 5
 306 746 l 5
 306 770 l 5
 546 770 l 5
 546 746 l 5
 486 746 l 5
 486 24 l 5
 546 24 l 5
 546 0 l 5
 306 0 l 5
 306 24 l 5
 366 24 l 5
 366 461 l 5
 358 438 345 415 328 391 c 4
 287 333 224 292 169 292 c 5
 200 281 220 254 220 222 c 4xfc20
 220 218 219 215 219 211 c 4
 213 172 181 146 143 146 c 5
 143 134 l 6
 143 93 182 24 215 24 c 6
 249 24 l 5
 249 0 l 5
 19 0 l 5
 19 24 l 5
 47 24 l 6
 85 24 116 99 116 138 c 6
 116 149 l 5xf9
 82 159 58 187 58 222 c 4xfc
356 553 m 4xfa40
 356 563 354 574 351 586 c 5
 337 535 285 491 235 450 c 4
 204 425 173 391 173 370 c 4
 173 344 190 336 208 336 c 4
 225 336 236 340 251 351 c 4
 271 365 292 384 306 404 c 4
 342 455 356 497 356 553 c 4xfa40
EndSplineSet
Validated: 19457
Colour: ff00
EndChar

StartChar: uni0411
Encoding: 1041 1041 68
Width: 628
GlyphClass: 2
Flags: W
HStem: 0 24<55 115 235 413 533 573> 594 21G<414 419.5> 746 24<55 115 235 343.929>
VStem: 115 120<24 473 486.854 746> 405 22<594.057 647.564> 413 120<24 380.417>
AnchorPoint: "HalfMark" 327 829.6 basechar 0
AnchorPoint: "DoubleTitlo" 628.5 830.4 basechar 0
AnchorPoint: "Yerok" 400 827.6 basechar 0
AnchorPoint: "Diacritic" 314 830 basechar 0
LayerCount: 2
Fore
SplineSet
235 746 m 1xf8
 235 504 l 1
 276 468 345 427 401 406 c 0
 427 396 488 387 524 387 c 0
 529 387 533 382 533 377 c 2
 533 24 l 1xf4
 573 24 l 1
 573 0 l 1
 55 0 l 1
 55 24 l 1
 115 24 l 1
 115 746 l 1
 55 746 l 1
 55 770 l 1
 488 770 l 2
 502 770 495 756 490 751 c 0
 455 720 434 657 427 604 c 0
 426 599 422 594 417 594 c 0
 411 594 406 599 405 604 c 0
 402 631 388 671 370 702 c 0
 354 727 336 746 318 746 c 2
 235 746 l 1xf8
313 421 m 1
 282 439 258 454 235 473 c 1
 235 24 l 1
 413 24 l 1
 413 369 l 1
 391 381 347 403 313 421 c 1
EndSplineSet
Validated: 19457
Colour: ff00
EndChar

StartChar: uni0412
Encoding: 1042 1042 69
Width: 610
GlyphClass: 2
Flags: W
HStem: 0 24<55 115 235 410 520 555> 249 25<520 555> 541 39<333.696 457.5> 568 20G<331 342.5> 758 20<298.26 384.286>
VStem: 115 120<24 382 422 684.65> 410 110<24 249> 439 93<592.455 708.101>
DStem2: 235 422 252 401 0.475403 0.879768<0 175.709>
AnchorPoint: "HalfMark" 327 829.6 basechar 0
AnchorPoint: "DoubleTitlo" 609.5 830.4 basechar 0
AnchorPoint: "Yerok" 400 827.6 basechar 0
AnchorPoint: "Diacritic" 336 830 basechar 0
LayerCount: 2
Fore
SplineSet
532 646 m 0xed
 532 589 486 541 429 541 c 0
 400 541 373 554 339 562 c 1
 252 401 l 1
 292 361 352 321 410 296 c 0
 423 290 470 274 515 274 c 0
 529 274 555 273 555 273 c 1
 555 249 l 1
 520 249 l 1
 520 24 l 1xee
 555 24 l 1
 555 0 l 1
 55 0 l 1
 55 24 l 1
 115 24 l 1
 115 609 l 2
 115 655 132 686 157 711 c 0
 188 741 265 778 334 778 c 0
 428 778 532 737 532 646 c 0xed
334 307 m 0
 292 332 265 354 235 382 c 1
 235 24 l 1
 410 24 l 1
 410 264 l 1
 385 275 361 290 334 307 c 0
322 583 m 2
 324 587 329 588 333 588 c 2
 335 588 l 1xdd
 350 585 366 580 381 580 c 0
 418 580 439 608 439 643 c 2
 439 667 l 2xed
 439 724 393 758 338 758 c 0
 271 758 235 690 235 625 c 2
 235 422 l 1
 322 583 l 2
EndSplineSet
Validated: 19457
Colour: ff00
EndChar

StartChar: uni0413
Encoding: 1043 1043 70
Width: 455
GlyphClass: 2
Flags: W
HStem: 0 24<55 115 235 295> 746 24<55 115 235 322.306>
VStem: 115 120<24 746>
AnchorPoint: "HalfMark" 238 829.6 basechar 0
AnchorPoint: "DoubleTitlo" 453.5 829.4 basechar 0
AnchorPoint: "Yerok" 325 829.6 basechar 0
AnchorPoint: "Diacritic" 178 830 basechar 0
LayerCount: 2
Fore
SplineSet
318 746 m 5
 235 746 l 5
 235 24 l 5
 295 24 l 5
 295 0 l 5
 55 0 l 5
 55 24 l 5
 115 24 l 5
 115 746 l 5
 55 746 l 5
 55 770 l 5
 449 770 l 6
 453 770 455 766 455 762 c 4
 455 759 454 756 452 753 c 4
 430 720 417 673 417 626 c 4
 417 616 419 607 419 597 c 4
 419 592 411 590 406 594 c 4
 378 617 340 691 318 746 c 5
EndSplineSet
Validated: 19457
Colour: ff00
EndChar

StartChar: uni0414
Encoding: 1044 1044 71
Width: 652
GlyphClass: 2
Flags: W
HStem: 0 24<220.58 421> 519 132<279.35 377.87> 746 24<361 421 541 601>
VStem: 101 108<25.2289 225.941> 262 132<535.92 600.626> 404 137<506.833 600.391> 421 120<24 522 603 746>
AnchorPoint: "HalfMark" 328 828.6 basechar 0
AnchorPoint: "DoubleTitlo" 651.5 829.4 basechar 0
AnchorPoint: "Yerok" 500 829.6 basechar 0
AnchorPoint: "Diacritic" 484 829.3 basechar 0
LayerCount: 2
Fore
SplineSet
329 651 m 6xfc
 335 651 l 6
 370 651 405 633 421 603 c 5
 421 746 l 5
 361 746 l 5
 361 770 l 5
 601 770 l 5
 601 746 l 5
 541 746 l 5
 541 24 l 5xfa
 622 24 l 6
 630 24 632 17 632 10 c 4
 632 6 631 2 630 0 c 4
 621 -19 608 -44 596 -71 c 4
 585 -97 575 -125 569 -148 c 4
 568 -151 566 -153 564 -153 c 4
 561 -153 558 -151 556 -148 c 4
 535 -113 503 -44 484 0 c 5
 166 0 l 5
 147 -44 115 -113 94 -148 c 4
 92 -151 89 -153 86 -153 c 4
 84 -153 82 -151 81 -148 c 4
 68 -102 39 -39 20 0 c 4
 19 2 18 6 18 10 c 4
 18 17 20 24 28 24 c 6
 111 24 l 5
 104 49 101 91 101 124 c 4
 101 195 129 252 170 301 c 4
 215 355 275 400 329 446 c 4
 370 481 404 528 404 566 c 4
 404 576 402 588 392 601 c 5
 394 593 394 586 394 578 c 4
 394 544 362 519 329 519 c 4
 327 519 325 519 323 519 c 4
 289 519 262 551 262 585 c 4
 262 586 262 588 262 590 c 4
 262 624 295 651 329 651 c 6xfc
421 24 m 5
 421 522 l 5
 406 486 375 459 346 418 c 4
 310 367 276 320 251 273 c 4
 225 225 209 177 209 127 c 4
 209 89 212 51 225 24 c 5
 421 24 l 5
EndSplineSet
Validated: 19457
Colour: ff00
EndChar

StartChar: uni0415
Encoding: 1045 1045 72
Width: 670
GlyphClass: 2
Flags: W
HStem: -8 25<208.935 307.102> 309 21<420.012 477 593 625.988> 473 70<358.239 442.272> 625 21<370.02 446 562.809 615.985> 756 22<263.805 379.745>
VStem: 55 121<420.575 611.624> 176 52<19.4475 185.842> 477 116<330 436.989>
DStem2: 376 215 370 191 0.959949 -0.280176<-10.2512 54.3645 176.889 228.694>
AnchorPoint: "HalfMark" 327 828.6 basechar 0
AnchorPoint: "DoubleTitlo" 670 827.4 basechar 0
AnchorPoint: "Yerok" 500 827.6 basechar 0
AnchorPoint: "Diacritic" 334 828.6 basechar 0
LayerCount: 2
Fore
SplineSet
381 625 m 1xfd
 375 625 370 628 370 635 c 0
 370 640 373 646 379 646 c 2
 445 646 l 1
 446 650 446 652 446 657 c 0
 446 715 389 756 331 756 c 0
 191 756 176 652 176 553 c 0xfd
 176 506 192 449 205 386 c 1
 253 442 341 543 436 543 c 0
 437 543 438 543 439 543 c 0
 509 543 566 485 579 437 c 0
 590 400 593 366 593 341 c 0
 593 338 593 333 593 330 c 1
 615 330 l 2
 622 330 626 326 626 320 c 0
 626 314 622 309 615 309 c 2
 430 309 l 2
 424 309 420 313 420 319 c 0
 420 325 424 330 430 330 c 2
 477 330 l 1
 477 351 476 373 471 400 c 0
 463 444 431 473 383 473 c 0
 354 473 322 456 298 437 c 0
 275 419 237 384 211 358 c 1
 227 270 228 177 228 105 c 0
 228 74 218 37 208 21 c 1
 226 18 234 17 252 17 c 0
 341 17 419 110 419 176 c 1
 370 191 l 2
 365 193 362 196 362 204 c 0
 362 211 370 216 376 215 c 1
 585 154 l 2
 590 152 593 147 593 142 c 0
 593 135 588 128 579 130 c 2
 540 141 l 1
 515 71 382 -8 251 -8 c 0
 218 -8 190 -5 165 0 c 0
 159 1 157 6 157 11 c 0
 157 18 159 25 161 28 c 0
 172 49 176 72 176 95 c 0xfb
 176 166 127 234 104 294 c 0
 74 373 55 423 55 507 c 0
 55 666 183 778 330 778 c 0
 489 778 545 714 566 646 c 1
 605 646 l 2
 611 646 616 642 616 635 c 0
 616 629 612 625 606 625 c 2
 381 625 l 1xfd
EndSplineSet
Validated: 19457
Colour: ff00
EndChar

StartChar: uni0416
Encoding: 1046 1046 73
Width: 960
GlyphClass: 2
Flags: W
HStem: 0 24<50 93 229 290 360 420 540 600 670 731 867 910> 656 122<138.93 243.199 716.801 821.07> 746 24<360 420 540 600>
VStem: 93 136<24 158> 420 120<24 426 465 746> 731 136<24 158>
CounterMasks: 1 1c
AnchorPoint: "HalfMark" 486 828.6 basechar 0
AnchorPoint: "DoubleTitlo" 960.5 827.4 basechar 0
AnchorPoint: "Yerok" 725 827.6 basechar 0
AnchorPoint: "Diacritic" 486 828.5 basechar 0
LayerCount: 2
Fore
SplineSet
600 0 m 1xdc
 360 0 l 1
 360 24 l 1
 420 24 l 1
 420 426 l 1
 349 404 299 317 268 246 c 0
 234 170 229 78 229 24 c 1
 290 24 l 1
 290 0 l 1
 50 0 l 1
 50 24 l 1
 93 24 l 1
 93 27 93 29 93 32 c 0
 93 107 120 206 181 293 c 0
 237 373 318 432 393 449 c 1
 371 471 349 505 331 540 c 0
 310 579 289 618 271 636 c 0
 257 650 238 656 215 656 c 0
 192 656 171 653 150 642 c 0
 143 638 137 641 138 649 c 0
 138 656 139 662 139 669 c 0
 139 713 128 742 98 759 c 0
 93 762 91 777 99 778 c 0
 107 779 115 779 125 779 c 0
 138 779 154 778 177 778 c 0xdc
 247 778 285 720 309 672 c 0
 327 635 336 601 359 553 c 0
 377 515 396 488 420 465 c 1
 420 746 l 1
 360 746 l 1
 360 770 l 1
 600 770 l 1
 600 746 l 1
 540 746 l 1xbc
 540 465 l 1
 563 488 582 515 601 553 c 0
 624 601 633 635 651 672 c 0
 675 720 713 778 783 778 c 0
 806 778 822 779 835 779 c 0
 845 779 853 779 861 778 c 0
 869 777 867 762 862 759 c 0
 833 743 821 712 821 669 c 0
 821 662 822 656 822 649 c 0
 823 641 817 638 810 642 c 0
 789 653 768 656 745 656 c 0
 722 656 703 650 689 636 c 0
 671 618 650 579 629 540 c 0
 610 505 588 471 566 449 c 1
 641 432 722 373 779 293 c 0
 840 206 867 107 867 32 c 0
 867 29 867 27 867 24 c 1
 910 24 l 1
 910 0 l 1
 670 0 l 1
 670 24 l 1
 731 24 l 1
 731 78 726 170 692 246 c 0
 660 317 610 404 540 426 c 1
 540 24 l 1
 600 24 l 1
 600 0 l 1xdc
EndSplineSet
Validated: 19457
Colour: ff00
EndChar

StartChar: uni0417
Encoding: 1047 1047 74
Width: 733
GlyphClass: 2
Flags: W
HStem: -14 150<51.2582 138.273> -8 32<332.309 455.48> 740 38<304.753 429.349> 766 20G<166 170>
VStem: 29 132<7.625 77.8103> 159 17<747.042 785.987> 520 128<489.665 657.603> 553 130<120.588 293.218>
AnchorPoint: "HalfMark" 411 829.6 basechar 0
AnchorPoint: "DoubleTitlo" 731.5 827.4 basechar 0
AnchorPoint: "Yerok" 550 828.6 basechar 0
AnchorPoint: "Diacritic" 412 830 basechar 0
LayerCount: 2
Fore
SplineSet
161 63 m 0x68
 161 18 127 -14 91 -14 c 0
 88 -14 86 -14 83 -14 c 0
 48 -14 29 23 29 57 c 0
 29 103 60 136 104 136 c 0
 106 136 109 136 112 136 c 0x88
 159 136 204 100 254 69 c 0
 286 49 340 24 393 24 c 0
 484 24 553 117 553 206 c 0x49
 553 293 522 368 458 383 c 1
 450 386 444 383 439 381 c 0
 392 362 351 329 318 301 c 0
 314 298 308 298 304 301 c 0
 276 326 234 362 207 391 c 0
 202 396 203 402 208 406 c 0
 235 431 270 458 304 488 c 0
 308 491 313 491 317 488 c 0
 359 459 396 432 443 417 c 1
 501 444 520 500 520 580 c 0
 520 672 442 740 348 740 c 0x62
 261 740 197 656 171 596 c 0
 168 590 156 588 155 596 c 0
 153 605 152 632 152 663 c 0
 152 707 154 760 159 782 c 0
 160 784 164 786 168 786 c 0x16
 172 786 176 784 176 782 c 0
 179 759 191 719 207 705 c 1
 244 736 319 778 406 778 c 0
 530 778 648 703 648 578 c 0
 648 481 589 430 520 401 c 1x26
 603 376 683 315 683 203 c 0
 683 62 577 -8 442 -8 c 0
 360 -8 308 13 260 38 c 0
 224 57 187 73 159 78 c 1x65
 160 74 161 67 161 63 c 0x68
EndSplineSet
Validated: 19457
Colour: ff00
EndChar

StartChar: uni0418
Encoding: 1048 1048 75
Width: 670
GlyphClass: 2
Flags: W
HStem: 0 24<55 115 235 295 375 435 555 615> 746 24<55 115 235 295 375 435 555 615>
VStem: 115 120<24 371 398 746> 435 120<24 468 495 746>
DStem2: 235 398 235 371 0.899761 0.436384<0 210.499>
AnchorPoint: "HalfMark" 337 829.6 basechar 0
AnchorPoint: "DoubleTitlo" 670.5 830.4 basechar 0
AnchorPoint: "Yerok" 475 827.6 basechar 0
AnchorPoint: "Diacritic" 336 830 basechar 0
LayerCount: 2
Fore
SplineSet
55 0 m 1
 55 24 l 1
 115 24 l 1
 115 746 l 1
 55 746 l 1
 55 770 l 1
 295 770 l 1
 295 746 l 1
 235 746 l 1
 235 398 l 1
 435 495 l 1
 435 746 l 1
 375 746 l 1
 375 770 l 1
 615 770 l 1
 615 746 l 1
 555 746 l 1
 555 24 l 1
 615 24 l 1
 615 0 l 1
 375 0 l 1
 375 24 l 1
 435 24 l 1
 435 468 l 1
 235 371 l 1
 235 24 l 1
 295 24 l 1
 295 0 l 1
 55 0 l 1
EndSplineSet
Validated: 19457
Colour: ff00
EndChar

StartChar: uni0419
Encoding: 1049 1049 76
Width: 670
GlyphClass: 2
Flags: W
HStem: 0 24<55 115 235 295 375 435 555 615> 746 24<55 115 235 295 375 435 555 615> 807 47<295.209 401.218>
VStem: 115 120<24 371 398 746> 435 120<24 468 495 746> 438 28<898.021 915.25>
DStem2: 235 398 235 371 0.899761 0.436384<0 210.499>
AnchorPoint: "HalfMark" 342 828.6 basechar 0
AnchorPoint: "DoubleTitlo" 669.5 984.4 basechar 0
AnchorPoint: "Yerok" 300 925 basechar 0
AnchorPoint: "Diacritic" 344 922 basechar 0
LayerCount: 2
Fore
SplineSet
259 920 m 1xf4
 271 890 312 854 347 854 c 0
 348 854 349 854 350 854 c 0
 387 854 429 893 438 922 c 1
 466 913 l 1
 454 869 400 807 342 807 c 0
 339 807 337 807 335 807 c 0
 291 807 250 858 231 905 c 1
 259 920 l 1xf4
295 0 m 1
 55 0 l 1
 55 24 l 1
 115 24 l 1
 115 746 l 1
 55 746 l 1
 55 770 l 1
 295 770 l 1
 295 746 l 1
 235 746 l 1
 235 398 l 1
 435 495 l 1
 435 746 l 1
 375 746 l 1
 375 770 l 1
 615 770 l 1
 615 746 l 1
 555 746 l 1
 555 24 l 1
 615 24 l 1
 615 0 l 1
 375 0 l 1
 375 24 l 1
 435 24 l 1
 435 468 l 1xf8
 235 371 l 1
 235 24 l 1
 295 24 l 1
 295 0 l 1
EndSplineSet
Validated: 19457
Ligature2: "Cyrillic Canonical Equivalents" uni0418 uni0306
LCarets2: 1 0
Colour: ff00
EndChar

StartChar: uni041A
Encoding: 1050 1050 77
Width: 685
GlyphClass: 2
Flags: W
HStem: 0 24<55 115 235 295 398 456.08 582 630> 390 24<235 327.433> 746 24<55 115 235 295 378 437.985 558 609>
VStem: 115 120<24 390 414 746> 446 115<524.683 745.006> 469 117<24.8902 290.582>
AnchorPoint: "HalfMark" 341 829.6 basechar 0
AnchorPoint: "DoubleTitlo" 683.5 830.4 basechar 0
AnchorPoint: "Yerok" 480 830.6 basechar 0
AnchorPoint: "Diacritic" 341 830 basechar 0
LayerCount: 2
Fore
SplineSet
295 0 m 5xf4
 55 0 l 5
 55 24 l 5
 115 24 l 5
 115 746 l 5
 55 746 l 5
 55 770 l 5
 295 770 l 5
 295 746 l 5
 235 746 l 5
 235 414 l 5
 284 414 359 422 391 465 c 4
 435 523 446 590 446 657 c 4
 446 691 441 725 435 746 c 5
 378 746 l 5
 378 770 l 5
 609 770 l 5
 609 746 l 5
 558 746 l 5
 558 722 561 669 561 625 c 4xf8
 561 568 546 512 502 468 c 4
 474 441 439 423 399 411 c 5
 449 402 505 385 540 335 c 4
 580 278 586 207 586 180 c 4
 586 139 582 34 582 24 c 5
 630 24 l 5
 630 0 l 5
 398 0 l 5
 398 24 l 5
 454 24 l 5
 459 50 469 109 469 149 c 4
 469 221 458 295 428 333 c 5
 401 365 375 387 345 399 c 5
 310 394 273 390 235 390 c 5
 235 24 l 5
 295 24 l 5
 295 0 l 5xf4
EndSplineSet
Validated: 19457
Colour: ff00
EndChar

StartChar: uni041B
Encoding: 1051 1051 78
Width: 665
GlyphClass: 2
Flags: W
HStem: 0 24<40 103 237.491 294 370 430 550 610> 746 24<370 430 550 610>
VStem: 92 133<24.409 174.114> 430 120<24 538 558.606 746>
AnchorPoint: "HalfMark" 368 829.6 basechar 0
AnchorPoint: "DoubleTitlo" 663.5 830.4 basechar 0
AnchorPoint: "Yerok" 500 829.6 basechar 0
AnchorPoint: "Diacritic" 495 830 basechar 0
LayerCount: 2
Fore
SplineSet
247 24 m 1
 294 24 l 1
 294 0 l 1
 40 0 l 1
 40 24 l 1
 103 24 l 1
 101 31 92 57 92 78 c 0
 92 145 123 206 173 268 c 0
 240 350 306 391 354 457 c 0
 390 506 418 566 430 636 c 1
 430 746 l 1
 370 746 l 1
 370 770 l 1
 610 770 l 1
 610 746 l 1
 550 746 l 1
 550 24 l 1
 610 24 l 1
 610 0 l 1
 370 0 l 1
 370 24 l 1
 430 24 l 1
 430 538 l 1
 418 506 402 471 378 437 c 0
 328 366 297 319 260 240 c 0
 233 183 225 134 225 76 c 0
 225 54 236 34 247 24 c 1
EndSplineSet
Validated: 19457
Colour: ff00
EndChar

StartChar: uni041C
Encoding: 1052 1052 79
Width: 912
GlyphClass: 2
Flags: W
HStem: 0 24<40 96 234.088 287 311 371 491 551 617 677 797 857> 746 24<311 371 491 551 617 677 797 857>
VStem: 80 124<47.7368 214.685> 371 120<24 119 182 530 550.929 746> 677 120<24 546 609 746>
DStem2: 491 182 491 119 0.399354 0.916797<0 407.994>
AnchorPoint: "HalfMark" 536 828.6 basechar 0
AnchorPoint: "DoubleTitlo" 912 832.4 basechar 0
AnchorPoint: "Yerok" 700 829.6 basechar 0
AnchorPoint: "Diacritic" 582 830 basechar 0
LayerCount: 2
Fore
SplineSet
551 0 m 5
 311 0 l 5
 311 24 l 5
 371 24 l 5
 371 530 l 5
 351 474 322 421 290 365 c 4
 248 291 204 201 204 128 c 4
 204 80 228 32 249 24 c 5
 287 24 l 5
 287 0 l 5
 40 0 l 5
 40 24 l 5
 96 24 l 5
 88 35 80 67 80 101 c 4
 80 204 123 274 200 365 c 4
 249 422 290 450 328 509 c 4
 355 552 364 593 371 639 c 5
 371 746 l 5
 311 746 l 5
 311 770 l 5
 551 770 l 5
 551 746 l 5
 491 746 l 5
 491 182 l 5
 677 609 l 5
 677 746 l 5
 617 746 l 5
 617 770 l 5
 857 770 l 5
 857 746 l 5
 797 746 l 5
 797 24 l 5
 857 24 l 5
 857 0 l 5
 617 0 l 5
 617 24 l 5
 677 24 l 5
 677 546 l 5
 491 119 l 5
 491 24 l 5
 551 24 l 5
 551 0 l 5
EndSplineSet
Validated: 19457
Colour: ff00
EndChar

StartChar: uni041D
Encoding: 1053 1053 80
Width: 669
GlyphClass: 2
Flags: W
HStem: 0 24<55 115 235 295 374 434 554 614> 746 24<55 115 235 295 374 434 554 614>
VStem: 115 120<24 396 421 746> 434 120<24 347 372 746>
DStem2: 235 421 235 396 0.970997 -0.23909<5.97725 204.944>
AnchorPoint: "HalfMark" 339 829.6 basechar 0
AnchorPoint: "DoubleTitlo" 667.5 830.4 basechar 0
AnchorPoint: "Yerok" 475 827.6 basechar 0
AnchorPoint: "Diacritic" 341 830 basechar 0
LayerCount: 2
Fore
SplineSet
55 0 m 1
 55 24 l 1
 115 24 l 1
 115 746 l 1
 55 746 l 1
 55 770 l 1
 295 770 l 1
 295 746 l 1
 235 746 l 1
 235 421 l 1
 434 372 l 1
 434 746 l 1
 374 746 l 1
 374 770 l 1
 614 770 l 1
 614 746 l 1
 554 746 l 1
 554 24 l 1
 614 24 l 1
 614 0 l 1
 374 0 l 1
 374 24 l 1
 434 24 l 1
 434 347 l 1
 235 396 l 1
 235 24 l 1
 295 24 l 1
 295 0 l 1
 55 0 l 1
EndSplineSet
Validated: 19457
Colour: ff00
EndChar

StartChar: uni041E
Encoding: 1054 1054 81
Width: 589
Flags: W
HStem: -9 25<246 282.194> 753 25<295.443 355>
VStem: 55 126<314.573 536.163> 222 24<16 75.4459> 355 25<674.249 753> 410 124<234.965 472.522>
AnchorPoint: "HalfMark" 341 829.6 basechar 0
AnchorPoint: "DoubleTitlo" 588.5 830.4 basechar 0
AnchorPoint: "Yerok" 425 829.6 basechar 0
AnchorPoint: "Diacritic" 341 830 basechar 0
LayerCount: 2
Fore
SplineSet
386 66 m 4
 354 40 289 -9 235 -9 c 4
 228 -9 222 -5 222 0 c 6
 222 30 l 6
 222 68 179 142 152 182 c 4
 107 248 55 322 55 432 c 4
 55 561 160 675 213 718 c 4
 253 751 302 778 368 778 c 4
 374 778 380 773 380 768 c 6
 380 727 l 6
 380 664 433 610 477 539 c 4
 515 477 534 437 534 360 c 4
 534 215 460 128 386 66 c 4
410 315 m 4
 410 407 399 457 377 538 c 4
 361 596 355 646 355 695 c 6
 355 753 l 5
 314 753 289 747 254 717 c 4
 206 675 181 538 181 431 c 4
 181 322 197 211 222 153 c 4
 235 123 246 66 246 40 c 6
 246 16 l 5
 263 16 273 23 292 32 c 4
 309 40 315 45 336 63 c 4
 372 94 410 220 410 315 c 4
EndSplineSet
Validated: 19457
Colour: ff00
EndChar

StartChar: uni041F
Encoding: 1055 1055 82
Width: 690
GlyphClass: 2
Flags: W
HStem: 0 24<55 115 235 295 395 455 575 635> 746 24<55 115 235 455 575 635>
VStem: 115 120<24 746> 455 120<24 746>
AnchorPoint: "HalfMark" 359 829.6 basechar 0
AnchorPoint: "DoubleTitlo" 689.5 830.4 basechar 0
AnchorPoint: "Yerok" 475 827.6 basechar 0
AnchorPoint: "Diacritic" 341 830 basechar 0
LayerCount: 2
Fore
SplineSet
235 24 m 1
 295 24 l 1
 295 0 l 1
 55 0 l 1
 55 24 l 1
 115 24 l 1
 115 746 l 1
 55 746 l 1
 55 770 l 1
 635 770 l 1
 635 746 l 1
 575 746 l 1
 575 24 l 1
 635 24 l 1
 635 0 l 1
 395 0 l 1
 395 24 l 1
 455 24 l 1
 455 746 l 1
 235 746 l 1
 235 24 l 1
EndSplineSet
Validated: 19457
Colour: ff00
EndChar

StartChar: uni0420
Encoding: 1056 1056 83
Width: 617
GlyphClass: 2
Flags: W
HStem: 0 24<40 100 220 280> 437 44<366.284 496.5> 748 30<286.908 418.586>
VStem: 100 120<24 334 371 666.25> 478 114<527.62 690.478>
DStem2: 220 371 220 334 0.64497 0.764208<0 157.481>
AnchorPoint: "HalfMark" 355 829.6 basechar 0
AnchorPoint: "DoubleTitlo" 615.5 830.4 basechar 0
AnchorPoint: "Yerok" 475 827.6 basechar 0
AnchorPoint: "Diacritic" 354 830 basechar 0
LayerCount: 2
Fore
SplineSet
388 778 m 4
 497 778 592 719 592 611 c 4
 592 517 543 437 450 437 c 4
 404 437 365 457 339 475 c 5
 220 334 l 5
 220 24 l 5
 280 24 l 5
 280 0 l 5
 40 0 l 5
 40 24 l 5
 100 24 l 5
 100 591 l 6
 100 623 117 664 133 683 c 4
 165 720 257 778 388 778 c 4
220 625 m 6
 220 371 l 5
 330 501 l 6
 333 505 338 505 341 503 c 4
 342 503 344 502 345 502 c 4
 358 492 374 481 396 481 c 4
 447 481 478 558 478 612 c 4
 478 687 441 748 355 748 c 4
 304 748 261 725 243 703 c 4
 225 682 220 652 220 625 c 6
EndSplineSet
Validated: 19457
Colour: ff00
EndChar

StartChar: uni0421
Encoding: 1057 1057 84
Width: 639
GlyphClass: 2
Flags: W
HStem: -6 25<242 313.439> 311 25<374.012 431 562 593.988> 517 25<366.009 427 550.697 583.991> 756 22<283.278 336.897>
VStem: 55 133<315.907 549.913> 212 31<19 116.777> 427 125<542 615.317> 431 131<200.091 311>
AnchorPoint: "HalfMark" 317 828.6 basechar 0
AnchorPoint: "DoubleTitlo" 640.5 830.4 basechar 0
AnchorPoint: "Yerok" 475 827.6 basechar 0
AnchorPoint: "Diacritic" 315 830 basechar 0
LayerCount: 2
Fore
SplineSet
583 311 m 6xfd
 562 311 l 5xfd
 562 159 450 48 329 9 c 4
 297 -2 269 -6 224 -6 c 4
 213 -6 208 1 208 10 c 4
 208 22 212 33 212 46 c 4
 212 110 177 162 137 212 c 4
 83 279 55 346 55 440 c 4
 55 585 174 747 296 775 c 4
 303 777 312 778 320 778 c 4
 328 778 336 777 343 775 c 4
 436 750 541 649 552 542 c 5
 574 542 l 6
 581 542 584 536 584 530 c 4
 584 523 581 517 574 517 c 6
 376 517 l 6
 369 517 366 523 366 530 c 4
 366 536 369 542 376 542 c 6
 427 542 l 5xfe
 427 629 384 722 325 753 c 4
 321 755 316 756 311 756 c 4
 304 756 298 754 293 752 c 4
 212 713 188 555 188 442 c 4
 188 355 196 285 212 220 c 4
 228 155 243 118 243 51 c 4
 243 43 242 36 242 30 c 4
 242 26 242 23 243 19 c 5
 247 19 251 19 256 19 c 4
 286 19 313 27 330 42 c 4
 388 93 431 173 431 279 c 6
 431 311 l 5
 385 311 l 6
 378 311 374 317 374 324 c 4
 374 330 378 336 385 336 c 6
 583 336 l 6
 590 336 594 330 594 324 c 4
 594 317 590 311 583 311 c 6xfd
EndSplineSet
Validated: 19457
Colour: ff00
EndChar

StartChar: uni0422
Encoding: 1058 1058 85
Width: 720
GlyphClass: 2
Flags: W
HStem: 0 24<238 298 418 478> 746 24<200.006 298 418 515.994>
VStem: 114 11<571.547 588.556> 298 120<24 746> 591 11<571.547 588.391>
CounterMasks: 1 38
AnchorPoint: "HalfMark" 369 829.6 basechar 0
AnchorPoint: "DoubleTitlo" 719.5 830.4 basechar 0
AnchorPoint: "Yerok" 525 829.6 basechar 0
AnchorPoint: "Diacritic" 357 830 basechar 0
LayerCount: 2
Fore
SplineSet
208 746 m 1
 180 707 147 632 125 575 c 0
 123 570 114 570 114 575 c 0
 114 647 78 725 30 751 c 0
 27 752 26 756 26 760 c 0
 26 765 28 770 33 770 c 2
 683 770 l 2
 688 770 690 765 690 760 c 0
 690 756 689 752 686 751 c 0
 638 725 602 646 602 575 c 0
 602 570 593 570 591 575 c 0
 569 632 536 707 508 746 c 1
 418 746 l 1
 418 24 l 1
 478 24 l 1
 478 0 l 1
 238 0 l 1
 238 24 l 1
 298 24 l 1
 298 746 l 1
 208 746 l 1
EndSplineSet
Validated: 19457
Colour: ff00
EndChar

StartChar: uniA64A
Encoding: 42570 42570 86
Width: 714
GlyphClass: 2
Flags: W
HStem: -15 23<242.834 429.398> 97 24<207.002 291.755 369.855 461.998> 230 23<243.443 342 373 437.781> 344 24<141.035 203 329 370> 746 24<39.0015 93 219 291.414> 758 20G<635.5 648.5>
VStem: 121 23<75.5318 161.605> 527 23<76.8103 163.084>
DStem2: 219 746 93 746 0.279415 -0.960171<0 358.474> 333 193 357 186 0.237647 0.971352<-18.8272 38.0788 65.8443 155.467 180.205 499.026>
AnchorPoint: "HalfMark" 365 828.6 basechar 0
AnchorPoint: "DoubleTitlo" 714 830.4 basechar 0
AnchorPoint: "Yerok" 494 827.6 basechar 0
AnchorPoint: "Diacritic" 360 830 basechar 0
LayerCount: 2
Fore
SplineSet
550 119 m 0xf7
 550 20 434 -15 335 -15 c 0
 236 -15 121 20 121 121 c 0
 121 218 236 253 334 253 c 2
 347 253 l 1
 370 344 l 1
 150 344 l 2
 144 344 141 351 141 357 c 0
 141 362 144 368 150 368 c 2
 203 368 l 1
 93 746 l 1
 45 746 l 2xfb
 41 746 39 752 39 758 c 0xf7
 39 764 41 770 45 770 c 2
 286 770 l 2
 294 770 294 746 286 746 c 2
 219 746 l 1xfb
 329 368 l 1
 376 368 l 1
 436 613 l 2
 453 683 485 719 505 735 c 0
 530 755 571 777 609 777 c 0
 616 777 629 778 642 778 c 0
 655 778 667 777 673 777 c 0
 679 776 684 770 684 765 c 0
 684 762 683 759 681 758 c 0
 650 736 628 691 628 642 c 0
 628 630 629 618 632 606 c 0
 634 598 621 589 611 600 c 2
 523 697 l 1
 503 693 473 660 460 607 c 2
 373 251 l 1
 461 251 550 205 550 119 c 0xf7
527 119 m 0
 527 195 446 230 367 230 c 1
 357 186 l 2
 355 179 355 173 355 168 c 0
 355 139 375 121 407 121 c 2
 453 121 l 2
 459 121 462 115 462 109 c 0
 462 103 459 97 453 97 c 2
 216 97 l 2
 210 97 207 103 207 109 c 0
 207 115 210 121 216 121 c 2
 234 121 l 2
 287 121 319 137 333 193 c 2
 342 230 l 1
 334 230 l 2
 247 230 144 205 144 119 c 0
 144 32 248 8 335 8 c 0
 422 8 527 32 527 119 c 0
EndSplineSet
Validated: 3073
Colour: ff00
EndChar

StartChar: uni0424
Encoding: 1060 1060 87
Width: 842
GlyphClass: 2
Flags: W
HStem: 0 24<301 361 481 541> 124 34<232.854 347.477 493.744 609.146> 746 24<301 361 481 541>
VStem: 55 128<214.417 384.57> 361 120<24 147 166.296 584 596.168 746> 659 128<214.417 384.57>
CounterMasks: 1 1c
AnchorPoint: "HalfMark" 421 829.6 basechar 0
AnchorPoint: "DoubleTitlo" 841.5 830.4 basechar 0
AnchorPoint: "Yerok" 625 828.6 basechar 0
AnchorPoint: "Diacritic" 419 830 basechar 0
LayerCount: 2
Fore
SplineSet
541 0 m 1
 301 0 l 1
 301 24 l 1
 361 24 l 1
 361 147 l 1
 337 135 305 124 274 124 c 0
 149 124 55 180 55 304 c 0
 55 421 165 469 253 529 c 0
 295 558 333 584 361 620 c 1
 361 746 l 1
 301 746 l 1
 301 770 l 1
 541 770 l 1
 541 746 l 1
 481 746 l 1
 481 620 l 1
 508 584 546 558 589 529 c 0
 677 469 787 421 787 304 c 0
 787 180 693 124 568 124 c 0
 537 124 504 135 481 147 c 1
 481 24 l 1
 541 24 l 1
 541 0 l 1
550 502 m 0
 525 530 499 557 481 584 c 1
 481 173 l 1
 503 165 529 158 560 158 c 0
 632 158 659 231 659 300 c 0
 659 389 600 446 550 502 c 0
282 158 m 0
 312 158 339 165 361 173 c 1
 361 584 l 1
 343 557 317 530 292 502 c 0
 242 446 183 389 183 300 c 0
 183 231 210 158 282 158 c 0
EndSplineSet
Validated: 19457
Colour: ff00
EndChar

StartChar: uni0425
Encoding: 1061 1061 88
Width: 708
GlyphClass: 2
Flags: W
HStem: 0 24<64 126 155 235 385 463 596 658> 670 105<525.292 598.49> 746 24<50 112 245 323>
VStem: 155 136<136.23 235.139> 627 13<595.551 607.39>
DStem2: 245 746 112 746 0.437221 -0.899354<0 282.214 313.08 370.761 402.064 744.648> 126 24 155 24 0.458943 0.888466<13.3093 123.541 251.251 359.47 526.866 739.787>
AnchorPoint: "HalfMark" 387 829.6 basechar 0
AnchorPoint: "DoubleTitlo" 707.5 830.4 basechar 0
AnchorPoint: "Yerok" 494 827.6 basechar 0
AnchorPoint: "Diacritic" 388 830 basechar 0
LayerCount: 2
Fore
SplineSet
155 187 m 0xd8
 155 228 190 253 224 253 c 0
 231 253 237 252 243 250 c 1
 299 360 l 1
 112 746 l 1
 50 746 l 1
 50 770 l 1
 323 770 l 1
 323 746 l 1
 245 746 l 1
 368 492 l 1
 438 628 l 2
 462 674 495 727 516 746 c 0xb8
 532 761 561 775 601 775 c 0
 616 775 657 773 657 758 c 0
 657 755 656 752 653 749 c 0
 640 735 627 712 627 676 c 0
 627 657 629 634 640 607 c 0
 644 596 634 591 627 600 c 0
 603 631 570 670 527 670 c 0
 488 670 476 646 461 618 c 2
 381 464 l 1
 596 24 l 1
 658 24 l 1
 658 0 l 1
 385 0 l 1
 385 24 l 1
 463 24 l 1
 313 332 l 1
 265 239 l 1
 282 226 291 205 291 184 c 0
 291 143 257 117 223 117 c 0
 216 117 210 115 204 117 c 1
 155 24 l 1
 235 24 l 1
 235 0 l 1
 64 0 l 1
 64 24 l 1
 126 24 l 1
 181 132 l 1
 165 145 155 166 155 187 c 0xd8
EndSplineSet
Validated: 19457
Colour: ff00
EndChar

StartChar: uni0426
Encoding: 1062 1062 89
Width: 674
GlyphClass: 2
Flags: W
HStem: -177 21G<115 127> 0 24<55 115 235 429> 746 24<55 115 235 295 369 429 549 609>
VStem: 115 120<24 746> 429 120<24 746> 526 107<-137.104 0>
AnchorPoint: "HalfMark" 354 828.6 basechar 0
AnchorPoint: "DoubleTitlo" 674.5 830.4 basechar 0
AnchorPoint: "Yerok" 475 827.6 basechar 0
AnchorPoint: "Diacritic" 326 829 basechar 0
LayerCount: 2
Fore
SplineSet
633 -120 m 1xf4
 586 -162 447 -236 380 -267 c 1
 346 -241 225 -158 174 -131 c 1
 154 -145 136 -161 118 -177 c 1
 112 -173 107 -165 103 -159 c 1
 128 -131 191 -79 231 -52 c 1
 286 -75 416 -167 461 -199 c 1
 477 -190 508 -173 526 -162 c 1
 526 0 l 1xf4
 55 0 l 1
 55 24 l 1
 115 24 l 1
 115 746 l 1
 55 746 l 1
 55 770 l 1
 295 770 l 1
 295 746 l 1
 235 746 l 1
 235 24 l 1
 429 24 l 1
 429 746 l 1
 369 746 l 1
 369 770 l 1
 609 770 l 1
 609 746 l 1
 549 746 l 1
 549 24 l 1xf8
 633 24 l 1
 633 -120 l 1xf4
EndSplineSet
Validated: 19457
Colour: ff00
EndChar

StartChar: uni0427
Encoding: 1063 1063 90
Width: 668
GlyphClass: 2
Flags: W
HStem: 0 20<373 433 553 613> 746 24<55 115 235 295 373 433 553 613>
VStem: 115 120<398.474 746> 433 120<20 308.433 325 746>
AnchorPoint: "HalfMark" 338 829.6 basechar 0
AnchorPoint: "DoubleTitlo" 667.5 830.4 basechar 0
AnchorPoint: "Yerok" 475 827.6 basechar 0
AnchorPoint: "Diacritic" 326 830 basechar 0
LayerCount: 2
Fore
SplineSet
235 406 m 5
 297 384 375 353 433 325 c 5
 433 746 l 5
 373 746 l 5
 373 770 l 5
 613 770 l 5
 613 746 l 5
 553 746 l 5
 553 20 l 5
 613 20 l 5
 613 0 l 5
 373 0 l 5
 373 20 l 5
 433 20 l 5
 433 298 l 5
 400 315 360 333 319 346 c 4
 252 367 186 375 124 382 c 4
 117 383 115 388 115 393 c 6
 115 746 l 5
 55 746 l 5
 55 770 l 5
 295 770 l 5
 295 746 l 5
 235 746 l 5
 235 406 l 5
EndSplineSet
Validated: 19457
Colour: ff00
EndChar

StartChar: uni0428
Encoding: 1064 1064 91
Width: 970
GlyphClass: 2
Flags: W
HStem: 0 24<55 115 235 425 545 735 855 915> 746 24<55 115 235 295 365 425 545 605 675 735 855 915>
VStem: 115 120<24 746> 425 120<24 746> 735 120<24 746>
CounterMasks: 1 38
AnchorPoint: "HalfMark" 486 828.6 basechar 0
AnchorPoint: "DoubleTitlo" 969.5 828.4 basechar 0
AnchorPoint: "Yerok" 775 827.6 basechar 0
AnchorPoint: "Diacritic" 484 829 basechar 0
LayerCount: 2
Fore
SplineSet
55 24 m 1
 115 24 l 1
 115 746 l 1
 55 746 l 1
 55 770 l 1
 295 770 l 1
 295 746 l 1
 235 746 l 1
 235 24 l 1
 425 24 l 1
 425 746 l 1
 365 746 l 1
 365 770 l 1
 605 770 l 1
 605 746 l 1
 545 746 l 1
 545 24 l 1
 735 24 l 1
 735 746 l 1
 675 746 l 1
 675 770 l 1
 915 770 l 1
 915 746 l 1
 855 746 l 1
 855 24 l 1
 915 24 l 1
 915 0 l 1
 55 0 l 1
 55 24 l 1
EndSplineSet
Validated: 19457
Colour: ff00
EndChar

StartChar: uni0429
Encoding: 1065 1065 92
Width: 970
GlyphClass: 2
Flags: W
HStem: 0 24<55 115 235 425 545 735 855 915> 746 24<55 115 235 295 365 425 545 605 675 735 855 915>
VStem: 115 120<24 746> 425 120<-146.762 0 24 746> 735 120<24 746>
CounterMasks: 1 38
AnchorPoint: "HalfMark" 486 828.6 basechar 0
AnchorPoint: "DoubleTitlo" 968.5 831.4 basechar 0
AnchorPoint: "Yerok" 775 827.6 basechar 0
AnchorPoint: "Diacritic" 478 830 basechar 0
LayerCount: 2
Fore
SplineSet
485 -330 m 0
 475 -330 468 -324 465 -315 c 0
 454 -277 399 -230 350 -220 c 0
 341 -218 336 -210 336 -202 c 0
 336 -194 341 -186 350 -184 c 0
 399 -170 425 -125 425 -77 c 2
 425 0 l 1
 55 0 l 1
 55 24 l 1
 115 24 l 1
 115 746 l 1
 55 746 l 1
 55 770 l 1
 295 770 l 1
 295 746 l 1
 235 746 l 1
 235 24 l 1
 425 24 l 1
 425 746 l 1
 365 746 l 1
 365 770 l 1
 605 770 l 1
 605 746 l 1
 545 746 l 1
 545 24 l 1
 735 24 l 1
 735 746 l 1
 675 746 l 1
 675 770 l 1
 915 770 l 1
 915 746 l 1
 855 746 l 1
 855 24 l 1
 915 24 l 1
 915 0 l 1
 545 0 l 1
 545 -77 l 2
 545 -125 571 -170 620 -184 c 0
 629 -186 634 -194 634 -202 c 0
 634 -210 629 -218 620 -220 c 0
 571 -230 516 -277 505 -315 c 0
 502 -324 495 -330 485 -330 c 0
EndSplineSet
Validated: 19457
Colour: ff00
EndChar

StartChar: uni042A
Encoding: 1066 1066 93
Width: 682
GlyphClass: 2
Flags: W
HStem: 0 24<50 111 237 448 571 632> 368 24<489 549> 746 24<255.787 373 499 560>
DStem2: 111 24 237 24 0.341116 0.940021<42.9806 408.987 434.277 768.068> 489 368 366 368 0.231875 -0.972745<0 325.118>
AnchorPoint: "HalfMark" 432 829.6 basechar 0
AnchorPoint: "DoubleTitlo" 681.5 830.4 basechar 0
AnchorPoint: "Yerok" 490 827.6 basechar 0
AnchorPoint: "Diacritic" 366 830 basechar 0
LayerCount: 2
Fore
SplineSet
88 770 m 2
 560 770 l 1
 560 746 l 1
 499 746 l 1
 370 392 l 1
 549 392 l 1
 549 368 l 1
 489 368 l 1
 571 24 l 1
 632 24 l 1
 632 0 l 1
 50 0 l 1
 50 24 l 1
 111 24 l 1
 373 746 l 1
 263 746 l 1
 242 714 168 617 151 595 c 0
 147 589 130 593 130 600 c 0
 130 604 130 608 130 612 c 0
 130 663 112 724 81 746 c 0
 77 749 75 754 75 759 c 0
 75 765 78 770 88 770 c 2
366 368 m 1
 362 368 l 1
 237 24 l 1
 448 24 l 1
 366 368 l 1
EndSplineSet
Validated: 19457
Colour: ff00
EndChar

StartChar: uni042B
Encoding: 1067 1067 94
Width: 870
GlyphClass: 2
Flags: W
HStem: 0 24<55 115 235 383 503 543 575 635 755 815> 746 24<55 115 235 295 575 635 755 815>
VStem: 115 120<24 421 436.516 746> 383 120<24 351.447> 635 120<24 746>
AnchorPoint: "HalfMark" 486 829.6 basechar 0
AnchorPoint: "DoubleTitlo" 870.5 831.4 basechar 0
AnchorPoint: "Yerok" 675 827.6 basechar 0
AnchorPoint: "Diacritic" 439 830 basechar 0
LayerCount: 2
Fore
SplineSet
55 770 m 1
 295 770 l 1
 295 746 l 1
 235 746 l 1
 235 452 l 1
 270 425 329 394 371 378 c 0
 397 368 458 359 494 359 c 0
 499 359 503 354 503 349 c 2
 503 24 l 1
 543 24 l 1
 543 0 l 1
 55 0 l 1
 55 24 l 1
 115 24 l 1
 115 746 l 1
 55 746 l 1
 55 770 l 1
815 0 m 1
 575 0 l 1
 575 24 l 1
 635 24 l 1
 635 746 l 1
 575 746 l 1
 575 770 l 1
 815 770 l 1
 815 746 l 1
 755 746 l 1
 755 24 l 1
 815 24 l 1
 815 0 l 1
383 340 m 1
 347 360 273 394 235 421 c 1
 235 24 l 1
 383 24 l 1
 383 340 l 1
EndSplineSet
Validated: 19457
Colour: ff00
EndChar

StartChar: uni042C
Encoding: 1068 1068 95
Width: 598
GlyphClass: 2
Flags: W
HStem: 0 24<55 115 235 383 503 543> 746 24<55 115 235 295>
VStem: 115 120<24 421 436.516 746> 383 120<24 351.447>
AnchorPoint: "HalfMark" 361 830.6 basechar 0
AnchorPoint: "DoubleTitlo" 598.5 830.4 basechar 0
AnchorPoint: "Yerok" 400 829.6 basechar 0
AnchorPoint: "Diacritic" 322 830 basechar 0
LayerCount: 2
Fore
SplineSet
55 770 m 1
 295 770 l 1
 295 746 l 1
 235 746 l 1
 235 452 l 1
 270 425 329 394 371 378 c 0
 397 368 458 359 494 359 c 0
 499 359 503 354 503 349 c 2
 503 24 l 1
 543 24 l 1
 543 0 l 1
 55 0 l 1
 55 24 l 1
 115 24 l 1
 115 746 l 1
 55 746 l 1
 55 770 l 1
383 340 m 1
 347 360 273 394 235 421 c 1
 235 24 l 1
 383 24 l 1
 383 340 l 1
EndSplineSet
Validated: 19457
Colour: ff00
EndChar

StartChar: uni042D
Encoding: 1069 1069 96
Width: 600
GlyphClass: 2
Flags: W
HStem: 0 21G<371 424.5> 309 22<204 224.997> 328 21<20.0262 32> 717 69<249.461 374.608>
VStem: 470 110<352.185 555.602>
DStem2: 32 349 30 328 0.992278 -0.124035<-10.5117 31.9196> 227 511 329 411 0.830828 -0.556529<108.857 290.387>
AnchorPoint: "HalfMark" 333 828.6 basechar 0
AnchorPoint: "DoubleTitlo" 601.5 830.4 basechar 0
AnchorPoint: "Yerok" 450 827.6 basechar 0
AnchorPoint: "Diacritic" 277 829 basechar 0
LayerCount: 2
Fore
SplineSet
232 667 m 1xb8
 240 664 254 663 254 652 c 0
 254 647 250 641 244 641 c 1
 244 641 229 644 228 644 c 2
 167 661 l 1
 128 669 118 671 95 676 c 0
 83 679 53 680 53 694 c 0
 53 699 57 704 63 704 c 0
 71 704 78 702 86 701 c 1
 133 748 180 786 275 786 c 0
 307 786 345 778 375 764 c 0
 407 749 505 690 554 568 c 1
 572 517 580 462 580 415 c 0
 580 329 553 224 524 161 c 0
 495 98 451 33 398 0 c 1
 344 0 297 15 258 34 c 0
 217 53 179 80 152 110 c 0
 151 111 151 112 151 113 c 0
 151 121 161 132 169 132 c 0
 171 132 173 131 174 129 c 2
 193 113 l 1
 209 98 228 83 247 70 c 0
 257 63 267 58 277 55 c 1
 290 58 301 63 310 69 c 2
 338 86 l 1
 389 146 438 239 459 324 c 1
 416 353 372 382 329 411 c 0
 318 419 309 425 302 428 c 1
 281 417 272 413 258 394 c 1
 239 371 227 349 204 331 c 1
 216 331 l 2
 222 331 225 325 225 320 c 0
 225 314 221 309 215 309 c 2
 214 309 l 1xd8
 85 322 l 2
 67 324 48 326 30 328 c 0
 23 328 20 333 20 338 c 0
 20 343 24 349 30 349 c 2
 32 349 l 1
 54 346 l 2
 57 346 56 346 57 347 c 2
 80 370 l 1
 116 408 158 456 181 506 c 0
 185 514 194 517 204 517 c 0
 212 517 221 515 227 511 c 0
 307 458 389 401 468 349 c 1
 470 358 470 369 470 380 c 2
 470 415 l 2
 470 522 454 617 406 681 c 1
 382 698 360 717 323 717 c 0
 279 717 241 702 232 667 c 1xb8
EndSplineSet
Validated: 3073
Colour: ff00ff
EndChar

StartChar: uni042E
Encoding: 1070 1070 97
Width: 853
GlyphClass: 2
Flags: W
HStem: -7 25<507 584.107> 0 24<55 115 235 295> 746 24<55 115 235 295> 753 25<602.423 654>
VStem: 115 120<24 398 424 746> 346 128<317.343 437 462 558.892> 486 35<18.9219 132.525> 642 28<632.521 751.815> 694 114<191 405.662>
DStem2: 235 424 235 398 0.94346 0.331486<0 109.033>
AnchorPoint: "HalfMark" 474 828.6 basechar 0
AnchorPoint: "DoubleTitlo" 853 828.4 basechar 0
AnchorPoint: "Yerok" 675 827.6 basechar 0
AnchorPoint: "Diacritic" 477 830 basechar 0
LayerCount: 2
Fore
SplineSet
346 462 m 1x6f80
 346 625 533 778 669 778 c 0
 677 778 682 770 680 762 c 0
 676 743 670 711 670 677 c 0
 670 675 670 672 670 670 c 0
 670 634 723 581 742 552 c 0
 781 492 808 444 808 357 c 0
 808 240 763 135 694 67 c 0
 645 19 585 -7 493 -7 c 0x9f80
 484 -7 478 2 479 11 c 0
 482 31 486 48 486 75 c 0
 486 123 452 155 423 199 c 0
 378 267 346 338 346 437 c 1
 235 398 l 1
 235 24 l 1
 295 24 l 1
 295 0 l 1
 55 0 l 1
 55 24 l 1
 115 24 l 1
 115 746 l 1
 55 746 l 1
 55 770 l 1
 295 770 l 1
 295 746 l 1
 235 746 l 1
 235 424 l 1
 346 462 l 1x6f80
694 208 m 0
 694 286 686 342 670 416 c 0
 654 492 642 529 642 602 c 0
 642 614 642 626 642 638 c 0
 642 685 648 728 654 753 c 1
 550 753 496 668 486 622 c 0
 475 571 474 551 474 523 c 0
 474 516 474 507 474 497 c 0
 474 435 485 352 497 311 c 0
 511 263 521 194 521 129 c 0
 521 88 517 49 507 18 c 1
 583 18 647 44 679 120 c 0
 692 152 694 174 694 208 c 0
EndSplineSet
Validated: 19457
Colour: ff00
EndChar

StartChar: uni042F
Encoding: 1071 1071 98
Width: 604
GlyphClass: 2
Flags: W
HStem: -0 24<6 54 182 238 331 391 511 571> 390 30<251.887 391> 736 34<240.21 391 511 571>
VStem: 49 108<481.104 654.362> 54 128<24 309.716> 391 120<24 390 420 736>
LayerCount: 2
Fore
SplineSet
254 726 m 0xf4
 244 722 227 714 210 700 c 0
 172 666 157 619 157 563 c 2
 157 550 l 2
 157 495 197 442 244 427 c 0
 254 424 274 420 284 420 c 0
 293 420 296 420 305 420 c 2
 391 420 l 1
 391 736 l 1
 335 736 l 2
 297 736 279 735 254 726 c 0xf4
54 24 m 1xec
 54 220 l 2xec
 54 235 56 265 58 273 c 0
 79 332 122 378 186 398 c 1
 174 402 l 1
 107 422 49 471 49 557 c 0xf4
 49 639 83 686 129 723 c 0
 171 756 228 770 293 770 c 2
 571 770 l 1
 571 736 l 1
 511 736 l 1
 511 24 l 1
 571 24 l 1
 571 -0 l 1
 331 -0 l 1
 331 24 l 1
 391 24 l 1
 391 390 l 1
 308 390 l 2
 235 390 182 326 182 259 c 0
 182 181 182 102 182 24 c 1
 238 24 l 1
 238 -0 l 1
 6 -0 l 1
 6 24 l 1
 54 24 l 1xec
EndSplineSet
Validated: 1
Colour: ff00ff
EndChar

StartChar: uni0430
Encoding: 1072 1072 99
Width: 396
GlyphClass: 2
Flags: W
HStem: -3 71<97.0686 136.29> 420 20G<188 220.5>
VStem: 43 54<68.2784 104.472> 188 109<370.125 436.764>
AnchorPoint: "below" 207 -200 basechar 0
AnchorPoint: "right" 368 536.5 basechar 0
AnchorPoint: "left" 66.7778 535.8 basechar 0
AnchorPoint: "HalfMark" 224.5 539.7 basechar 0
AnchorPoint: "DoubleTitlo" 396.5 536 basechar 0
AnchorPoint: "Yerok" 225 539 basechar 0
AnchorPoint: "Numeral" 190 201 basechar 0
AnchorPoint: "Diacritic" 210 539 basechar 0
LayerCount: 2
Fore
SplineSet
297 434 m 1
 297 292 332 105 356 -3 c 1
 351 -3 345 -3 340 -3 c 0
 310 -3 273 -1 252 3 c 1
 244 35 236 76 229 123 c 1
 213 110 194 92 178 72 c 0
 156 44 148 26 137 3 c 1
 122 0 97 -3 74 -3 c 0
 63 -3 53 -2 44 0 c 1
 43 6 43 11 43 17 c 0
 43 34 46 50 53 72 c 0
 72 138 106 184 144 252 c 0
 166 291 180 328 192 369 c 1
 189 393 188 417 188 440 c 1
 194 440 199 440 205 440 c 0
 236 440 272 438 297 434 c 1
223 157 m 1
 216 208 206 249 200 307 c 1
 190 283 179 262 166 240 c 0
 137 188 116 148 97 102 c 0
 97 99 97 96 97 93 c 0
 97 76 103 74 108 68 c 0
 110 68 117 65 118 65 c 0
 125 65 138 67 146 74 c 1
 150 81 160 91 167 99 c 0
 187 122 206 141 223 157 c 1
EndSplineSet
Validated: 19457
Position2: "Numeral Kerning-1" dx=250 dy=0 dh=0 dv=0
Colour: ff00
EndChar

StartChar: uni0431
Encoding: 1073 1073 100
Width: 455
GlyphClass: 2
Flags: W
HStem: 0 24<168 298> 413 24<183.865 304.639>
VStem: 61 106<24 167.699 192 410.513>
DStem2: 83 437 185 413 0.0842372 0.996446<-236.885 -15.3225>
AnchorPoint: "below" 207 -200 basechar 0
AnchorPoint: "left" 66.7778 535.8 basechar 0
AnchorPoint: "right" 369 536.2 basechar 0
AnchorPoint: "HalfMark" 238.5 538.7 basechar 0
AnchorPoint: "DoubleTitlo" 455.5 538 basechar 0
AnchorPoint: "Yerok" 275 539 basechar 0
AnchorPoint: "Diacritic" 241 538.7 basechar 0
LayerCount: 2
Fore
SplineSet
83 437 m 1
 374 437 l 2
 383 437 390 432 390 424 c 0
 390 421 390 418 388 415 c 0
 384 406 381 399 378 392 c 2
 372 373 l 2
 370 367 368 361 366 354 c 2
 361 333 l 2
 358 320 341 323 338 333 c 0
 327 364 315 393 295 413 c 1
 185 413 l 1
 179 361 172 240 169 192 c 1
 199 198 l 2
 214 201 229 205 245 209 c 2
 290 222 l 2
 293 223 296 223 299 223 c 0
 313 223 324 215 329 206 c 0
 359 146 386 75 402 0 c 1
 62 0 l 1
 62 36 61 58 61 83 c 0
 61 114 62 149 64 219 c 0
 67 286 77 398 83 437 c 1
167 68 m 0
 167 52 168 38 168 24 c 1
 298 24 l 1
 291 58 272 102 258 126 c 0
 248 141 234 160 226 164 c 0
 218 168 211 169 204 169 c 0
 192 169 180 166 169 164 c 1
 168 133 167 98 167 68 c 0
EndSplineSet
Validated: 19457
Colour: ff00
EndChar

StartChar: uni0432
Encoding: 1074 1074 101
Width: 489
GlyphClass: 2
Flags: W
HStem: 0 24<169 320.938> 413 24<175.385 328.998>
VStem: 61 108<24 171 212 412.656>
DStem2: 168 212 168 171 0.635148 0.772391<0 45.4596 66.4128 253.574> 349 232 254 206 0.383966 -0.923347<-25.0932 175.858>
AnchorPoint: "below" 207 -199 basechar 0
AnchorPoint: "left" 66.7778 535.8 basechar 0
AnchorPoint: "right" 369 536.2 basechar 0
AnchorPoint: "HalfMark" 238.5 538.7 basechar 0
AnchorPoint: "DoubleTitlo" 487.5 536 basechar 0
AnchorPoint: "Yerok" 300 539 basechar 0
AnchorPoint: "Diacritic" 236 538.7 basechar 0
AnchorPoint: "Numeral" 233 230 basechar 0
LayerCount: 2
Fore
SplineSet
61 0 m 1
 61 10 61 21 61 35 c 0
 61 87 62 164 64 237 c 0
 66 340 73 435 74 437 c 1
 361 437 l 2
 370 437 373 420 367 413 c 2
 230 247 l 1
 329 247 l 2
 341 247 346 239 349 232 c 2
 433 30 l 2
 435 25 437 19 437 14 c 0
 437 6 434 0 422 0 c 2
 61 0 l 1
254 206 m 1
 254 206 250 218 240 220 c 0
 231 224 210 223 210 223 c 1
 168 171 l 1
 168 112 169 62 169 24 c 1
 316 24 l 2
 326 24 326 33 322 42 c 2
 254 206 l 1
170 309 m 0
 169 278 168 212 168 212 c 1
 326 402 l 2
 328 404 329 406 329 408 c 0
 329 411 326 413 322 413 c 2
 177 413 l 1
 176 406 171 378 170 309 c 0
EndSplineSet
Validated: 19457
Position2: "Numeral Kerning-1" dx=250 dy=0 dh=0 dv=0
Colour: ff00
EndChar

StartChar: uni0433
Encoding: 1075 1075 102
Width: 417
GlyphClass: 2
Flags: W
HStem: -4 21G<142.5 180> 416 25<180.036 269.816> 416 18<180.353 268.508>
VStem: 65 105<3.3905 411.765>
AnchorPoint: "below" 241 -200 basechar 0
AnchorPoint: "left" 66.7778 535.8 basechar 0
AnchorPoint: "right" 369 536.2 basechar 0
AnchorPoint: "HalfMark" 238.5 538.7 basechar 0
AnchorPoint: "DoubleTitlo" 416.5 538 basechar 0
AnchorPoint: "Yerok" 250 539 basechar 0
AnchorPoint: "Diacritic" 225 538.7 basechar 0
AnchorPoint: "Numeral" 222 217 basechar 0
LayerCount: 2
Fore
SplineSet
69 3 m 5xd0
 69 63 65 148 65 215 c 4
 65 295 72 382 77 434 c 5xb0
 160 434 310 441 376 441 c 5
 379 440 381 437 381 433 c 4
 381 427 376 417 372 411 c 4
 356 389 346 369 346 337 c 4
 346 332 347 327 347 322 c 4
 347 313 341 310 336 310 c 4
 332 310 328 311 325 314 c 4
 298 339 279 376 266 416 c 5
 264 416 261 416 258 416 c 4
 236 416 193 413 181 413 c 5
 174 362 170 283 170 203 c 4
 170 126 173 48 180 -4 c 5
 173 -4 166 -4 157 -4 c 4
 128 -4 92 -1 69 3 c 5xd0
EndSplineSet
Validated: 19457
Position2: "Numeral Kerning-1" dx=250 dy=0 dh=0 dv=0
Colour: ff00
EndChar

StartChar: uni0434
Encoding: 1076 1076 103
Width: 434
GlyphClass: 2
Flags: W
HStem: -173 21G<80 83 347 350.5> 0 24<120 251> 420 20G<173 184.5>
VStem: 72 14<-175.484 -142.856> 90 30<24 67.0211> 173 110<298.715 435.1> 251 109<24 85.5234> 339 16<-172.744 -132.047>
AnchorPoint: "below" 207 -199 basechar 0
AnchorPoint: "left" 66.7778 535.8 basechar 0
AnchorPoint: "right" 369 536.2 basechar 0
AnchorPoint: "HalfMark" 238.5 538.7 basechar 0
AnchorPoint: "DoubleTitlo" 434.5 538 basechar 0
AnchorPoint: "Yerok" 275 538 basechar 0
AnchorPoint: "Diacritic" 227 537.7 basechar 0
AnchorPoint: "Numeral" 230 150 basechar 0
LayerCount: 2
Fore
SplineSet
21 24 m 6xf9
 90 24 l 5
 106 86 155 168 173 233 c 4
 179 255 185 276 189 296 c 5
 181 354 173 407 173 440 c 5
 196 440 260 439 283 434 c 5xfd
 283 380 293 311 305 235 c 4
 318 151 334 94 360 24 c 5xfa
 406 24 l 6
 414 24 418 14 418 4 c 4
 418 -2 417 -8 414 -13 c 4
 406 -27 388 -57 377 -87 c 4
 366 -117 360 -140 355 -168 c 4
 355 -172 352 -173 349 -173 c 4
 345 -173 340 -170 339 -166 c 4
 331 -138 320 -45 307 0 c 5
 116 0 l 5
 114 -6 114 -16 112 -28 c 4
 106 -67 105 -81 98 -119 c 4
 95 -136 89 -157 86 -173 c 4
 86 -175 84 -176 82 -176 c 4
 78 -176 73 -173 72 -170 c 4
 68 -138 59 -103 49 -69 c 4
 40 -40 34 -19 18 0 c 4
 14 4 12 10 12 15 c 4
 12 20 14 24 21 24 c 6xf9
251 24 m 5xfa
 236 71 217 141 202 214 c 5
 187 184 172 161 156 123 c 4
 140 86 128 52 120 24 c 5
 251 24 l 5xfa
EndSplineSet
Validated: 19457
Position2: "Numeral Kerning-1" dx=250 dy=0 dh=0 dv=0
Colour: ff00
EndChar

StartChar: uni0435
Encoding: 1077 1077 104
Width: 332
GlyphClass: 2
Flags: W
HStem: -2 78<150 200.345> 375 68<266.328 286.724>
VStem: 55 93<78.6133 159.816 236 336.466> 70 80<76 159.917>
AnchorPoint: "below" 152 -200 basechar 0
AnchorPoint: "left" 28.2778 536.4 basechar 0
AnchorPoint: "right" 330.5 536.8 basechar 0
AnchorPoint: "HalfMark" 176.5 538.7 basechar 0
AnchorPoint: "DoubleTitlo" 332.5 538 basechar 0
AnchorPoint: "Yerok" 175 539 basechar 0
AnchorPoint: "Numeral" 197 225 basechar 0
AnchorPoint: "Diacritic" 160 539 basechar 0
LayerCount: 2
Fore
SplineSet
70 54 m 0xd0
 70 120 55 183 55 245 c 0
 55 294 60 343 83 370 c 0
 124 419 206 444 266 444 c 0
 273 444 280 444 286 443 c 1
 288 434 288 427 288 420 c 0
 288 403 288 377 271 375 c 0
 231 369 178 354 154 321 c 0
 149 314 148 304 148 294 c 2
 148 236 l 1xe0
 181 256 236 280 273 293 c 1
 274 284 275 271 275 258 c 0
 275 241 274 224 271 213 c 1
 234 200 181 171 150 145 c 1
 150 76 l 1
 194 76 233 98 255 120 c 0
 263 128 269 108 267 99 c 0
 260 62 242 43 209 24 c 0
 182 9 127 -2 92 -2 c 0
 88 -2 84 -2 80 -2 c 0
 78 -2 77 -2 75 -2 c 0
 70 -1 70 24 70 31 c 0
 70 38 70 46 70 54 c 0xd0
EndSplineSet
Validated: 19457
Position2: "Numeral Kerning-1" dx=250 dy=0 dh=0 dv=0
Colour: ff00
EndChar

StartChar: uni0436
Encoding: 1078 1078 105
Width: 751
GlyphClass: 2
Flags: W
HStem: -3 21G<105.5 125.5 361 381.5 632 652.5> 256 181<69.3113 167.363> 374 63<168.007 191.906> 384 53<537.555 597.626>
VStem: 54 113<-1.7688 100.498> 65 103<256 374.444> 310 116<-1.82812 246.72> 319 104<2.74863 251 355 437> 580 112<-1.7688 97.2115>
DStem2: 425 347 428 317 0.844121 0.536153<0 131.003>
AnchorPoint: "below" 369 -200 basechar 0
AnchorPoint: "left" 244.778 537.3 basechar 0
AnchorPoint: "right" 547 537.7 basechar 0
AnchorPoint: "HalfMark" 367.5 538.7 basechar 0
AnchorPoint: "DoubleTitlo" 752 540 basechar 0
AnchorPoint: "Yerok" 575 539 basechar 0
AnchorPoint: "Diacritic" 369 538.7 basechar 0
LayerCount: 2
Fore
SplineSet
310 0 m 1xa280
 310 58 314 157 319 256 c 1xc180
 261 224 214 175 182 107 c 0
 168 79 167 51 167 24 c 0
 167 16 167 8 167 0 c 1
 152 -2 135 -3 116 -3 c 0
 95 -3 72 -2 55 0 c 1
 54 4 54 8 54 12 c 0
 54 64 73 105 103 143 c 0
 145 195 272 269 319 296 c 1
 319 301 l 1
 281 323 223 359 192 374 c 0
 190 375 188 374 186 374 c 0xa980
 178 374 168 369 168 355 c 0
 168 330 171 308 171 293 c 0
 171 273 170 261 170 256 c 1
 144 256 88 246 66 239 c 1
 68 256 69 273 69 291 c 0
 69 332 65 374 65 413 c 0
 65 427 85 437 104 437 c 2
 104 437 109 437 116 437 c 0xc580
 158 437 201 429 214 424 c 0
 245 412 290 375 322 355 c 1
 324 386 324 418 324 437 c 1
 428 437 l 1
 428 408 426 370 425 347 c 1
 465 374 523 408 557 427 c 0
 568 433 587 437 602 437 c 0
 617 437 628 434 644 434 c 0
 652 434 668 435 674 436 c 0
 677 436 680 438 683 438 c 0
 690 438 692 432 688 425 c 0
 669 400 654 362 654 316 c 0
 654 309 654 301 655 295 c 1
 654 292 651 292 650 293 c 0
 635 303 624 316 615 331 c 0
 602 354 594 384 553 384 c 0
 551 384 548 384 546 384 c 0x9580
 537 384 527 379 518 374 c 0
 489 357 460 340 428 317 c 1
 467 297 510 279 554 243 c 0
 616 193 635 157 670 98 c 0
 690 62 692 21 692 17 c 0
 692 14 693 11 693 8 c 0
 693 5 692 2 692 0 c 1
 679 -2 662 -3 643 -3 c 0
 621 -3 598 -2 580 0 c 1
 580 70 561 100 528 151 c 0
 502 192 454 229 423 251 c 1
 423 198 l 2xa580
 423 120 423 42 426 0 c 1
 410 -2 391 -3 372 -3 c 0
 350 -3 327 -2 310 0 c 1xa280
EndSplineSet
Validated: 19457
Colour: ff00
EndChar

StartChar: uni0437
Encoding: 1079 1079 106
Width: 602
GlyphClass: 2
Flags: W
HStem: -224 43<304.332 411.544> -163 85<85.2702 211.34> 424 22<247.486 349.665>
VStem: 52 110<249.818 355.209> 421 109<249.942 375.348> 465 100<-129.568 37.89>
AnchorPoint: "below" 313 -200 basechar 0
AnchorPoint: "left" 106.778 535.8 basechar 0
AnchorPoint: "right" 495 536.2 basechar 0
AnchorPoint: "HalfMark" 303.5 538.7 basechar 0
AnchorPoint: "DoubleTitlo" 602 538 basechar 0
AnchorPoint: "Yerok" 425 538 basechar 0
AnchorPoint: "Diacritic" 304 538.7 basechar 0
AnchorPoint: "Numeral" 308 110 basechar 0
LayerCount: 2
Fore
SplineSet
108 248 m 0xf8
 106 248 104 248 102 248 c 0
 83 248 52 252 52 252 c 1
 52 254 52 257 52 259 c 0
 52 303 64 338 72 352 c 0
 76 360 86 373 90 378 c 0
 132 425 206 446 296 446 c 0
 309 446 322 446 335 446 c 0
 390 446 439 443 486 403 c 0
 522 372 530 328 530 295 c 0xf8
 530 285 530 276 528 268 c 1
 526 247 502 217 479 209 c 0
 469 206 460 205 451 205 c 0
 442 205 434 206 427 206 c 0
 424 206 421 205 418 205 c 1
 408 200 408 193 405 189 c 1
 449 169 500 144 524 110 c 0
 554 67 565 12 565 -48 c 0
 565 -112 534 -166 500 -188 c 0
 471 -206 429 -224 384 -224 c 0
 360 -224 342 -217 322 -210 c 1
 298 -200 274 -190 251 -180 c 0
 229 -170 198 -163 166 -163 c 0
 108 -163 74 -188 43 -218 c 0
 40 -222 37 -223 34 -223 c 0
 28 -223 18 -207 18 -200 c 0
 18 -184 28 -157 43 -133 c 0
 62 -101 98 -78 145 -78 c 0
 157 -78 168 -80 178 -82 c 0
 196 -86 221 -107 230 -113 c 0
 260 -135 289 -181 348 -181 c 0
 388 -181 427 -154 443 -130 c 0
 457 -110 465 -77 465 -45 c 0xf4
 465 8 449 37 420 67 c 0
 403 84 382 95 370 101 c 0
 359 106 346 113 334 113 c 0
 328 113 322 111 317 106 c 1
 294 71 l 2
 285 57 277 45 272 34 c 1
 269 33 265 33 262 33 c 0
 245 33 227 40 215 45 c 0
 197 53 173 67 167 85 c 1
 178 112 193 140 208 162 c 1
 225 185 240 207 261 225 c 0
 265 229 271 232 279 230 c 0
 308 224 340 214 368 204 c 1
 385 228 410 262 419 289 c 0
 421 296 422 304 421 313 c 0
 418 380 365 424 296 424 c 0
 258 424 227 405 206 385 c 0
 181 362 162 317 162 255 c 0
 162 250 128 249 108 248 c 0xf8
EndSplineSet
Validated: 19457
Position2: "Numeral Kerning-1" dx=250 dy=0 dh=0 dv=0
Colour: ff00
EndChar

StartChar: uni0438
Encoding: 1080 1080 107
Width: 485
GlyphClass: 2
Flags: W
HStem: -4 21G<110.5 129.5 366.5 389> 423 20G<163.5 179.5 408.5 424>
VStem: 67 105<-2.73306 229 257 375.644> 75 106<259.818 430.826> 316 105
DStem2: 174 257 174 229 0.918484 0.395458<0 144.789>
AnchorPoint: "below" 244 -200 basechar 0
AnchorPoint: "left" 101.778 535.8 basechar 0
AnchorPoint: "right" 404 536.2 basechar 0
AnchorPoint: "HalfMark" 259.5 538.7 basechar 0
AnchorPoint: "DoubleTitlo" 485 539 basechar 0
AnchorPoint: "Yerok" 300 539 basechar 0
AnchorPoint: "Numeral" 245 210 basechar 0
AnchorPoint: "Diacritic" 259 539 basechar 0
LayerCount: 2
Fore
SplineSet
172 -0 m 1xe8
 154 -3 139 -4 120 -4 c 0
 101 -4 84 -3 69 -0 c 1
 68 15 67 65 67 104 c 0xe8
 67 211 70 274 75 367 c 0
 76 394 78 415 79 430 c 1
 107 439 146 442 181 443 c 1xd8
 178 385 176 317 174 257 c 1
 318 319 l 1
 319 358 320 401 324 431 c 1
 352 439 391 442 426 442 c 1
 422 356 421 302 421 210 c 2
 421 198 l 2
 421 140 421 42 426 -0 c 1
 417 -1 393 -4 385 -4 c 2
 371 -4 l 2
 362 -4 329 -1 320 -0 c 1
 316 46 316 108 316 163 c 2
 316 227 l 2
 316 249 316 270 317 291 c 1
 174 229 l 1
 172 210 172 129 172 91 c 0
 172 58 172 24 172 -0 c 1xe8
EndSplineSet
Validated: 19457
Position2: "Numeral Kerning-1" dx=250 dy=0 dh=0 dv=0
Colour: ff00
EndChar

StartChar: uni0439
Encoding: 1081 1081 108
Width: 480
GlyphClass: 2
Flags: W
HStem: -4 21G<110.5 129.5 366.5 389> 423 20G<163.5 179.5 408.5 424> 521 68<206.67 305.261>
VStem: 67 105<-2.73306 229 257 375.644> 75 106<259.818 430.826> 148 37<614.236 701.017> 316 105
DStem2: 174 257 174 229 0.918484 0.395458<0 144.789>
AnchorPoint: "below" 247 -200 basechar 0
AnchorPoint: "HalfMark" 247.5 538.7 basechar 0
AnchorPoint: "DoubleTitlo" 480.5 805 basechar 0
AnchorPoint: "Yerok" 264 757 basechar 0
AnchorPoint: "Diacritic" 266 755.7 basechar 0
LayerCount: 2
Fore
SplineSet
172 -0 m 1xf2
 154 -3 139 -4 120 -4 c 0
 101 -4 84 -3 69 -0 c 1
 68 15 67 65 67 104 c 0xf2
 67 211 70 274 75 367 c 0
 76 394 78 415 79 430 c 1
 107 439 146 442 181 443 c 1xe8
 178 385 176 317 174 257 c 1
 318 319 l 1
 319 358 320 401 324 431 c 1
 352 439 391 442 426 442 c 1
 422 356 421 302 421 210 c 2
 421 198 l 2
 421 140 421 42 426 -0 c 1
 417 -1 393 -4 385 -4 c 2
 371 -4 l 2
 362 -4 329 -1 320 -0 c 1
 316 46 316 108 316 163 c 2
 316 227 l 2
 316 249 316 270 317 291 c 1
 174 229 l 1
 172 210 172 129 172 91 c 0
 172 58 172 24 172 -0 c 1xf2
375 679 m 0xe5
 375 604 327 521 251 521 c 0
 249 521 247 521 245 521 c 0
 179 521 148 568 148 628 c 0
 148 668 166 712 186 725 c 0
 194 730 203 723 197 714 c 0
 189 702 185 688 185 669 c 0
 185 619 219 589 256 589 c 0
 299 589 336 635 343 672 c 0
 345 681 343 690 343 697 c 0
 343 703 343 710 343 714 c 0
 343 720 343 734 353 734 c 2
 354 734 l 2
 363 734 369 721 371 714 c 0
 373 706 375 693 375 679 c 0xe5
EndSplineSet
Validated: 19457
LCarets2: 1 0
Ligature2: "Cyrillic Canonical Equivalents" uni0438 uni0306
Colour: ff00
EndChar

StartChar: uni043A
Encoding: 1082 1082 109
Width: 517
GlyphClass: 2
Flags: W
HStem: -3 21G<95.5 127.5 406.5 424.5> 349 96<362.803 422.533>
VStem: 61 109<0.6875 355.449> 70 104<227 433.415> 357 106<-1.7688 92.8816>
AnchorPoint: "below" 260 -200 basechar 0
AnchorPoint: "left" 110.778 535.8 basechar 0
AnchorPoint: "right" 413 536.2 basechar 0
AnchorPoint: "HalfMark" 254.5 538.7 basechar 0
AnchorPoint: "DoubleTitlo" 516 539 basechar 0
AnchorPoint: "Yerok" 350 539 basechar 0
AnchorPoint: "Diacritic" 255 538.7 basechar 0
AnchorPoint: "Numeral" 247 233 basechar 0
LayerCount: 2
Fore
SplineSet
61 36 m 2xe8
 63 81 l 2
 66 175 68 273 70 364 c 0
 71 392 71 416 72 429 c 1
 100 436 129 440 162 440 c 0
 167 440 173 440 178 440 c 1
 178 396 176 343 174 296 c 2xd8
 170 204 l 2
 168 150 165 94 162 44 c 2
 158 0 l 1
 150 -1 131 -3 124 -3 c 2
 105 -3 l 2
 86 -3 78 -1 59 -0 c 1
 59 -0 60 9 61 36 c 2xe8
275 215 m 0
 303 212 363 208 382 195 c 1
 420 146 457 80 463 -0 c 1
 449 -2 433 -3 416 -3 c 0
 397 -3 377 -2 357 -0 c 1
 348 80 323 137 276 184 c 1
 271 185 272 185 265 186 c 0
 248 189 226 202 226 222 c 0
 226 225 226 228 227 233 c 1
 252 295 288 348 328 392 c 0
 335 400 345 410 354 417 c 0
 375 434 417 445 451 445 c 0
 454 445 457 445 460 445 c 1
 464 442 466 439 465 436 c 1
 446 419 429 393 429 357 c 0
 429 349 430 340 432 331 c 1
 431 327 428 325 424 326 c 1
 409 337 373 349 347 349 c 0
 335 349 325 347 320 341 c 0
 294 313 267 274 257 233 c 1
 256 219 262 216 275 215 c 0
EndSplineSet
Validated: 19457
Position2: "Numeral Kerning-1" dx=250 dy=0 dh=0 dv=0
Colour: ff00
EndChar

StartChar: uni043B
Encoding: 1083 1083 110
Width: 450
GlyphClass: 2
Flags: W
HStem: -3 21G<82 101 338.5 358> 421 20G<234 250.5>
VStem: 43 99<-2.50933 77.125> 237 101<290.681 434.068> 295 104<0 104>
DStem2: 60 70 214 246 0.579524 0.814955<129.666 287.329>
AnchorPoint: "below" 207 -200 basechar 0
AnchorPoint: "left" 66.7778 535.8 basechar 0
AnchorPoint: "right" 369 536.2 basechar 0
AnchorPoint: "HalfMark" 275.5 538.7 basechar 0
AnchorPoint: "DoubleTitlo" 450 538 basechar 0
AnchorPoint: "Yerok" 275 538 basechar 0
AnchorPoint: "Diacritic" 283 537.7 basechar 0
AnchorPoint: "Numeral" 246 202 basechar 0
LayerCount: 2
Fore
SplineSet
237 373 m 0xf0
 237 395 235 413 233 441 c 1
 268 440 308 439 338 433 c 1xf0
 342 342 347 291 363 180 c 0
 370 130 390 36 399 -0 c 1
 384 -2 367 -3 349 -3 c 0
 328 -3 310 -2 295 -0 c 1xe8
 273 76 262 168 250 255 c 0
 249 267 247 279 246 291 c 1
 214 246 l 2
 181 198 142 127 142 44 c 0
 142 28 145 14 148 0 c 1
 133 -3 110 -3 92 -3 c 0
 91 -3 91 -3 90 -3 c 0
 74 -3 58 -3 46 0 c 1
 44 6 43 12 43 18 c 0
 43 35 50 53 60 70 c 0
 95 134 143 190 185 248 c 2
 210 282 l 1
 226 309 237 330 237 373 c 0xf0
EndSplineSet
Validated: 19457
Position2: "Numeral Kerning-1" dx=250 dy=0 dh=0 dv=0
Colour: ff00
EndChar

StartChar: uni043C
Encoding: 1084 1084 111
Width: 701
GlyphClass: 2
Flags: W
HStem: -3 21G<99 119 336 354.5 595 612> 421 20G<231 249 508 525.5>
VStem: 45 98<0.120831 99.5927> 214 111<365.265 437.662> 286 111<0 64.9226> 492 103<348.462 437.093>
DStem2: 352 226 229 313 0.195282 -0.980747<-109.345 105.118 120.044 207.7>
AnchorPoint: "below" 339 -200 basechar 0
AnchorPoint: "left" 250.778 537.8 basechar 0
AnchorPoint: "right" 553 538.2 basechar 0
AnchorPoint: "HalfMark" 399.5 538.7 basechar 0
AnchorPoint: "DoubleTitlo" 699 539 basechar 0
AnchorPoint: "Yerok" 500 539 basechar 0
AnchorPoint: "Diacritic" 399 538.7 basechar 0
AnchorPoint: "Numeral" 375 200 basechar 0
LayerCount: 2
Fore
SplineSet
595 434 m 1xf4
 595 300 635 73 652 0 c 1
 636 -2 620 -3 604 -3 c 0
 586 -3 568 -2 549 0 c 1
 543 12 536 38 530 73 c 0
 518 141 506 242 497 332 c 1
 477 303 457 270 446 244 c 0
 418 178 398 126 385 66 c 1
 389 43 393 21 397 0 c 1
 380 -2 363 -3 346 -3 c 0
 326 -3 306 0 286 0 c 1xec
 286 23 283 49 278 78 c 0
 265 153 239 242 229 313 c 1
 217 296 205 274 193 251 c 0
 162 188 143 120 143 77 c 0
 143 51 146 39 152 20 c 0
 155 10 163 0 163 0 c 1
 149 -2 129 -3 109 -3 c 0
 89 -3 67 -2 50 0 c 1
 47 5 45 10 45 15 c 0
 45 50 58 85 77 120 c 0
 119 199 193 276 221 364 c 1
 218 391 214 417 214 440 c 1
 221 441 228 441 234 441 c 0
 264 441 293 441 325 434 c 1
 325 365 339 293 352 226 c 0
 359 189 366 155 373 123 c 1
 401 216 446 308 492 386 c 1
 492 405 488 423 488 440 c 1
 496 441 504 441 512 441 c 0
 539 441 571 438 595 434 c 1xf4
EndSplineSet
Validated: 19457
Position2: "Numeral Kerning-1" dx=250 dy=0 dh=0 dv=0
Colour: ff00
EndChar

StartChar: uni043D
Encoding: 1085 1085 112
Width: 497
GlyphClass: 2
Flags: W
HStem: -4 22G<107 126.5 385 402.5> 421 20G<158 174.5 397 414>
VStem: 62 106<-2.22454 270.673> 95 95<303.161 436.303> 313 131<25.6157 173.389>
AnchorPoint: "below" 247 -200 basechar 0
AnchorPoint: "left" 103.778 537.8 basechar 0
AnchorPoint: "right" 406 538.2 basechar 0
AnchorPoint: "HalfMark" 267.5 538.7 basechar 0
AnchorPoint: "DoubleTitlo" 496 539 basechar 0
AnchorPoint: "Yerok" 325 539 basechar 0
AnchorPoint: "Diacritic" 268 538.7 basechar 0
AnchorPoint: "Numeral" 263 209 basechar 0
LayerCount: 2
Fore
SplineSet
190 440 m 1xd8
 184 399 180 347 178 301 c 1
 194 298 303 271 310 269 c 1
 310 269 313 328 316 356 c 0
 320 384 325 407 333 429 c 1
 353 435 383 441 411 441 c 0
 417 441 422 440 427 440 c 1
 421 393 418 341 418 289 c 0
 418 186 429 80 444 0 c 1
 429 -2 412 -3 393 -3 c 0
 377 -3 361 -2 344 0 c 1
 326 39 317 117 313 168 c 0
 311 192 310 217 310 242 c 1
 286 253 211 270 176 275 c 1
 169 182 168 134 168 44 c 2
 168 0 l 1
 150 -3 136 -4 117 -4 c 0
 97 -4 81 -2 63 0 c 1
 62 8 62 16 62 26 c 2
 62 54 l 2xe8
 62 161 69 284 82 376 c 0
 86 404 92 424 95 432 c 1
 115 437 145 441 171 441 c 0
 178 441 184 441 190 440 c 1xd8
EndSplineSet
Validated: 19457
Position2: "Numeral Kerning-1" dx=250 dy=0 dh=0 dv=0
Colour: ff00
EndChar

StartChar: uni043E
Encoding: 1086 1086 113
Width: 480
GlyphClass: 2
Flags: W
HStem: -12 62<233.564 265.772> 387 60<187.5 284.5>
VStem: 45 75<177 308.406> 357 78<110 251.5>
AnchorPoint: "below" 259 -200 basechar 0
AnchorPoint: "left" 87.7778 538.8 basechar 0
AnchorPoint: "right" 390 539.2 basechar 0
AnchorPoint: "HalfMark" 259.5 538.7 basechar 0
AnchorPoint: "DoubleTitlo" 481 538 basechar 0
AnchorPoint: "Yerok" 300 539 basechar 0
AnchorPoint: "Numeral" 243 219 basechar 0
AnchorPoint: "Diacritic" 259 539 basechar 0
LayerCount: 2
Fore
SplineSet
193 -12 m 0
 192 -12 192 -12 191 -12 c 0
 190 -12 189 -12 188 -12 c 0
 187 -12 187 -12 186 -12 c 0
 185 -12 185 -12 184 -12 c 0
 148 4 129 23 104 55 c 0
 65 105 45 145 45 209 c 0
 45 295 83 362 162 403 c 0
 210 428 245 439 278 446 c 0
 280 447 282 447 284 447 c 0
 285 447 286 447 288 446 c 0
 314 433 354 407 380 369 c 0
 415 319 435 285 435 218 c 0
 435 145 394 80 329 41 c 0
 280 11 238 -1 193 -12 c 0
320 59 m 0
 347 73 357 96 357 124 c 0
 357 168 332 224 312 268 c 0
 287 323 245 387 193 387 c 0
 182 387 172 384 160 378 c 0
 131 363 120 335 120 302 c 0
 120 259 139 209 160 170 c 0
 191 111 234 50 286 50 c 0
 297 50 308 53 320 59 c 0
EndSplineSet
Validated: 19457
Position2: "Numeral Kerning-1" dx=250 dy=0 dh=0 dv=0
Colour: ff00
EndChar

StartChar: uni043F
Encoding: 1087 1087 114
Width: 510
GlyphClass: 2
Flags: W
HStem: -6 21G<120.5 137.5 390.5 407> 413 24<175.928 340>
VStem: 65 106<2.54095 410.866> 78 104<252.327 413> 334 105<1.90999 413> 345 104<0 104>
AnchorPoint: "left" 109.778 536.8 basechar 0
AnchorPoint: "right" 412 537.2 basechar 0
AnchorPoint: "HalfMark" 259.5 538.7 basechar 0
AnchorPoint: "DoubleTitlo" 510 536 basechar 0
AnchorPoint: "Yerok" 325 538 basechar 0
AnchorPoint: "Diacritic" 261 537.7 basechar 0
AnchorPoint: "Numeral" 259 217 basechar 0
LayerCount: 2
Fore
SplineSet
78 0 m 1xd0
 70 41 65 146 65 249 c 0
 65 320 68 389 73 437 c 1
 444 437 l 1
 444 382 439 300 439 220 c 0xe8
 439 128 441 40 449 0 c 1
 430 -4 415 -6 399 -6 c 0
 382 -6 365 -4 345 0 c 1xc4
 337 31 334 103 334 180 c 0
 334 268 340 363 340 413 c 1
 177 413 l 1
 173 376 171 313 171 243 c 0xe8
 171 159 174 66 182 0 c 1
 163 -3 146 -6 129 -6 c 0
 112 -6 96 -3 78 0 c 1xd0
EndSplineSet
Validated: 19457
Position2: "Numeral Kerning-1" dx=250 dy=0 dh=0 dv=0
Colour: ff00
EndChar

StartChar: uni0440
Encoding: 1088 1088 115
Width: 351
GlyphClass: 2
Flags: W
HStem: -12 89<145 191.208> 425 20G<257.5 275>
VStem: 60 64<78.3084 269.712> 87 69<-340.693 -44.6242> 233 58<114.552 321.068>
DStem2: 133 77 83 -196 0.100171 -0.99497<-119.202 0 88.5294 261.693>
AnchorPoint: "left" 47.7778 535.8 basechar 0
AnchorPoint: "right" 350 536.2 basechar 0
AnchorPoint: "HalfMark" 175.5 537.7 basechar 0
AnchorPoint: "DoubleTitlo" 351 538 basechar 0
AnchorPoint: "Yerok" 175 538 basechar 0
AnchorPoint: "Diacritic" 181 538.7 basechar 0
AnchorPoint: "Numeral" 182 180 basechar 0
LayerCount: 2
Fore
SplineSet
133 77 m 1xe8
 188 90 233 110 233 177 c 0
 233 199 230 223 226 242 c 2
 217 281 l 2
 215 295 215 312 214 323 c 1
 172 316 144 276 132 239 c 0
 127 225 124 211 124 198 c 0
 124 153 129 119 133 77 c 1xe8
277 382 m 0
 277 296 291 223 291 145 c 0
 291 100 278 48 248 22 c 0
 229 4 179 -7 145 -12 c 1
 153 -84 156 -116 156 -187 c 0xd8
 156 -262 146 -315 124 -369 c 0xe8
 115 -390 90 -416 69 -422 c 0
 68 -422 67 -422 66 -422 c 0
 61 -422 58 -419 58 -416 c 0
 58 -415 58 -414 59 -413 c 0
 75 -381 87 -353 87 -307 c 0xd8
 87 -272 86 -231 83 -196 c 0
 73 -99 60 39 60 136 c 0
 60 267 102 367 184 417 c 0
 210 432 242 445 273 445 c 0
 277 445 280 441 280 435 c 0
 280 422 277 397 277 382 c 0
EndSplineSet
Validated: 19457
AlternateSubs2: "'salt' Stylistic Alternatives-1" uni0440.trunc
Position2: "Numeral Kerning-1" dx=250 dy=0 dh=0 dv=0
Colour: ff00
EndChar

StartChar: uni0441
Encoding: 1089 1089 116
Width: 318
GlyphClass: 2
Flags: W
HStem: -6 21G<82 137.5> 349 98<185.223 255.546>
VStem: 65 94<99.4848 322.117> 82 74<98 272.166>
AnchorPoint: "left" 88.7778 535.8 basechar 0
AnchorPoint: "right" 284 536.2 basechar 0
AnchorPoint: "HalfMark" 160.5 538.7 basechar 0
AnchorPoint: "DoubleTitlo" 318 538 basechar 0
AnchorPoint: "Yerok" 150 538 basechar 0
AnchorPoint: "Diacritic" 153 537.7 basechar 0
AnchorPoint: "Numeral" 190 228 basechar 0
LayerCount: 2
Fore
SplineSet
256 140 m 4xd0
 256 48 182 -6 93 -6 c 4
 90 -6 86 -6 83 -6 c 4
 81 -6 78 -3 79 0 c 4
 81 9 82 19 82 31 c 4
 82 37 82 65 82 72 c 4xd0
 82 157 65 230 65 310 c 4
 65 398 156 447 239 447 c 4
 243 447 247 447 251 447 c 5
 256 428 258 413 258 387 c 4
 258 372 257 360 257 355 c 4
 257 352 250 349 247 349 c 4
 208 349 159 324 159 275 c 4xe0
 159 215 156 125 156 98 c 5
 197 98 226 145 241 163 c 4
 242 164 243 164 244 164 c 4
 250 164 256 148 256 140 c 4xd0
EndSplineSet
Validated: 19457
Position2: "Numeral Kerning-1" dx=250 dy=0 dh=0 dv=0
Colour: ff00
EndChar

StartChar: uni0442
Encoding: 1090 1090 117
Width: 659
GlyphClass: 2
Flags: W
HStem: -4 21G<341 359> 413 24<22.0015 71 178 297 401 504>
VStem: 73 103<190.494 413> 293 105<-1.98126 413> 512 56<318.729 368.247>
AnchorPoint: "left" 122.778 535.8 basechar 0
AnchorPoint: "right" 559 536.2 basechar 0
AnchorPoint: "HalfMark" 341.5 538.7 basechar 0
AnchorPoint: "DoubleTitlo" 661 538 basechar 0
AnchorPoint: "Yerok" 475 538 basechar 0
AnchorPoint: "Diacritic" 342 537.7 basechar 0
AnchorPoint: "Numeral" 350 225 basechar 0
LayerCount: 2
Fore
SplineSet
400 0 m 1
 383 -2 368 -4 350 -4 c 0
 332 -4 314 -2 297 0 c 1
 293 42 293 169 293 233 c 0
 293 292 294 363 297 413 c 1
 178 413 l 1
 178 401 178 385 177 365 c 2
 176 303 l 2
 176 268 175 223 173 193 c 1
 155 190 140 189 121 189 c 0
 103 189 88 191 71 193 c 1
 73 215 73 251 73 278 c 2
 73 321 l 2
 73 352 71 385 71 413 c 1
 30 413 l 2
 24 413 22 419 22 425 c 0
 22 430 24 437 30 437 c 2
 615 437 l 2
 622 437 625 433 625 428 c 0
 625 422 621 414 618 411 c 0
 590 383 574 335 568 286 c 0
 567 281 557 280 554 284 c 0
 534 310 522 347 512 382 c 2
 504 413 l 1
 401 413 l 1
 398 356 398 285 398 217 c 0
 398 197 398 178 398 159 c 0
 398 107 399 48 400 0 c 1
EndSplineSet
Validated: 19457
Position2: "Numeral Kerning-1" dx=250 dy=0 dh=0 dv=0
Colour: ff00
EndChar

StartChar: uni0443
Encoding: 1091 1091 118
Width: 546
GlyphClass: 2
Flags: W
HStem: -9 21G<145 163> 4 25<259.811 281> 326 119<391.8 494.732>
VStem: 281 60<-328.468 4 28 225.512>
AnchorPoint: "left" 80.7778 535.8 basechar 0
AnchorPoint: "right" 455 536.2 basechar 0
AnchorPoint: "HalfMark" 259.5 538.7 basechar 0
AnchorPoint: "DoubleTitlo" 545 539 basechar 0
AnchorPoint: "Yerok" 375 538 basechar 0
AnchorPoint: "Numeral" 272 202 basechar 0
AnchorPoint: "Diacritic" 259 539 basechar 0
LayerCount: 2
Fore
SplineSet
460 445 m 0x70
 479 445 520 444 520 433 c 0
 520 432 519 431 518 429 c 0
 505 414 495 385 495 356 c 0
 495 347 496 339 498 329 c 0
 498 327 495 323 492 323 c 0
 481 323 466 326 451 326 c 0
 434 326 415 325 403 316 c 0
 352 279 343 116 342 4 c 0
 341 -28 341 -52 341 -74 c 0
 341 -84 341 -93 341 -103 c 0
 341 -158 339 -263 334 -312 c 0
 329 -349 322 -373 309 -404 c 0
 299 -427 288 -448 266 -458 c 0
 263 -459 257 -460 254 -460 c 0
 249 -460 244 -458 244 -454 c 0
 244 -451 246 -447 250 -442 c 0
 263 -424 266 -403 270 -375 c 0
 276 -336 281 -264 281 -211 c 2
 281 4 l 1
 280 4 278 4 277 4 c 0x70
 260 4 238 2 218 0 c 0
 195 -2 174 -4 152 -9 c 1xb0
 138 59 113 189 77 307 c 0
 64 349 50 389 34 424 c 0
 33 425 32 430 32 431 c 0
 32 439 50 440 66 440 c 0
 71 440 76 440 80 440 c 0
 84 440 88 440 92 440 c 0
 113 440 134 440 152 437 c 1
 187 349 253 87 261 29 c 1
 269 29 276 28 284 28 c 1
 284 145 307 293 346 373 c 0
 370 423 404 445 460 445 c 0x70
EndSplineSet
Validated: 19457
AlternateSubs2: "'salt' Stylistic Alternatives-1" uni0443.alt
Position2: "Numeral Kerning-1" dx=250 dy=0 dh=0 dv=0
Colour: ff00
EndChar

StartChar: uni0444
Encoding: 1092 1092 119
Width: 712
GlyphClass: 2
Flags: W
HStem: -223 22<249.002 309 408 459.896> -11 52<138.5 275.065 450.352 571> 546 22<264.003 305 409 453.159> 557 20G<426 457.5>
VStem: 47 112<71.3839 191.853> 309 99<-198 30 405.485 546> 317 85<56.1367 393> 557 110<62.6607 193.357>
AnchorPoint: "right" 609 536.2 basechar 0
AnchorPoint: "left" 80.7778 535.8 basechar 0
AnchorPoint: "HalfMark" 350.5 538.7 basechar 0
AnchorPoint: "DoubleTitlo" 712 627 basechar 0
AnchorPoint: "Yerok" 500 538 basechar 0
AnchorPoint: "Diacritic" 352 625.7 basechar 0
AnchorPoint: "Numeral" 362 198 basechar 0
LayerCount: 2
Fore
SplineSet
275 568 m 0xed
 332 568 400 571 452 577 c 0
 453 577 453 577 454 577 c 0xdd
 461 577 464 572 464 566 c 0
 464 561 461 556 454 555 c 0
 436 553 422 551 409 551 c 1
 409 423 l 1
 439 377 481 340 516 315 c 0
 583 267 667 210 667 121 c 0
 667 89 658 62 643 42 c 0
 620 10 585 -7 557 -7 c 0
 505 -7 451 5 408 30 c 1
 408 -198 l 1
 418 -198 437 -196 449 -196 c 2
 450 -196 l 2
 457 -196 461 -202 461 -207 c 0
 461 -212 458 -218 451 -218 c 0
 388 -218 323 -220 260 -223 c 0
 259 -223 l 0
 252 -223 249 -218 249 -212 c 0
 249 -206 252 -201 260 -201 c 2
 309 -201 l 1
 309 33 l 1
 272 3 232 -11 179 -11 c 0
 98 -11 47 39 47 121 c 0
 47 210 137 264 206 311 c 0
 245 338 282 381 305 444 c 1
 305 546 l 1
 294 546 284 546 275 546 c 0xed
 268 546 264 552 264 557 c 0xdd
 264 562 268 568 275 568 c 0xed
254 41 m 0
 276 41 301 56 317 76 c 1
 317 152 317 333 317 397 c 1xcb
 292 354 256 305 227 267 c 0
 191 220 159 195 159 140 c 0
 159 83 187 41 254 41 c 0
486 272 m 0
 462 307 427 354 400 393 c 1
 400 340 402 131 402 65 c 1
 425 48 456 36 480 36 c 0
 529 36 557 82 557 123 c 0
 557 174 517 225 486 272 c 0
EndSplineSet
Validated: 19457
AlternateSubs2: "'salt' Stylistic Alternatives-1" uni0444.trunc1 uni0444.trunc2
Position2: "Numeral Kerning-1" dx=250 dy=0 dh=0 dv=0
Colour: ff00
EndChar

StartChar: uni0445
Encoding: 1093 1093 120
Width: 475
GlyphClass: 2
Flags: W
HStem: 343 102<315.273 429.5> 417 20G<58 116.5>
VStem: 327 104<-362.381 -303.924>
DStem2: 167 430 57 428 0.32414 -0.946009<-13.3112 174.567 188.964 320.618 340.021 809.172> 224 265 237 225 0.36436 0.931258<0 91.1443>
AnchorPoint: "right" 391 536.2 basechar 0
AnchorPoint: "left" 80.7778 535.8 basechar 0
AnchorPoint: "HalfMark" 227.5 537.7 basechar 0
AnchorPoint: "DoubleTitlo" 475 538 basechar 0
AnchorPoint: "Yerok" 300 538 basechar 0
AnchorPoint: "Diacritic" 226 537.7 basechar 0
AnchorPoint: "Numeral" 222 134 basechar 0
LayerCount: 2
Fore
SplineSet
0 -443 m 0xa0
 -17 -443 -25 -432 -25 -418 c 0
 -25 -407 -21 -393 -15 -383 c 0
 -1 -357 22 -310 38 -264 c 0
 65 -187 120 -11 163 117 c 1
 125 228 88 339 57 428 c 0
 56 432 56 437 60 437 c 0
 72 437 87 437 103 437 c 0
 130 437 157 436 167 430 c 1
 181 388 202 329 224 265 c 1
 231 283 238 301 246 320 c 0
 272 387 299 428 337 437 c 0x60
 360 443 389 440 421 444 c 1
 421 444 425 445 427 445 c 0xa0
 432 445 436 441 436 437 c 0x60
 436 434 434 427 433 425 c 0
 424 403 416 381 416 353 c 0
 416 339 417 324 422 308 c 0
 425 299 408 304 403 308 c 0
 379 330 342 343 321 343 c 0
 301 343 278 328 269 309 c 0
 258 286 248 257 237 225 c 1
 308 16 397 -248 431 -348 c 1
 431 -350 l 2
 431 -364 399 -364 382 -364 c 0
 363 -364 342 -362 327 -360 c 1
 296 -276 238 -103 177 74 c 1
 148 -32 114 -165 95 -237 c 1
 77 -301 68 -347 48 -402 c 0
 40 -424 20 -443 0 -443 c 0xa0
EndSplineSet
Validated: 19457
AlternateSubs2: "'salt' Stylistic Alternatives-1" uni0445.trunc3 uni0445.trunc1 uni0445.trunc2
Position2: "Numeral Kerning-1" dx=250 dy=0 dh=0 dv=0
Colour: ff00
EndChar

StartChar: uni0446
Encoding: 1094 1094 121
Width: 549
GlyphClass: 2
Flags: W
HStem: 0 24<184.55 334 444.26 451.906> 422 19G<167 180 417 447>
VStem: 66 106<25.8259 429.953> 325 105<25.201 429.847> 443 48<-395.634 -216.14> 459 76<-212.038 -1.07742>
AnchorPoint: "right" 455 536.2 basechar 0
AnchorPoint: "left" 80.7778 535.8 basechar 0
AnchorPoint: "HalfMark" 268.5 537.7 basechar 0
AnchorPoint: "DoubleTitlo" 548 539 basechar 0
AnchorPoint: "Yerok" 375 538 basechar 0
AnchorPoint: "Diacritic" 270 538.7 basechar 0
AnchorPoint: "Numeral" 264 240 basechar 0
LayerCount: 2
Fore
SplineSet
78 0 m 1xf4
 72 59 66 134 66 220 c 0
 66 303 71 389 77 432 c 1
 103 439 154 442 180 442 c 1
 180 401 172 331 172 257 c 2
 172 216 l 2
 172 139 178 61 187 24 c 1
 334 24 l 1
 329 49 325 114 325 174 c 0
 325 177 325 181 325 184 c 0
 325 282 333 387 342 432 c 1
 367 437 402 441 432 441 c 0
 437 441 442 441 447 441 c 1
 440 383 430 285 430 187 c 0
 430 183 430 178 430 174 c 0
 430 114 440 48 447 24 c 1
 519 24 l 1
 524 13 535 -37 535 -72 c 0
 535 -76 535 -80 535 -83 c 0xf4
 535 -157 516 -195 502 -256 c 0
 493 -298 491 -337 491 -371 c 0
 491 -380 491 -389 491 -398 c 0
 491 -403 486 -406 481 -406 c 0
 476 -406 471 -404 468 -400 c 0
 450 -378 443 -335 443 -290 c 0
 443 -281 443 -271 443 -262 c 0xf8
 443 -200 459 -151 459 -82 c 0
 459 -79 459 -76 459 -72 c 0
 459 -45 455 -23 449 0 c 1
 78 0 l 1xf4
EndSplineSet
Validated: 19457
AlternateSubs2: "'salt' Stylistic Alternatives-1" uni0446.trunc
Position2: "Numeral Kerning-1" dx=250 dy=0 dh=0 dv=0
Colour: ff00
EndChar

StartChar: uni0447
Encoding: 1095 1095 122
Width: 452
GlyphClass: 2
Flags: W
HStem: -2 21G<306.5 369> 252 189<131.424 254> 252 25<221.995 278>
VStem: 49 103<333.716 435.85> 277 103<2.56174 253 277 433.157> 283 105<-1.86691 210.977>
AnchorPoint: "right" 355 536.2 basechar 0
AnchorPoint: "left" 80.7778 535.8 basechar 0
AnchorPoint: "HalfMark" 238.5 538.7 basechar 0
AnchorPoint: "DoubleTitlo" 452 539 basechar 0
AnchorPoint: "Yerok" 275 538 basechar 0
AnchorPoint: "Diacritic" 221 537.7 basechar 0
AnchorPoint: "Numeral" 224 231 basechar 0
LayerCount: 2
Fore
SplineSet
278 277 m 1xb8
 280 337 287 396 296 435 c 1
 324 439 361 440 392 440 c 1
 386 385 380 273 380 214 c 0xb8
 380 150 383 54 388 0 c 1
 381 -1 373 -2 365 -2 c 0
 347 -2 329 -2 311 -2 c 0
 302 -2 292 -1 283 0 c 1xb4
 280 43 277 132 277 184 c 0
 277 223 278 253 278 253 c 1
 272 253 264 252 254 252 c 0
 231 252 202 254 193 255 c 0
 107 268 52 316 49 406 c 0
 49 414 50 423 52 433 c 1
 68 436 107 441 133 441 c 0xd8
 140 441 147 441 153 440 c 1
 153 431 152 425 152 416 c 0
 152 347 181 312 224 288 c 0
 236 281 264 278 278 277 c 1xb8
EndSplineSet
Validated: 19457
Position2: "Numeral Kerning-1" dx=250 dy=0 dh=0 dv=0
Colour: ff00
EndChar

StartChar: uni0448
Encoding: 1096 1096 123
Width: 860
GlyphClass: 2
Flags: W
HStem: -0 24<185.432 380 491.581 689> 421 20G<158 195 478.5 492 788 789>
VStem: 71 106<26.1226 431.637> 372 112<26.6323 428.036> 678 106<26.7816 428.604>
AnchorPoint: "right" 747 536.2 basechar 0
AnchorPoint: "left" 134.778 535.8 basechar 0
AnchorPoint: "HalfMark" 435.5 538.7 basechar 0
AnchorPoint: "DoubleTitlo" 859.5 538 basechar 0
AnchorPoint: "Yerok" 675 538 basechar 0
AnchorPoint: "Diacritic" 437 538.7 basechar 0
LayerCount: 2
Fore
SplineSet
496 441 m 1
 488 382 484 310 484 219 c 0
 484 195 l 2
 484 133 485 75 493 24 c 1
 689 24 l 1
 684 83 679 164 678 233 c 1
 678 263 l 2
 678 321 681 380 684 431 c 1
 697 435 716 438 734 438 c 2
 765 439 l 2
 775 440 784 440 792 440 c 1
 786 387 784 327 784 265 c 0
 784 173 789 77 796 -0 c 1
 79 0 l 1
 75 61 71 127 71 196 c 0
 71 273 74 368 83 432 c 1
 104 439 143 441 173 441 c 0
 181 441 188 441 195 441 c 1
 183 370 177 283 177 199 c 0
 177 141 180 71 187 24 c 1
 380 24 l 1
 375 80 372 146 372 212 c 0
 372 290 376 368 385 431 c 1
 413 439 461 441 496 441 c 1
EndSplineSet
Validated: 19457
Colour: ff00
EndChar

StartChar: uni0449
Encoding: 1097 1097 124
Width: 806
GlyphClass: 2
Flags: W
HStem: -0 24<190.656 356 469 631> 422 20G<167 180.5 435 452.5 712.5 740>
VStem: 70 105<25.388 432.179> 79 106<228.517 432.557> 347 109<27.2095 430.753> 358 111<-112.234 0 24 216.727 223.472 243.301 250.321 435.451> 416 60<-320.279 -108> 624 105<25.1797 431.941>
AnchorPoint: "right" 695 536.2 basechar 0
AnchorPoint: "left" 134.778 535.8 basechar 0
AnchorPoint: "HalfMark" 414.5 537.7 basechar 0
AnchorPoint: "DoubleTitlo" 808 539 basechar 0
AnchorPoint: "Yerok" 625 538 basechar 0
AnchorPoint: "Diacritic" 416 538.7 basechar 0
LayerCount: 2
Fore
SplineSet
469 -0 m 1xc5
 474 -40 476 -89 476 -127 c 0
 476 -207 463 -291 448 -345 c 0
 443 -366 436 -383 429 -396 c 0
 427 -401 422 -403 417 -403 c 0
 412 -403 407 -400 407 -394 c 0
 407 -372 416 -333 416 -307 c 0xc3
 416 -269 410 -217 397 -172 c 1
 386 -147 358 -21 358 -2 c 0
 358 -0 l 1
 81 -0 l 1
 74 27 70 182 70 225 c 0xe5
 70 285 74 344 79 397 c 0
 80 412 82 423 83 432 c 1
 113 438 149 442 185 442 c 1xd1
 176 377 175 300 175 225 c 0
 175 154 180 82 193 24 c 1
 356 24 l 1
 350 91 347 150 347 220 c 0
 347 294 354 373 362 432 c 1
 385 437 420 442 450 442 c 0
 455 442 461 441 467 441 c 1
 460 379 456 318 456 247 c 0xe9
 456 168 457 94 465 24 c 1
 631 24 l 1
 626 92 l 2
 625 117 624 143 624 170 c 0
 624 241 629 312 631 344 c 0
 634 381 639 411 644 433 c 1
 667 438 698 441 727 441 c 0
 731 441 736 441 740 441 c 1
 732 377 729 304 729 229 c 0
 729 148 734 65 738 -0 c 1
 469 -0 l 1xc5
EndSplineSet
Validated: 19457
AlternateSubs2: "'salt' Stylistic Alternatives-1" uni0449.trunc
Colour: ff00
EndChar

StartChar: uni044A
Encoding: 1098 1098 125
Width: 468
GlyphClass: 2
Flags: W
HStem: 0 24<190.999 305> 254 183<68 161.891> 413 24<163.012 298>
VStem: 68 94<255.127 412.107> 305 110<24 131.414>
DStem2: 74 28 261 168 0.496251 0.868179<65.3941 214.344 246.097 439.332>
AnchorPoint: "right" 371 536.2 basechar 0
AnchorPoint: "left" 80.7778 535.8 basechar 0
AnchorPoint: "HalfMark" 242.5 538.7 basechar 0
AnchorPoint: "DoubleTitlo" 469 539 basechar 0
AnchorPoint: "Yerok" 325 539 basechar 0
AnchorPoint: "Diacritic" 242 538.7 basechar 0
LayerCount: 2
Fore
SplineSet
68 258 m 1xd8
 67 264 67 271 67 279 c 0
 67 296 68 318 68 340 c 0
 68 373 68 409 68 437 c 1xd8
 405 437 l 2
 413 437 413 428 410 424 c 0
 380 378 325 283 276 196 c 1
 279 197 294 199 297 200 c 0
 322 205 324 205 360 209 c 0
 365 210 370 205 372 200 c 0
 387 155 415 68 415 0 c 1
 68 0 l 1
 67 8 71 23 74 28 c 0
 127 131 241 324 298 406 c 1
 298 413 l 1
 164 413 l 1xb8
 162 394 162 372 162 348 c 0
 162 316 164 282 164 258 c 1
 149 255 134 254 118 254 c 0
 102 254 83 255 68 258 c 1xd8
305 24 m 1
 305 72 291 134 280 168 c 1
 261 168 l 1
 229 110 202 59 191 35 c 1
 191 29 190 30 191 24 c 1
 305 24 l 1
EndSplineSet
Validated: 19457
Colour: ff00
EndChar

StartChar: uni044B
Encoding: 1099 1099 126
Width: 667
GlyphClass: 2
Flags: W
HStem: 0 24<166 302> 422 18G<190.5 204.5 488 524.5>
VStem: 61 105<24 180.077> 91 121<310.429 429.64> 488 103<165.415 436.338> 510 107<-1.7688 239.085>
AnchorPoint: "Numeral" 315 224.5 basechar 0
AnchorPoint: "right" 549 536.2 basechar 0
AnchorPoint: "left" 174.778 535.8 basechar 0
AnchorPoint: "HalfMark" 335.5 538.7 basechar 0
AnchorPoint: "DoubleTitlo" 667 539 basechar 0
AnchorPoint: "Yerok" 500 538 basechar 0
AnchorPoint: "Diacritic" 336 539 basechar 0
LayerCount: 2
Fore
SplineSet
61 0 m 1xe0
 61 127 71 260 84 375 c 0
 86 397 88 415 91 428 c 1
 125 437 169 442 212 442 c 1xd0
 197 375 188 297 181 222 c 1
 227 240 273 259 319 278 c 0
 325 281 329 273 331 270 c 0
 364 205 393 134 414 58 c 0
 419 37 423 17 425 0 c 1
 61 0 l 1xe0
510 440 m 0xc4
 539 440 568 438 591 432 c 1xc8
 591 318 596 181 606 76 c 0
 609 41 613 16 617 -0 c 1
 598 -2 581 -3 566 -3 c 0
 549 -3 530 -2 510 -0 c 1xc4
 506 11 503 31 500 58 c 0
 491 157 488 278 488 386 c 2
 488 440 l 1xc8
 495 440 502 440 510 440 c 0xc4
302 24 m 1
 294 98 263 165 231 215 c 1
 218 212 206 205 202 202 c 0
 192 194 178 174 174 148 c 0
 170 106 166 65 166 24 c 1xe0
 302 24 l 1
EndSplineSet
Position2: "Numeral Kerning-1" dx=250 dy=0 dh=0 dv=0
Colour: ff00
EndChar

StartChar: uni044C
Encoding: 1100 1100 127
Width: 440
GlyphClass: 2
Flags: W
HStem: 0 24<172 283> 190 26<178 218.995> 422 20G<170.5 199>
VStem: 68 104<24 190 216 284.862>
AnchorPoint: "right" 363 536.2 basechar 0
AnchorPoint: "left" 80.7778 535.8 basechar 0
AnchorPoint: "HalfMark" 238.5 538.7 basechar 0
AnchorPoint: "DoubleTitlo" 440 539 basechar 0
AnchorPoint: "Yerok" 275 539 basechar 0
AnchorPoint: "Diacritic" 155 537.7 basechar 0
LayerCount: 2
Fore
SplineSet
68 0 m 1
 68 5 68 11 68 16 c 0
 68 137 77 341 92 430 c 1
 123 437 152 442 189 442 c 0
 192 442 195 442 199 442 c 1
 191 408 178 274 178 216 c 1
 190 216 203 216 219 218 c 0
 281 225 290 237 300 237 c 0
 304 237 311 231 314 227 c 0
 352 165 382 81 398 0 c 1
 68 0 l 1
283 24 m 1
 270 81 241 154 211 192 c 1
 200 192 188 190 176 190 c 1
 174 161 172 98 172 53 c 2
 172 24 l 1
 283 24 l 1
EndSplineSet
Validated: 19457
Colour: ff00
EndChar

StartChar: uni044D
Encoding: 1101 1101 128
Width: 604
GlyphClass: 2
Flags: W
HStem: 309 21<236 239.952> 343 20<81.5415 103.8> 377 66<252.437 360.744>
VStem: 463 104<25.8855 222.392>
DStem2: 232 208 329 113 0.828927 -0.559357<103.358 271.8>
AnchorPoint: "right" 523 536.2 basechar 0
AnchorPoint: "left" 148.778 535.8 basechar 0
AnchorPoint: "HalfMark" 319.5 538.7 basechar 0
AnchorPoint: "DoubleTitlo" 603 539 basechar 0
AnchorPoint: "Yerok" 400 538 basechar 0
AnchorPoint: "Diacritic" 259 539 basechar 0
LayerCount: 2
Fore
SplineSet
458 57 m 1
 462 75 463 94 463 115 c 0
 463 216 447 283 402 343 c 1
 379 359 358 377 323 377 c 0
 280 377 246 364 236 330 c 1
 247 328 246 319 240 311 c 0
 239 309 237 308 235 309 c 2
 204 317 l 2
 166 327 123 334 84 343 c 0
 75 345 82 363 89 363 c 2
 97 362 l 1
 131 393 l 2
 166 424 210 443 277 443 c 0
 308 443 336 435 363 420 c 0
 433 379 501 315 535 246 c 0
 556 203 567 159 567 115 c 0
 567 33 543 -44 515 -103 c 0
 487 -163 446 -226 395 -257 c 1
 316 -257 252 -225 205 -190 c 0
 188 -177 172 -165 161 -151 c 0
 160 -150 160 -149 160 -147 c 0
 160 -141 169 -131 177 -131 c 0
 179 -131 181 -132 182 -133 c 2
 200 -149 l 2
 222 -169 249 -193 280 -204 c 1
 299 -203 310 -201 328 -184 c 2
 338 -174 l 1
 386 -118 432 -51 452 30 c 1
 424 49 395 68 367 87 c 2
 329 113 l 2
 318 120 309 126 303 129 c 1
 283 119 274 114 261 97 c 0
 239 70 225 46 193 25 c 1
 186 25 179 24 173 24 c 0
 138 24 107 29 71 29 c 0
 68 29 64 29 61 29 c 0
 58 29 57 31 57 33 c 0
 57 37 60 42 61 43 c 0
 97 76 133 120 162 161 c 0
 173 176 182 190 188 203 c 0
 192 211 201 214 210 214 c 0
 218 214 226 212 232 208 c 0
 308 158 383 108 458 57 c 1
EndSplineSet
Validated: 19457
Colour: ff00ff
EndChar

StartChar: uni044E
Encoding: 1102 1102 129
Width: 551
GlyphClass: 2
Flags: W
HStem: -6 109<378.236 435.84> 255 27<175 225.654> 326 117<376.985 434.028>
VStem: 68 106<-1.88599 260.563 282 346.626> 294 65<121.697 279.508> 453 53<116.464 308.83>
AnchorPoint: "right" 455 536.2 basechar 0
AnchorPoint: "left" 80.7778 535.8 basechar 0
AnchorPoint: "HalfMark" 255.5 538.7 basechar 0
AnchorPoint: "DoubleTitlo" 551 540 basechar 0
AnchorPoint: "Yerok" 350 539 basechar 0
AnchorPoint: "Diacritic" 330 539 basechar 0
LayerCount: 2
Fore
SplineSet
172 110 m 0
 172 72 172 32 174 -0 c 1
 156 -2 139 -3 123 -3 c 0
 104 -3 86 -2 69 -0 c 1
 68 9 68 20 68 33 c 2
 68 76 l 2
 68 171 70 284 77 372 c 0
 79 399 81 418 84 429 c 1
 112 437 140 440 167 440 c 0
 172 440 176 440 180 440 c 1
 178 397 176 336 175 282 c 1
 198 289 232 296 261 300 c 0
 279 302 296 306 309 315 c 1
 325 366 352 415 394 438 c 0
 399 440 404 443 409 443 c 0
 412 443 415 442 418 439 c 0
 457 405 484 346 498 286 c 0
 503 263 506 240 506 216 c 0
 506 133 476 56 434 14 c 0
 421 1 407 -6 394 -6 c 0
 382 -6 370 0 358 12 c 0
 319 52 294 126 294 204 c 0
 294 232 296 257 301 281 c 1
 257 276 213 266 174 255 c 1
 173 208 172 157 172 110 c 0
453 208 m 0
 453 249 446 292 427 315 c 0
 421 322 414 326 406 326 c 0
 367 326 359 251 359 212 c 0
 359 174 368 134 386 113 c 0
 391 106 398 103 406 103 c 0
 444 103 453 169 453 208 c 0
EndSplineSet
Validated: 19457
Colour: ff00
EndChar

StartChar: uni044F
Encoding: 1103 1103 130
Width: 455
GlyphClass: 2
Flags: W
HStem: -1 21G<97.5 117.5 355.5 374.5> 210 40<235.407 268.789> 400 42<164.226 288>
VStem: 45 89<274.497 373.663> 270 115<250.65 398.999> 310 110<2 112>
DStem2: 393 136 271 210 0.0957124 -0.995409<-85.3372 123.356>
LayerCount: 2
Fore
SplineSet
134 326 m 0xf8
 134 281 170 250 218 250 c 0
 228 250 244 250 270 252 c 1
 270 252 271 299 274 325 c 0
 280 370 285 389 288 400 c 1
 258 400 l 2
 201 400 134 389 134 326 c 0xf8
45 326 m 0
 45 394 116 444 198 444 c 1
 353 442 l 2
 357 442 360 442 364 442 c 0
 377 442 387 442 394 442 c 0
 397 442 399 442 401 442 c 1
 392 367 385 316 385 257 c 0xf8
 385 222 388 183 393 136 c 0
 402 68 419 7 420 2 c 1
 403 0 385 -1 364 -1 c 0
 347 -1 329 0 310 2 c 1xf4
 295 45 283 104 276 158 c 1
 271 210 l 1
 227 208 196 127 184 75 c 0
 179 54 174 30 171 4 c 1
 149 2 128 1 107 1 c 0
 88 1 55 4 55 4 c 1
 58 46 78 100 88 118 c 0
 105 149 121 171 144 199 c 1
 152 208 l 1
 83 223 45 256 45 326 c 0
EndSplineSet
Validated: 19457
Colour: ff00ff
EndChar

StartChar: uni0450
Encoding: 1104 1104 131
Width: 332
GlyphClass: 2
Flags: W
HStem: -2 78<150 200.345> 375 68<266.328 286.724>
VStem: 55 93<78.6133 159.816 236 336.466> 70 80<76 159.917>
LayerCount: 2
Fore
SplineSet
70 54 m 0xd0
 70 120 55 183 55 245 c 0
 55 294 60 343 83 370 c 0
 124 419 206 444 266 444 c 0
 273 444 280 444 286 443 c 1
 288 434 288 427 288 420 c 0
 288 403 288 377 271 375 c 0
 231 369 178 354 154 321 c 0
 149 314 148 304 148 294 c 2
 148 236 l 1xe0
 181 256 236 280 273 293 c 1
 274 284 275 271 275 258 c 0
 275 241 274 224 271 213 c 1
 234 200 181 171 150 145 c 1
 150 76 l 1
 194 76 233 98 255 120 c 0
 263 128 269 108 267 99 c 0
 260 62 242 43 209 24 c 0
 182 9 127 -2 92 -2 c 0
 88 -2 84 -2 80 -2 c 0
 78 -2 77 -2 75 -2 c 0
 70 -1 70 24 70 31 c 0
 70 38 70 46 70 54 c 0xd0
176 514 m 1
 21 737 l 2
 20 738 20 738 20 739 c 0
 20 741 22 741 24 741 c 0
 25 741 26 741 27 741 c 2
 97 741 l 1
 215 523 l 2
 216 522 216 521 216 520 c 0
 216 517 214 514 211 514 c 2
 176 514 l 1
EndSplineSet
Validated: 1
Ligature2: "Cyrillic Canonical Equivalents" uni0435 uni0300
LCarets2: 1 0
Colour: ff00ff
EndChar

StartChar: uni0451
Encoding: 1105 1105 132
Width: 330
GlyphClass: 2
Flags: W
HStem: -2 78<150 200.345> 375 68<266.328 286.724> 502 115<61.6705 132.663> 508 115<198.004 269.663>
VStem: 55 93<78.6133 159.816 236 336.466> 62 85<503.693 611.62> 70 80<76 159.917>
LayerCount: 2
Fore
SplineSet
183 619 m 1xd0
 199 622 216 623 232 623 c 0
 245 623 257 621 268 621 c 1
 277 597 284 539 284 514 c 1
 270 510 252 508 236 508 c 0
 223 508 211 509 199 512 c 1
 192 531 183 590 183 619 c 1xd0
46 613 m 1
 62 616 79 617 95 617 c 0xe4
 108 617 120 615 131 615 c 1
 140 591 147 533 147 508 c 1xd4
 133 504 115 502 99 502 c 0xe4
 86 502 74 505 62 508 c 1xd4
 55 527 46 584 46 613 c 1
70 54 m 0xc2
 70 120 55 183 55 245 c 0
 55 294 60 343 83 370 c 0
 124 419 206 444 266 444 c 0
 273 444 280 444 286 443 c 1
 288 434 288 427 288 420 c 0
 288 403 288 377 271 375 c 0
 231 369 178 354 154 321 c 0
 149 314 148 304 148 294 c 2
 148 236 l 1xc8
 181 256 236 280 273 293 c 1
 274 284 275 271 275 258 c 0
 275 241 274 224 271 213 c 1
 234 200 181 171 150 145 c 1
 150 76 l 1
 194 76 233 98 255 120 c 0
 263 128 269 108 267 99 c 0
 260 62 242 43 209 24 c 0
 182 9 127 -2 92 -2 c 0
 88 -2 84 -2 80 -2 c 0
 78 -2 77 -2 75 -2 c 0
 70 -1 70 24 70 31 c 0
 70 38 70 46 70 54 c 0xc2
EndSplineSet
Validated: 1
Ligature2: "Cyrillic Canonical Equivalents" uni0435 uni0308
LCarets2: 1 0
Colour: ff00ff
EndChar

StartChar: uni0452
Encoding: 1106 1106 133
Width: 657
GlyphClass: 2
Flags: W
HStem: -292 21G<381 401.5> -0 21G<265 371> 413 24<166.158 286 392 492>
VStem: 54 101<179.196 347.625> 265 106<0 161.286> 475 100<-116.22 133.313>
DStem2: 278 292 383 293 0.0710009 0.997476<-99.0328 121.263 152.728 469.439>
LayerCount: 2
Fore
SplineSet
54 182 m 1
 54 266 58 362 66 437 c 1
 288 437 l 1
 301 609 l 2
 305 664 309 712 313 754 c 1
 340 761 355 764 384 764 c 0
 393 764 403 764 414 763 c 1
 403 611 l 2
 399 554 395 496 392 437 c 1
 607 437 l 2
 613 437 615 434 615 431 c 0
 615 428 613 425 612 423 c 0
 597 402 584 380 571 357 c 2
 544 306 l 2
 538 297 529 299 526 307 c 0
 521 319 515 335 509 354 c 2
 492 413 l 1
 391 413 l 1
 383 293 l 2
 381 254 379 218 378 184 c 1
 402 190 426 196 450 202 c 2
 486 210 l 2
 495 212 502 215 509 215 c 0
 515 215 520 213 526 207 c 0
 536 196 550 160 552 154 c 0
 560 128 575 90 575 20 c 0
 575 -41 566 -94 542 -142 c 0
 523 -181 496 -221 465 -250 c 0
 436 -276 412 -292 391 -292 c 1
 391 -292 383 -291 381 -287 c 24
 379 -282 384 -274 384 -274 c 1
 415 -225 438 -184 454 -140 c 0
 469 -100 475 -61 475 -11 c 0
 475 50 461 116 449 146 c 0
 445 157 438 171 426 171 c 0
 419 171 405 168 396 164 c 0
 380 157 377 148 376 139 c 0
 374 118 371 16 371 0 c 1
 265 -0 l 1
 265 55 269 119 272 178 c 2
 278 292 l 2
 281 332 283 372 286 413 c 1
 167 413 l 1
 166 397 164 378 163 356 c 2
 160 289 l 2
 159 254 157 212 155 182 c 1
 137 179 122 178 103 178 c 0
 85 178 69 179 54 182 c 1
EndSplineSet
Validated: 1
Colour: ff00ff
EndChar

StartChar: uni0453
Encoding: 1107 1107 134
Width: 417
GlyphClass: 2
Flags: W
HStem: -4 21G<142.5 180> 416 25<180.036 269.816> 416 18<180.353 268.508>
VStem: 65 105<3.3905 411.765>
LayerCount: 2
Fore
SplineSet
69 3 m 1xd0
 69 63 65 148 65 215 c 0
 65 295 72 382 77 434 c 1xb0
 160 434 310 441 376 441 c 1
 379 440 381 437 381 433 c 0
 381 427 376 417 372 411 c 0
 356 389 346 369 346 337 c 0
 346 332 347 327 347 322 c 0
 347 313 341 310 336 310 c 0
 332 310 328 311 325 314 c 0
 298 339 279 376 266 416 c 1
 264 416 261 416 258 416 c 0
 236 416 193 413 181 413 c 1
 174 362 170 283 170 203 c 0
 170 126 173 48 180 -4 c 1
 173 -4 166 -4 157 -4 c 0
 128 -4 92 -1 69 3 c 1xd0
192 500 m 2
 189 500 187 502 187 505 c 0
 187 506 187 508 188 509 c 2
 306 722 l 1
 372 722 l 2
 375 722 379 719 379 715 c 0
 379 714 379 713 378 712 c 2
 225 500 l 1
 192 500 l 2
EndSplineSet
Validated: 19457
LCarets2: 1 0
Ligature2: "Cyrillic Canonical Equivalents" uni0433 uni0301
Colour: ff00ff
EndChar

StartChar: uni0454
Encoding: 1108 1108 135
Width: 605
GlyphClass: 2
Flags: W
HStem: 309 20<379.069 386> 343 19<516.66 540.349> 377 66<263.061 370.796>
VStem: 55 104<27.7489 221.776>
DStem2: 164 57 170 30 0.830361 0.557226<0 175.465>
AnchorPoint: "right" 511 536.2 basechar 0
AnchorPoint: "left" 136.778 535.8 basechar 0
AnchorPoint: "HalfMark" 296.5 538.7 basechar 0
AnchorPoint: "DoubleTitlo" 603 539 basechar 0
AnchorPoint: "Yerok" 400 538 basechar 0
AnchorPoint: "Diacritic" 336 539 basechar 0
LayerCount: 2
Fore
SplineSet
525 362 m 1
 533 363 l 2
 540 364 546 345 538 343 c 0
 498 335 418 318 387 309 c 0
 380 307 373 327 381 329 c 2
 386 330 l 1
 376 368 334 377 299 377 c 0
 268 377 246 361 220 343 c 1
 172 279 159 208 159 115 c 0
 159 95 160 76 164 57 c 1
 240 108 344 178 390 208 c 0
 396 212 404 215 412 215 c 0
 421 215 430 211 434 203 c 0
 459 153 526 74 561 43 c 0
 563 41 564 38 564 34 c 0
 564 31 563 29 561 29 c 0
 558 29 555 29 552 29 c 0
 515 29 482 24 449 24 c 0
 443 24 436 25 429 25 c 1
 395 48 379 74 361 97 c 0
 348 114 338 120 319 129 c 1
 296 115 221 65 170 30 c 1
 189 -45 232 -115 284 -174 c 1
 312 -199 318 -197 342 -204 c 1
 379 -190 422 -149 440 -133 c 0
 441 -132 443 -131 444 -131 c 0
 452 -131 462 -141 462 -148 c 0
 462 -149 462 -150 461 -151 c 0
 412 -205 321 -257 227 -257 c 1
 137 -200 55 -28 55 115 c 0
 55 202 98 293 182 365 c 0
 230 406 284 443 345 443 c 0
 442 443 479 406 525 362 c 1
EndSplineSet
Validated: 19457
Colour: ff00
EndChar

StartChar: uni0455
Encoding: 1109 1109 136
Width: 586
GlyphClass: 2
Flags: W
HStem: -9 35<238.182 391.132> 26 35<90.3503 223.362> 170 52<189.065 243.115> 226 48<311.336 432.114> 418 19<192.617 266.766>
VStem: 53 97<262.153 375.773> 434 106<60.1788 188.781>
AnchorPoint: "right" 485 536.2 basechar 0
AnchorPoint: "left" 110.778 535.8 basechar 0
AnchorPoint: "HalfMark" 247.5 539.7 basechar 0
AnchorPoint: "DoubleTitlo" 586 539 basechar 0
AnchorPoint: "Yerok" 400 539 basechar 0
AnchorPoint: "Diacritic" 220 538.7 basechar 0
AnchorPoint: "Numeral" 280 203 basechar 0
LayerCount: 2
Fore
SplineSet
331 26 m 0xbe
 388 26 434 62 434 122 c 0
 434 182 391 226 343 226 c 0
 324 226 304 219 288 212 c 0
 255 196 215 178 181 170 c 1
 128 170 70 228 59 271 c 0
 55 285 53 301 53 315 c 0
 53 333 61 351 67 364 c 0
 87 406 161 437 213 437 c 0
 215 437 217 437 219 437 c 0
 246 437 281 432 312 432 c 0
 337 432 358 437 374 437 c 0
 379 437 383 427 379 424 c 0
 355 407 337 369 331 348 c 0
 330 343 316 343 315 348 c 0
 308 375 271 414 247 417 c 0
 241 418 244 418 237 418 c 0
 233 418 227 419 222 418 c 0
 192 414 157 392 152 363 c 0
 151 354 150 343 150 331 c 0
 150 316 151 300 157 285 c 0
 165 265 199 222 241 222 c 1
 286 237 339 274 398 274 c 0
 466 274 540 234 540 142 c 0
 540 99 530 57 498 34 c 0
 456 3 403 -9 341 -9 c 0
 338 -9 335 -9 333 -9 c 0xbe
 287 -9 254 -1 215 12 c 0
 186 22 169 26 141 26 c 0
 138 26 134 26 131 26 c 0x7e
 99 26 78 6 59 -9 c 0
 58 -9 l 0
 57 -9 56 -9 55 -9 c 0xbe
 51 -9 46 -4 46 0 c 1
 46 0 47 -1 47 0 c 0
 54 12 72 30 85 40 c 0
 104 54 123 61 150 61 c 0x7e
 209 61 264 26 326 26 c 0
 328 26 329 26 331 26 c 0xbe
EndSplineSet
Validated: 19457
Position2: "Numeral Kerning-1" dx=250 dy=0 dh=0 dv=0
Colour: ff00
EndChar

StartChar: uni0456
Encoding: 1110 1110 137
Width: 252
GlyphClass: 2
Flags: W
HStem: -4 21G<122 140> 422 20G<152.5 182>
VStem: 70 105<1.66174 422.726> 74 108<-2.58398 149.144> 81 101<201.091 436.724>
AnchorPoint: "right" 264 537.6 basechar 0
AnchorPoint: "left" -28.2222 537.8 basechar 0
AnchorPoint: "HalfMark" 141.5 538.7 basechar 0
AnchorPoint: "DoubleTitlo" 253.5 538.2 basechar 0
AnchorPoint: "Yerok" 125 539 basechar 0
AnchorPoint: "Numeral" 131 229 basechar 0
AnchorPoint: "Diacritic" 126 539 basechar 0
LayerCount: 2
Fore
SplineSet
182 0 m 5xd0
 167 -3 149 -4 131 -4 c 4
 113 -4 93 -3 74 0 c 5xd0
 74 35 70 91 70 152 c 4xe0
 70 246 81 362 81 433 c 5
 112 439 137 442 168 442 c 4
 173 442 177 442 182 442 c 5xc8
 182 389 175 284 175 197 c 6
 175 162 l 6xe0
 175 99 182 35 182 0 c 5xd0
EndSplineSet
Validated: 19457
Substitution2: "'locl' Localized Forms in Cyrillic-1" uni04560307
Position2: "Numeral Kerning-1" dx=250 dy=0 dh=0 dv=0
Colour: ff00
EndChar

StartChar: uni0457
Encoding: 1111 1111 138
Width: 255
GlyphClass: 2
Flags: W
HStem: -4 21G<122 140> 422 20G<152.5 182> 522 115<21.6705 92.6628> 528 115<158.004 229.663>
VStem: 70 105<1.66174 422.726> 74 108<-2.58398 149.144> 81 101<201.091 436.724>
AnchorPoint: "left" -16.2222 673.8 basechar 0
AnchorPoint: "right" 276 673.6 basechar 0
AnchorPoint: "HalfMark" 134.5 538.7 basechar 0
AnchorPoint: "DoubleTitlo" 255 677 basechar 0
AnchorPoint: "Yerok" 117 677 basechar 0
AnchorPoint: "Diacritic" 117 675.7 basechar 0
LayerCount: 2
Fore
SplineSet
182 0 m 1xc4
 167 -3 149 -4 131 -4 c 0
 113 -4 93 -3 74 0 c 1xc4
 74 35 70 91 70 152 c 0xc8
 70 246 81 362 81 433 c 1
 112 439 137 442 168 442 c 0
 173 442 177 442 182 442 c 1xc2
 182 389 175 284 175 197 c 2
 175 162 l 2xc8
 175 99 182 35 182 0 c 1xc4
143 639 m 1
 159 642 176 643 192 643 c 0
 205 643 217 641 228 641 c 1
 237 617 244 559 244 534 c 1
 230 530 212 528 196 528 c 0xd0
 183 528 171 529 159 532 c 1
 152 551 143 610 143 639 c 1
6 633 m 1
 22 636 39 637 55 637 c 0xe0
 68 637 80 635 91 635 c 1
 100 611 107 553 107 528 c 1xd0
 93 524 75 522 59 522 c 0xe0
 46 522 34 525 22 528 c 1
 15 547 6 604 6 633 c 1
EndSplineSet
Validated: 19457
LCarets2: 1 0
Ligature2: "Cyrillic Canonical Equivalents" uni0456 uni0308
Colour: ff00
EndChar

StartChar: uni0458
Encoding: 1112 1112 139
Width: 343
GlyphClass: 2
Flags: W
HStem: -393 41<131.578 209.048> -252 20G<49.5 110> 425 20G<315.5 328> 528 115<233.203 308.465>
VStem: 10 100<-323.468 -236> 222 85<535.995 641> 238 85<529.642 638.309>
AnchorPoint: "left" 106.778 695.8 basechar 0
AnchorPoint: "right" 399 695.6 basechar 0
AnchorPoint: "HalfMark" 277.5 537.7 basechar 0
AnchorPoint: "DoubleTitlo" 383 692 basechar 0
AnchorPoint: "Yerok" 254 689 basechar 0
AnchorPoint: "Diacritic" 270 689.7 basechar 0
LayerCount: 2
Fore
SplineSet
222 639 m 1xfc
 238 642 255 643 271 643 c 0
 284 643 296 641 307 641 c 1xfc
 316 617 323 559 323 534 c 1
 309 530 291 528 275 528 c 0
 262 528 250 529 238 532 c 1xfa
 231 551 222 610 222 639 c 1xfc
225 -266 m 2
 228 291 l 1
 228 431 l 1
 227 431 l 0
 227 434 303 445 323 445 c 0xfa
 326 445 328 444 328 444 c 1
 328 274 328 103 328 -67 c 0
 328 -157 323 -228 300 -290 c 0
 279 -344 232 -393 159 -393 c 0
 138 -393 116 -391 94 -381 c 0
 40 -356 12 -312 10 -236 c 1
 10 -236 39 -232 60 -232 c 0
 77 -232 110 -236 110 -236 c 1
 110 -313 135 -352 164 -352 c 2
 165 -352 l 2
 203 -352 225 -323 225 -266 c 2
EndSplineSet
Validated: 19457
Substitution2: "Cyrillic Soft Dot removal-1" uni0458.var
Colour: ff00ff
EndChar

StartChar: uni0459
Encoding: 1113 1113 140
Width: 631
GlyphClass: 2
Flags: W
HStem: 0 24<390.372 486> 189 27<362 413.532> 421 20G<234 250.5>
VStem: 43 99<-2.50933 77.125> 237 101<290.681 434.068>
DStem2: 60 70 215 246 0.567305 0.823508<119 287.355> 358 216 246 291 0.127023 -0.9919<-88.619 2.50016 26.2975 192.576>
AnchorPoint: "left" 33.7778 535.8 basechar 0
AnchorPoint: "right" 568 537.6 basechar 0
AnchorPoint: "HalfMark" 276.5 538.7 basechar 0
AnchorPoint: "DoubleTitlo" 632 538 basechar 0
AnchorPoint: "Yerok" 278 539 basechar 0
AnchorPoint: "Diacritic" 278 538.7 basechar 0
LayerCount: 2
Fore
SplineSet
237 373 m 0
 237 395 235 413 233 441 c 1
 268 440 308 439 338 433 c 1
 341 352 345 303 358 216 c 1
 379 216 410 217 422 218 c 0
 484 225 493 237 503 237 c 0
 507 237 514 231 517 227 c 0
 555 165 585 81 601 0 c 1
 295 0 l 1
 273 76 262 168 251 255 c 0
 249 267 247 279 246 291 c 1
 215 246 l 2
 181 198 142 127 142 44 c 0
 142 28 145 14 148 0 c 1
 133 -3 110 -3 92 -3 c 0
 91 -3 91 -3 90 -3 c 0
 74 -3 58 -3 46 0 c 1
 44 6 43 12 43 18 c 0
 43 35 50 53 60 70 c 0
 95 134 143 190 185 248 c 2
 210 282 l 1
 226 309 237 330 237 373 c 0
486 24 m 1
 473 81 444 154 414 192 c 1
 404 191 395 189 380 189 c 0
 375 189 369 189 362 190 c 1
 368 144 382 72 393 24 c 1
 486 24 l 1
EndSplineSet
Validated: 19457
Colour: ff00ff
EndChar

StartChar: uni045A
Encoding: 1114 1114 141
Width: 656
GlyphClass: 2
Flags: W
HStem: 0 24<416.012 511> 192 45<403.519 452.932> 421 20G<146 162.5 385 402>
VStem: 50 105<-2.22454 210.175> 309 91<25.5831 191.278 216 427.225> 322 96<24 187.099 292.238 434.694>
DStem2: 160 241 158 215 0.973338 -0.229376<4.01711 150.556>
AnchorPoint: "right" 610 537.6 basechar 0
AnchorPoint: "left" 75.7778 535.8 basechar 0
AnchorPoint: "HalfMark" 250.5 538.7 basechar 0
AnchorPoint: "DoubleTitlo" 656 539 basechar 0
AnchorPoint: "Yerok" 300 537.5 basechar 0
AnchorPoint: "Diacritic" 251 537.7 basechar 0
LayerCount: 2
Fore
SplineSet
415 440 m 1xf8
 413 432 400 358 400 289 c 0xf8
 400 258 402 215 402 215 c 1
 418 216 439 217 447 218 c 0
 509 225 518 237 528 237 c 0
 532 237 539 231 542 227 c 0
 580 165 610 81 626 0 c 1
 322 0 l 1xf4
 318 10 311 108 311 191 c 1
 276 194 256 196 225 201 c 0
 203 205 176 210 158 215 c 1
 155 184 155 103 155 62 c 0
 155 48 156 11 156 0 c 1
 138 -3 124 -4 105 -4 c 0
 85 -4 69 -2 51 0 c 1
 50 8 50 16 50 26 c 2
 50 54 l 2
 50 161 57 284 70 376 c 0
 74 404 80 424 83 432 c 1
 103 437 133 441 159 441 c 0
 166 441 172 441 178 440 c 1
 170 388 162 288 160 241 c 1
 171 239 199 230 226 225 c 0
 265 218 310 216 310 216 c 1
 310 216 309 232 309 258 c 0
 309 299 311 392 321 429 c 1
 341 435 371 441 399 441 c 0
 405 441 410 440 415 440 c 1xf8
511 24 m 1
 498 81 469 154 439 192 c 1
 430 192 414 191 403 190 c 1
 403 187 403 184 403 181 c 0
 403 140 411 57 418 24 c 1xf4
 511 24 l 1
EndSplineSet
Validated: 19457
Colour: ff00ff
EndChar

StartChar: uni045B
Encoding: 1115 1115 142
Width: 659
GlyphClass: 2
Flags: W
HStem: -0 21G<265 371 492.5 593> 413 24<166.158 286 392 492>
VStem: 54 101<179.196 347.625> 265 106<0 161.286> 494 99<0 88.4583>
DStem2: 278 292 383 293 0.0710009 0.997476<-99.0328 121.263 152.728 469.439>
AnchorPoint: "right" 594 537.6 basechar 0
AnchorPoint: "left" 59.7778 535.8 basechar 0
LayerCount: 2
Fore
SplineSet
54 182 m 5
 54 266 58 362 66 437 c 5
 288 437 l 5
 301 609 l 6
 305 664 309 712 313 754 c 5
 340 761 355 764 384 764 c 4
 393 764 403 764 414 763 c 5
 403 611 l 6
 399 554 395 496 392 437 c 5
 607 437 l 6
 613 437 615 434 615 431 c 4
 615 428 613 425 612 423 c 4
 597 402 584 380 571 357 c 6
 544 306 l 6
 538 297 529 299 526 307 c 4
 521 319 515 335 509 354 c 6
 492 413 l 5
 391 413 l 5
 383 293 l 6
 381 254 379 218 378 184 c 5
 402 190 426 196 450 202 c 6
 486 210 l 6
 495 212 502 215 509 215 c 4
 515 215 520 213 526 207 c 4
 536 196 556 146 561 132 c 4
 574 94 588 49 593 -0 c 5
 494 -0 l 5
 491 23 486 52 478 73 c 4
 469 99 457 124 446 144 c 4
 439 156 433 165 428 171 c 4
 427 171 427 171 426 171 c 4
 419 171 405 168 396 164 c 4
 380 157 377 148 376 139 c 4
 374 118 371 16 371 0 c 5
 265 -0 l 5
 265 55 269 119 272 178 c 6
 278 292 l 6
 281 332 283 372 286 413 c 5
 167 413 l 5
 166 397 164 378 163 356 c 6
 160 289 l 6
 159 254 157 212 155 182 c 5
 137 179 122 178 103 178 c 4
 85 178 69 179 54 182 c 5
EndSplineSet
Validated: 19457
Colour: ff00ff
EndChar

StartChar: uni045C
Encoding: 1116 1116 143
Width: 517
GlyphClass: 2
Flags: W
HStem: -3 21G<95.5 127.5 406.5 424.5> 349 96<362.803 422.533>
VStem: 61 109<0.6875 355.449> 70 104<227 433.415> 357 106<-1.7688 92.8816>
AnchorPoint: "right" 446 537.6 basechar 0
AnchorPoint: "left" 79.7778 536.9 basechar 0
LayerCount: 2
Fore
SplineSet
61 36 m 2xe8
 63 81 l 2
 66 175 68 273 70 364 c 0
 71 392 71 416 72 429 c 1
 100 436 129 440 162 440 c 0
 167 440 173 440 178 440 c 1
 178 396 176 343 174 296 c 2xd8
 170 204 l 2
 168 150 165 94 162 44 c 2
 158 0 l 1
 150 -1 131 -3 124 -3 c 2
 105 -3 l 2
 86 -3 78 -1 59 -0 c 1
 59 -0 60 9 61 36 c 2xe8
275 215 m 0
 303 212 363 208 382 195 c 1
 420 146 457 80 463 -0 c 1
 449 -2 433 -3 416 -3 c 0
 397 -3 377 -2 357 -0 c 1
 348 80 323 137 276 184 c 1
 271 185 272 185 265 186 c 0
 245 189 227 202 227 226 c 0
 227 228 227 231 227 233 c 1
 252 295 288 348 328 392 c 0
 335 400 345 410 354 417 c 0
 375 434 417 445 451 445 c 0
 454 445 457 445 460 445 c 1
 464 442 466 439 465 436 c 1
 446 419 429 393 429 357 c 0
 429 349 430 340 432 331 c 1
 431 327 428 325 424 326 c 1
 409 337 373 349 347 349 c 0
 335 349 325 347 320 341 c 0
 294 313 267 274 257 233 c 1
 256 219 262 216 275 215 c 0
218 506 m 2
 215 506 213 508 213 511 c 0
 213 512 213 514 214 515 c 2
 332 728 l 1
 398 728 l 2
 401 728 405 725 405 721 c 0
 405 720 405 719 404 718 c 2
 251 506 l 1
 218 506 l 2
EndSplineSet
Validated: 19457
LCarets2: 1 0
Ligature2: "Cyrillic Canonical Equivalents" uni043A uni0301
Colour: ff00ff
EndChar

StartChar: uni045D
Encoding: 1117 1117 144
Width: 485
GlyphClass: 2
Flags: W
HStem: -4 21G<110.5 129.5 366.5 389> 423 20G<163.5 179.5 408.5 424>
VStem: 67 105<-2.73306 229 257 375.644> 75 106<259.818 430.826> 316 105
DStem2: 174 257 174 229 0.918484 0.395458<0 144.789>
AnchorPoint: "left" 43.7778 540.9 basechar 0
AnchorPoint: "right" 410 541.6 basechar 0
LayerCount: 2
Fore
SplineSet
172 -0 m 1xe8
 154 -3 139 -4 120 -4 c 0
 101 -4 84 -3 69 -0 c 1
 68 15 67 65 67 104 c 0xe8
 67 211 70 274 75 367 c 0
 76 394 78 415 79 430 c 1
 107 439 146 442 181 443 c 1xd8
 178 385 176 317 174 257 c 1
 318 319 l 1
 319 358 320 401 324 431 c 1
 352 439 391 442 426 442 c 1
 422 356 421 302 421 210 c 2
 421 198 l 2
 421 140 421 42 426 -0 c 1
 417 -1 393 -4 385 -4 c 2
 371 -4 l 2
 362 -4 329 -1 320 -0 c 1
 316 46 316 108 316 163 c 2
 316 227 l 2
 316 249 316 270 317 291 c 1
 174 229 l 1
 172 210 172 129 172 91 c 0
 172 58 172 24 172 -0 c 1xe8
237 534 m 1
 82 757 l 2
 81 758 81 758 81 759 c 0
 81 761 83 761 85 761 c 0
 86 761 87 761 88 761 c 2
 158 761 l 1
 276 543 l 2
 277 542 277 541 277 540 c 0
 277 537 275 534 272 534 c 2
 237 534 l 1
EndSplineSet
Validated: 19457
LCarets2: 1 0
Ligature2: "Cyrillic Canonical Equivalents" uni0438 uni0300
Colour: ff00ff
EndChar

StartChar: uni045E
Encoding: 1118 1118 145
Width: 546
GlyphClass: 2
Flags: W
HStem: -9 21G<145 163> 4 25<259.811 281> 326 119<391.8 494.948> 495 54<201.644 316.728>
VStem: 281 60<-328.468 4 28 225.512> 362 32<597.734 618.188>
AnchorPoint: "left" 79.7778 536.9 basechar 0
AnchorPoint: "right" 446 537.6 basechar 0
LayerCount: 2
Fore
SplineSet
32 431 m 0xbc
 32 439 50 440 66 440 c 0
 71 440 76 440 80 440 c 0
 84 440 88 440 92 440 c 0
 113 440 134 440 152 437 c 1
 187 349 253 87 261 29 c 1
 269 29 276 28 284 28 c 1
 284 145 307 293 346 373 c 0
 370 423 402 440 455 445 c 0
 458 445 462 445 466 445 c 0
 488 445 520 442 520 433 c 0
 520 432 519 431 518 429 c 0
 505 414 495 385 495 356 c 0
 495 347 496 339 498 329 c 0
 498 327 495 323 492 323 c 0
 481 323 466 326 451 326 c 0
 434 326 415 325 403 316 c 0
 352 279 343 116 342 4 c 0
 341 -28 341 -52 341 -74 c 0
 341 -84 341 -93 341 -103 c 0
 341 -158 339 -263 334 -312 c 0
 329 -349 322 -373 309 -404 c 0
 299 -427 288 -448 266 -458 c 0
 263 -459 257 -460 254 -460 c 0
 249 -460 244 -458 244 -454 c 0
 244 -451 246 -447 250 -442 c 0
 263 -424 266 -403 270 -375 c 0
 276 -336 281 -264 281 -211 c 2
 281 4 l 1
 280 4 278 4 277 4 c 0x7c
 260 4 238 2 218 0 c 0
 195 -2 174 -4 152 -9 c 1
 138 59 113 189 77 307 c 0
 64 349 50 389 34 424 c 0
 33 425 32 430 32 431 c 0xbc
157 624 m 1
 168 595 198 569 227 556 c 0
 238 551 248 549 258 549 c 0
 284 549 307 561 322 573 c 0
 339 586 356 606 362 626 c 1
 394 616 l 1
 379 566 339 526 294 504 c 0
 280 498 266 495 252 495 c 0
 236 495 221 499 207 506 c 1
 170 528 142 565 126 607 c 1
 157 624 l 1
EndSplineSet
Validated: 19457
Ligature2: "Cyrillic Canonical Equivalents" uni0443 uni0306
LCarets2: 1 0
Colour: ff00ff
EndChar

StartChar: uni045F
Encoding: 1119 1119 146
Width: 512
GlyphClass: 2
Flags: W
HStem: -0 24<170.656 210.25 319 354> 422 19G<147 160.5 435.5 463>
VStem: 50 105<59.329 432.179> 59 106<228.517 432.557> 266 61<-319.543 -99> 348 104<63.7742 432.422> 349 112<24.0479 176.92 181.911 239.975 247.145 431.963>
AnchorPoint: "left" 79.7778 536.9 basechar 0
AnchorPoint: "right" 446 537.6 basechar 0
LayerCount: 2
Fore
SplineSet
452 244 m 0xcc
 452 158 459 80 461 -0 c 1
 319 -0 l 1
 327 -71 327 -82 327 -116 c 4
 327 -177 316 -330 279 -396 c 4
 277 -401 272 -403 267 -403 c 4
 262 -403 257 -400 257 -394 c 4
 257 -376 266 -342 266 -319 c 4
 266 -247 254 -217 243 -165 c 6
 226 -87 l 6
 220 -60 214 -31 208 -0 c 1
 61 -0 l 1
 60 7 58 19 58 35 c 2
 54 90 l 2
 51 131 50 182 50 225 c 0xea
 50 285 54 344 59 397 c 0
 60 412 62 423 63 432 c 1
 94 438 129 442 165 442 c 1xd8
 156 377 155 300 155 225 c 0
 155 154 160 82 173 24 c 1
 354 24 l 1
 354 24 349 90 349 100 c 0xea
 348 129 348 155 348 178 c 0
 348 262 352 310 354 344 c 0
 357 381 362 411 367 433 c 1
 390 438 421 441 450 441 c 0
 454 441 459 441 463 441 c 1
 456 384 452 311 452 244 c 0xcc
EndSplineSet
Validated: 19457
Colour: ff00ff
EndChar

StartChar: uni0460
Encoding: 1120 1120 147
Width: 938
GlyphClass: 2
Flags: W
HStem: -14 21G<257 260 579 707> 750 20G<104 255.5 420.5 578 688.5 838>
VStem: 55 126<274.009 607> 361 146<295.774 603.625> 763 120<311.609 599.048>
DStem2: 293 46 267 -10 0.73563 0.677384<0.461435 182.941>
AnchorPoint: "HalfMark" 486 829.6 basechar 0
AnchorPoint: "DoubleTitlo" 938.5 827.4 basechar 0
AnchorPoint: "Yerok" 725 827.6 basechar 0
AnchorPoint: "Diacritic" 507 829 basechar 0
LayerCount: 2
Fore
SplineSet
636 -14 m 1
 617 -14 l 1
 541 26 488 84 445 151 c 1
 393 102 291 10 267 -10 c 0
 264 -12 262 -14 258 -14 c 0
 256 -14 252 -12 250 -10 c 0
 111 110 55 273 55 450 c 0
 55 579 83 704 125 770 c 1
 253 770 l 2
 258 770 261 762 259 758 c 0
 213 669 181 559 181 426 c 0
 181 424 181 422 181 421 c 0
 181 268 224 118 293 46 c 1
 317 68 388 131 431 174 c 1
 382 260 361 366 361 480 c 0
 361 600 398 720 443 770 c 1
 575 770 l 2
 581 770 585 761 583 756 c 0
 537 665 507 556 507 390 c 0
 507 277 529 181 575 115 c 0
 599 81 640 53 662 45 c 1
 685 62 711 94 722 125 c 0
 748 198 763 284 763 384 c 2
 763 395 l 2
 763 543 724 714 685 758 c 0
 682 762 686 770 691 770 c 2
 811 770 l 1
 865 716 883 591 883 472 c 0
 883 263 778 75 636 -14 c 1
EndSplineSet
Validated: 19457
AlternateSubs2: "'salt' Stylistic Alternatives-1" uni0460.alt
Colour: ff00
EndChar

StartChar: uni0461
Encoding: 1121 1121 148
Width: 760
GlyphClass: 2
Flags: W
HStem: -10 21G<477.5 478.5> 425 18G<166.5 193.5 422 443 669 692>
VStem: 54 108<171.661 403.973> 311 112<182.318 431.732> 633 73<194.673 316.291>
AnchorPoint: "right" 635 536.2 basechar 0
AnchorPoint: "left" 128.778 537.8 basechar 0
AnchorPoint: "HalfMark" 379.5 538.7 basechar 0
AnchorPoint: "DoubleTitlo" 760 539 basechar 0
AnchorPoint: "Yerok" 550 539 basechar 0
AnchorPoint: "Numeral" 382 236 basechar 0
AnchorPoint: "Diacritic" 388 538 basechar 0
LayerCount: 2
Fore
SplineSet
343 151 m 1
 322 205 311 268 311 339 c 0
 311 376 318 406 326 433 c 1
 360 441 403 445 441 445 c 0
 445 445 444 438 443 434 c 0
 432 403 423 377 423 340 c 2
 423 335 l 2
 423 217 457 111 511 48 c 1
 566 69 613 115 628 178 c 0
 630 186 633 197 633 205 c 2
 633 218 l 2
 633 251 628 285 613 313 c 0
 603 332 583 373 562 395 c 0
 558 399 556 406 560 409 c 0
 584 424 651 443 687 448 c 1
 697 416 706 358 706 300 c 0
 706 229 674 153 617 84 c 0
 580 39 535 3 490 -9 c 0
 489 -9 488 -9 487 -9 c 0
 485 -9 483 -9 482 -9 c 0
 481 -9 479 -10 478 -10 c 0
 477 -10 476 -10 475 -9 c 0
 419 23 376 73 349 123 c 1
 320 90 294 63 255 29 c 0
 237 13 220 4 202 -5 c 0
 198 -7 190 -7 187 -5 c 0
 160 11 127 52 109 88 c 0
 78 151 54 226 54 327 c 0
 54 369 59 405 82 431 c 1
 108 438 150 443 183 443 c 0
 186 443 189 443 192 443 c 0
 195 443 197 440 196 437 c 0
 177 388 162 350 162 293 c 0
 162 291 162 289 162 287 c 0
 162 195 197 104 251 65 c 1
 277 83 315 119 343 151 c 1
EndSplineSet
Validated: 19457
Position2: "Numeral Kerning-1" dx=250 dy=0 dh=0 dv=0
Colour: ff00
EndChar

StartChar: uni0462
Encoding: 1122 1122 149
Width: 839
GlyphClass: 2
Flags: W
HStem: 0 24<268 328 448 629 749 784> 350 24<749 784> 621 25<45 85 200 328 448 554.932> 746 24<268 328 448 508>
VStem: 85 115<402 621> 328 120<24 408 428.27 621 646 746> 619 27<485.009 541.068> 629 120<24 350>
AnchorPoint: "HalfMark" 384 829.6 basechar 0
AnchorPoint: "DoubleTitlo" 840 832.4 basechar 0
AnchorPoint: "Yerok" 600 827.6 basechar 0
AnchorPoint: "Diacritic" 385 830 basechar 0
LayerCount: 2
Fore
SplineSet
749 350 m 1xfd
 749 24 l 1xfd
 784 24 l 1
 784 0 l 1
 268 0 l 1
 268 24 l 1
 328 24 l 1
 328 621 l 1
 200 621 l 1
 200 402 l 1
 85 402 l 1
 85 621 l 1
 45 621 l 1
 45 646 l 1
 328 646 l 1
 328 746 l 1
 268 746 l 1
 268 770 l 1
 508 770 l 1
 508 746 l 1
 448 746 l 1
 448 646 l 1
 700 646 l 2
 706 646 708 642 708 637 c 0
 708 630 705 623 702 621 c 0
 667 599 651 534 646 493 c 0
 646 488 640 485 633 485 c 0
 627 485 619 488 619 493 c 0xfe
 619 536 567 621 524 621 c 2
 448 621 l 1
 448 437 l 1
 506 409 572 394 615 385 c 0
 644 378 705 374 740 374 c 2
 784 374 l 1
 784 350 l 1
 749 350 l 1xfd
629 359 m 1
 583 365 512 380 448 408 c 1
 448 24 l 1
 629 24 l 1
 629 359 l 1
EndSplineSet
Validated: 19457
Colour: ff00
EndChar

StartChar: uni0463
Encoding: 1123 1123 150
Width: 659
GlyphClass: 2
Flags: W
HStem: -0 24<370 492> 413 24<166.158 286 392 492>
VStem: 54 101<179.196 347.625> 265 107<24.5654 139>
DStem2: 272 178 370 24 0.0594347 0.998232<-146.34 -4.74429 13.8847 235.417 265.674 582.093>
AnchorPoint: "right" 573 536.2 basechar 0
AnchorPoint: "left" 80.7778 535.8 basechar 0
AnchorPoint: "HalfMark" 342.5 538.7 basechar 0
AnchorPoint: "DoubleTitlo" 660.5 673 basechar 0
AnchorPoint: "Yerok" 510 539 basechar 0
AnchorPoint: "Diacritic" 360 830 basechar 0
LayerCount: 2
Fore
SplineSet
54 182 m 1
 54 266 58 362 66 437 c 1
 288 437 l 1
 301 609 l 2
 305 664 309 712 313 754 c 1
 340 761 355 764 384 764 c 0
 393 764 403 764 414 763 c 1
 403 611 l 2
 399 554 395 496 392 437 c 1
 607 437 l 2
 613 437 615 434 615 431 c 0
 615 428 613 425 612 423 c 0
 597 402 584 380 571 357 c 2
 544 306 l 2
 538 297 529 299 526 307 c 0
 521 319 515 335 509 354 c 2
 492 413 l 1
 391 413 l 1
 383 293 l 2
 381 254 379 218 378 184 c 1
 402 190 426 196 450 202 c 2
 486 210 l 2
 495 212 502 215 509 215 c 0
 515 215 520 213 526 207 c 0
 536 196 556 146 561 132 c 0
 574 94 588 49 593 -0 c 1
 265 -0 l 1
 265 55 269 119 272 178 c 2
 278 292 l 2
 281 332 283 372 286 413 c 1
 167 413 l 1
 166 397 164 378 163 356 c 2
 160 289 l 2
 159 254 157 212 155 182 c 1
 137 179 122 178 103 178 c 0
 85 178 69 179 54 182 c 1
428 171 m 0
 427 171 427 171 426 171 c 0
 419 171 405 168 396 164 c 0
 380 157 377 148 376 139 c 1
 372 74 l 2
 371 52 371 36 370 24 c 1
 492 24 l 1
 484 67 464 112 446 144 c 0
 439 156 433 165 428 171 c 0
EndSplineSet
Validated: 19457
AlternateSubs2: "'salt' Stylistic Alternatives-1" uni0463.short
Substitution2: "Short Forms for Half Titlos-1" uni0463.short
Substitution2: "Short Yat Substitution-1" uni0463.short
Colour: ff00
EndChar

StartChar: uni0464
Encoding: 1124 1124 151
Width: 938
GlyphClass: 2
Flags: W
HStem: -8 25<489.105 586.782> 0 24<55 115 235 295> 191 24<643.141 672.867> 309 21<700.344 757 873 904.988> 473 70<633.923 723.814> 625 24<843.041 894.858> 625 14<651.503 724.791> 746 24<55 115 235 295> 756 22<545.61 656.862>
VStem: 115 120<24 398 424 746> 335 121<460 614.095> 456 52<19.3993 185.115> 757 116<333 437.629>
DStem2: 235 424 235 398 0.945946 0.324324<0 102.568>
AnchorPoint: "HalfMark" 486 828.6 basechar 0
AnchorPoint: "DoubleTitlo" 937.5 825.4 basechar 0
AnchorPoint: "Yerok" 721 827.6 basechar 0
AnchorPoint: "Diacritic" 608 829 basechar 0
LayerCount: 2
Fore
SplineSet
488 21 m 1x3ad8
 507 18 511 17 532 17 c 0
 581 17 622 45 648 71 c 1
 671 96 699 135 699 176 c 1
 650 191 l 2
 645 192 643 196 643 201 c 0
 643 208 647 215 653 215 c 0
 654 215 655 215 656 215 c 2
 865 154 l 2
 870 152 872 147 872 142 c 0
 872 136 869 130 862 130 c 0
 861 130 860 130 859 130 c 2
 820 141 l 1
 805 98 757 63 716 40 c 1
 668 15 602 -8 531 -8 c 0xbad8
 497 -8 468 -5 445 0 c 0
 439 1 437 6 437 13 c 0
 437 18 439 25 441 28 c 0
 450 47 456 69 456 95 c 0
 456 135 442 169 428 199 c 0
 414 231 397 262 384 294 c 1
 364 349 l 2
 355 373 344 410 340 434 c 1
 235 398 l 1
 235 24 l 1
 295 24 l 1
 295 0 l 1
 55 0 l 1
 55 24 l 1
 115 24 l 1
 115 746 l 1
 55 746 l 1
 55 770 l 1
 295 770 l 1
 295 746 l 1
 235 746 l 1x7958
 235 424 l 1
 335 460 l 1
 335 470 335 486 335 507 c 0
 335 593 372 658 418 702 c 0
 462 745 528 778 610 778 c 0
 736 778 816 741 846 649 c 1
 884 649 l 2
 891 649 895 642 895 635 c 0
 895 630 892 625 886 625 c 2x3ce8
 661 625 l 2
 654 625 650 618 650 625 c 0
 650 630 653 639 659 639 c 2
 724 639 l 1
 725 645 725 650 725 656 c 0
 725 702 692 732 657 746 c 0x3b68
 642 752 627 756 611 756 c 0
 518 756 471 707 462 625 c 0
 459 601 456 578 456 553 c 0x3ae8
 456 530 461 504 467 476 c 2
 485 386 l 1
 512 417 544 451 576 480 c 0
 611 512 659 543 719 543 c 0
 776 543 818 508 842 473 c 1
 862 442 873 394 873 347 c 0
 873 342 873 338 873 333 c 1
 895 333 l 2
 901 333 905 327 905 320 c 0
 905 314 901 309 895 309 c 2
 710 309 l 2
 704 309 700 310 700 316 c 0
 700 323 704 330 710 330 c 2
 757 330 l 1
 757 408 741 473 663 473 c 0
 630 473 598 453 578 437 c 0
 567 428 553 416 536 401 c 2
 491 358 l 1
 505 282 508 189 508 105 c 0
 508 77 499 37 488 21 c 1x3ad8
EndSplineSet
Validated: 19457
Colour: ff00ff
EndChar

StartChar: uni0465
Encoding: 1125 1125 152
Width: 540
GlyphClass: 2
Flags: W
HStem: -2 78<372 422.345> 255 27<155 213> 375 68<488.328 508.724>
VStem: 50 104<-1.94238 260.459 282 346.626> 277 93<78.6133 159.816 236 279> 292 80<76 159.917>
AnchorPoint: "right" 455 536.2 basechar 0
AnchorPoint: "left" 80.7778 535.8 basechar 0
AnchorPoint: "HalfMark" 238.5 538.7 basechar 0
AnchorPoint: "DoubleTitlo" 540 539 basechar 0
AnchorPoint: "Yerok" 400 539 basechar 0
AnchorPoint: "Diacritic" 409 539 basechar 0
LayerCount: 2
Fore
SplineSet
292 54 m 0xf4
 292 120 277 183 277 245 c 0
 277 256 277 268 278 279 c 1
 239 273 185 264 154 255 c 1
 154 208 154 157 154 110 c 0
 154 72 155 12 156 0 c 1
 138 -2 121 -3 105 -3 c 0
 86 -3 67 -2 50 0 c 1
 50 76 l 2
 50 171 52 284 59 372 c 0
 61 399 63 418 66 429 c 1
 90 436 120 440 149 440 c 2
 162 440 l 1
 159 400 155 336 155 282 c 1
 182 290 246 300 281 305 c 1
 284 331 292 354 305 370 c 0
 346 419 428 444 488 444 c 0
 495 444 502 444 508 443 c 1
 510 434 510 427 510 420 c 0
 510 403 510 377 493 375 c 0
 453 369 400 354 376 321 c 0
 371 314 370 304 370 294 c 2
 370 236 l 1xf8
 403 256 458 280 495 293 c 1
 496 284 497 271 497 258 c 0
 497 241 496 224 493 213 c 1
 456 200 403 171 372 145 c 1
 372 76 l 1
 416 76 455 98 477 120 c 0
 485 128 491 108 489 99 c 0
 482 62 464 43 431 24 c 0
 404 9 349 -2 314 -2 c 0
 308 -2 302 -3 297 -2 c 0
 292 -1 292 24 292 31 c 0
 292 38 292 46 292 54 c 0xf4
EndSplineSet
Validated: 19457
Colour: ff00ff
EndChar

StartChar: uni0466
Encoding: 1126 1126 153
Width: 888
GlyphClass: 2
Flags: W
HStem: 0 24<60 100 217.007 267 340 380 500 540 614 660.5 788 828> 443 24<295 380 500 563> 746 24<270.003 380 497 587.997>
VStem: 77 109<48.781 244.928> 380 120<24 443> 685 119<40.3118 272.284>
AnchorPoint: "HalfMark" 434 829.6 basechar 0
AnchorPoint: "DoubleTitlo" 888.5 828.4 basechar 0
AnchorPoint: "Yerok" 675 827.6 basechar 0
AnchorPoint: "Diacritic" 435 830 basechar 0
LayerCount: 2
Fore
SplineSet
828 0 m 1
 614 0 l 1
 614 24 l 1
 654 24 l 1
 672 51 685 90 685 134 c 0
 685 243 642 354 580 443 c 1
 500 443 l 1
 500 24 l 1
 540 24 l 1
 540 0 l 1
 340 0 l 1
 340 24 l 1
 380 24 l 1
 380 443 l 1
 283 443 l 1
 234 345 186 232 186 133 c 0
 186 88 202 48 227 24 c 1
 267 24 l 1
 267 0 l 1
 60 0 l 1
 60 24 l 1
 100 24 l 1
 93 41 77 90 77 136 c 0
 77 283 195 397 252 472 c 0
 321 563 365 683 380 746 c 1
 282 746 l 2
 274 746 270 752 270 758 c 0
 270 764 274 770 282 770 c 2
 576 770 l 2
 584 770 588 764 588 758 c 0
 588 752 584 746 576 746 c 2
 497 746 l 1
 509 683 575 591 645 512 c 0
 724 422 804 293 804 132 c 0
 804 89 796 47 788 24 c 1
 828 24 l 1
 828 0 l 1
563 467 m 1
 494 557 425 626 391 690 c 1
 370 623 336 547 295 467 c 1
 563 467 l 1
EndSplineSet
Validated: 19457
Colour: ff00
EndChar

StartChar: uni0467
Encoding: 1127 1127 154
Width: 623
GlyphClass: 2
Flags: HW
HStem: -4 21G<93 108.5 290.5 310 521.5 540.5> 200 24<210 239 354 364> 421 20G<252.5 276.5>
VStem: 48 93<0.605764 121.54> 239 115<-1.70801 200> 474 109<-2.73306 85.3906>
DStem2: 412 317 364 224 0.583824 -0.81188<-107.575 47.4813 78.0591 250.334>
AnchorPoint: "right" 535 536.2 basechar 0
AnchorPoint: "left" 80.7778 535.8 basechar 0
AnchorPoint: "HalfMark" 269.5 538.7 basechar 0
AnchorPoint: "DoubleTitlo" 624.5 542 basechar 0
AnchorPoint: "Yerok" 425 539 basechar 0
AnchorPoint: "Diacritic" 298 539 basechar 0
LayerCount: 2
Fore
SplineSet
258 441 m 0
 295 441 334 437 363 432 c 1
 363 428 363 425 363 421 c 0
 363 415 363 407 366 399 c 0
 375 371 392 344 412 317 c 2
 476 228 l 2
 521 165 557 117 580 34 c 0
 582 24 583 15 583 6 c 0
 583 4 583 2 583 0 c 1
 569 -3 550 -4 531 -4 c 0
 512 -4 489 -3 473 0 c 1
 474 1 474 3 474 5 c 0
 474 14 471 28 468 36 c 0
 450 110 423 147 383 200 c 1
 354 200 l 1
 354 0 l 1
 337 -2 319 -3 301 -3 c 0
 280 -3 260 -2 239 0 c 1
 239 200 l 1
 195 200 l 1
 170 159 141 92 141 33 c 0
 141 20 144 11 145 0 c 1
 132 -3 116 -4 101 -4 c 0
 85 -4 69 -3 57 0 c 1
 50 15 48 22 48 42 c 0
 48 84 65 117 83 144 c 0
 93 160 104 175 117 190 c 2
 153 232 l 2
 174 256 194 281 210 308 c 0
 223 329 235 354 243 386 c 0
 243 386 236 396 233 403 c 0
 229 413 226 424 226 440 c 1
 236 441 247 441 258 441 c 0
364 224 m 1
 313 289 l 2
 297 309 282 329 269 348 c 1
 258 299 233 261 210 224 c 1
 364 224 l 1
EndSplineSet
Colour: ff00
EndChar

StartChar: uni0468
Encoding: 1128 1128 155
Width: 1158
GlyphClass: 2
Flags: W
HStem: 0 24<55 115 235 295 350 390 506.301 557 630 670 790 830 904 951.275 1078 1118> 443 24<235 511 585 670 790 853> 746 24<55 115 235 295 560.004 670 787 877.996>
VStem: 115 120<24 443 467 746> 367 109<48.4168 246.373> 670 120<24 443> 975 119<40.2433 270.655>
DStem2: 884 573 754 588 0.641421 -0.767189<-161.192 61.438>
AnchorPoint: "HalfMark" 564 828.6 basechar 0
AnchorPoint: "DoubleTitlo" 1158 828.4 basechar 0
AnchorPoint: "Yerok" 925 827.6 basechar 0
AnchorPoint: "Diacritic" 720 830 basechar 0
LayerCount: 2
Fore
SplineSet
853 467 m 1
 818 512 785 553 754 588 c 0
 723 624 698 658 681 690 c 1
 657 613 622 539 585 467 c 1
 853 467 l 1
476 133 m 0
 476 86 493 47 517 24 c 1
 557 24 l 1
 557 -0 l 1
 350 -0 l 1
 350 24 l 1
 390 24 l 1
 388 28 386 34 384 42 c 2
 376 69 l 2
 371 88 367 113 367 136 c 0
 367 215 400 280 433 331 c 0
 452 359 471 385 491 408 c 0
 506 426 513 438 513 443 c 0
 513 444 513 443 511 443 c 2
 235 443 l 1
 235 24 l 1
 295 24 l 1
 295 0 l 1
 55 0 l 1
 55 24 l 1
 115 24 l 1
 115 746 l 1
 55 746 l 1
 55 770 l 1
 295 770 l 1
 295 746 l 1
 235 746 l 1
 235 467 l 1
 532 467 l 1
 542 472 l 1
 575 515 604 569 627 620 c 0
 645 660 660 704 670 746 c 1
 572 746 l 2
 565 746 560 751 560 758 c 0
 560 764 565 770 572 770 c 2
 866 770 l 2
 873 770 878 764 878 758 c 0
 878 751 873 746 866 746 c 2
 787 746 l 1
 794 705 818 668 839 635 c 0
 852 614 867 594 884 573 c 2
 935 512 l 1
 998 441 1052 354 1080 246 c 0
 1089 210 1094 172 1094 132 c 0
 1094 95 1087 50 1078 24 c 1
 1118 24 l 1
 1118 -0 l 1
 904 -0 l 1
 904 24 l 1
 944 24 l 1
 962 50 975 90 975 134 c 0
 975 257 925 365 870 443 c 1
 790 443 l 1
 790 24 l 1
 830 24 l 1
 830 -0 l 1
 630 -0 l 1
 630 24 l 1
 670 24 l 1
 670 443 l 1
 573 443 l 1
 538 367 l 2
 516 318 497 266 484 209 c 0
 479 183 476 158 476 133 c 0
EndSplineSet
Validated: 19457
Colour: ff00ff
EndChar

StartChar: uni0469
Encoding: 1129 1129 156
Width: 783
GlyphClass: 2
Flags: W
HStem: -3 227<245 276 399.984 513.202> 200 24<174 285 370 399 514 524> 421 19G<154 180 412.5 436.5>
VStem: 68 106<-1.94238 195.886> 77 97<225.415 428.479> 208 93<0.605764 121.54> 399 115<-1.70801 200> 634 109<-2.73306 85.3906>
DStem2: 572 317 524 224 0.583824 -0.81188<-107.575 47.4813 78.0591 250.334>
AnchorPoint: "right" 685 536.2 basechar 0
AnchorPoint: "left" 80.7778 535.8 basechar 0
AnchorPoint: "HalfMark" 404.5 538.7 basechar 0
AnchorPoint: "DoubleTitlo" 784.5 538 basechar 0
AnchorPoint: "Yerok" 600 538 basechar 0
AnchorPoint: "Diacritic" 441 539 basechar 0
LayerCount: 2
Fore
SplineSet
418 441 m 0x6f
 455 441 494 437 523 432 c 1
 523 428 523 425 523 421 c 0
 523 415 523 407 526 399 c 0
 535 371 552 344 572 317 c 2
 636 228 l 2
 681 165 717 117 740 34 c 0
 742 24 743 15 743 6 c 0
 743 4 743 2 743 0 c 1
 729 -3 710 -4 691 -4 c 0
 672 -4 649 -3 633 0 c 1
 634 1 634 3 634 5 c 0
 634 14 631 28 628 36 c 0
 610 110 583 147 543 200 c 1
 514 200 l 1x6f
 514 0 l 1
 497 -2 479 -3 461 -3 c 0xaf
 440 -3 420 -2 399 0 c 1
 399 200 l 1
 355 200 l 1
 330 159 301 92 301 33 c 0
 301 20 304 11 305 0 c 1
 292 -3 276 -4 261 -4 c 0
 245 -4 229 -3 217 0 c 1
 210 15 208 22 208 42 c 0
 208 84 225 117 243 144 c 0
 253 160 264 175 277 190 c 2
 285 200 l 1
 174 200 l 1x6f
 174 200 172 144 172 100 c 0
 172 71 174 0 174 0 c 1
 156 -2 139 -3 123 -3 c 0
 104 -3 85 -2 68 0 c 1
 68 0 68 29 68 52 c 0xb7
 68 149 70 245 77 372 c 0
 79 399 81 418 84 429 c 1
 107 435 141 440 167 440 c 2
 180 440 l 1
 176 348 174 334 174 224 c 1
 306 224 l 1
 313 232 l 2
 334 256 354 281 370 308 c 0
 383 329 395 354 403 386 c 0
 403 386 396 396 393 403 c 0
 389 413 386 424 386 440 c 1
 396 441 407 441 418 441 c 0x6f
524 224 m 1
 473 289 l 2
 457 309 442 329 429 348 c 1
 418 299 393 261 370 224 c 1
 524 224 l 1
EndSplineSet
Validated: 19457
Colour: ff00ff
EndChar

StartChar: uni046A
Encoding: 1130 1130 157
Width: 899
GlyphClass: 2
Flags: W
HStem: -2 24<0 42 178 239 309 369 489 549 619 680 816 859> 738 36<270.004 604.998>
VStem: 42 136<22 155.451> 159 111<705.789 759.5> 369 120<22 424> 605 87<709.578 760.5> 680 136<22 159.338>
DStem2: 273 724 172 719 0.529999 -0.847998<-7.4461 271.465>
AnchorPoint: "HalfMark" 428 829.6 basechar 0
AnchorPoint: "DoubleTitlo" 899 831.4 basechar 0
AnchorPoint: "Yerok" 625 828.6 basechar 0
AnchorPoint: "Diacritic" 426 830 basechar 0
LayerCount: 2
Fore
SplineSet
309 -2 m 1xca
 309 22 l 1
 369 22 l 1
 369 424 l 1
 330 412 301 382 278 352 c 0
 254 320 234 282 217 244 c 0
 190 184 178 106 178 22 c 1
 239 22 l 1
 239 -2 l 1
 0 -2 l 1
 0 22 l 1
 42 22 l 1
 42 25 42 29 42 32 c 0xea
 42 67 48 107 62 151 c 0
 90 246 154 338 228 392 c 0
 266 420 304 438 342 447 c 1
 172 719 l 2
 163 732 159 743 159 752 c 0
 159 767 172 774 198 774 c 2
 660 774 l 2
 681 774 692 767 692 754 c 0xdc
 692 747 689 739 683 729 c 2
 515 447 l 1
 603 427 679 359 728 291 c 0
 769 233 800 165 812 83 c 0
 815 65 816 47 816 31 c 0
 816 28 816 25 816 22 c 1
 859 22 l 1
 859 -2 l 1
 619 -2 l 1
 619 22 l 1
 680 22 l 1
 680 106 668 184 641 244 c 0
 615 301 582 358 538 396 c 0
 522 410 506 419 489 424 c 1
 489 22 l 1
 549 22 l 1
 549 -2 l 1
 309 -2 l 1xca
273 724 m 2
 416 485 l 2
 420 478 424 474 429 474 c 0
 433 474 437 477 441 484 c 2
 597 715 l 2
 602 722 605 728 605 732 c 0
 605 736 602 738 596 738 c 2
 287 738 l 2
 276 738 270 736 270 731 c 0xdc
 270 729 271 727 273 724 c 2
EndSplineSet
Validated: 19457
Colour: ff00
EndChar

StartChar: uni046B
Encoding: 1131 1131 158
Width: 699
GlyphClass: 2
Flags: W
HStem: 0 288<305.506 389.998> 406 32<234.454 471>
VStem: 31 110<1.11401 107.525> 285 113<0.797607 251.38> 555 113<0.84787 87.8607>
AnchorPoint: "right" 611 536.2 basechar 0
AnchorPoint: "left" 80.7778 535.8 basechar 0
AnchorPoint: "HalfMark" 339.5 538.7 basechar 0
AnchorPoint: "DoubleTitlo" 699.5 539 basechar 0
AnchorPoint: "Yerok" 555 539 basechar 0
AnchorPoint: "Diacritic" 339.001 539 basechar 0
LayerCount: 2
Fore
SplineSet
226 398 m 1
 251 360 283 326 322 296 c 0
 330 291 341 288 349 288 c 0
 359 288 372 296 372 296 c 1
 411 324 443 357 472 393 c 0
 479 402 480 406 471 406 c 2
 236 406 l 2
 224 406 221 403 226 398 c 1
32 3 m 1
 31 10 31 17 31 24 c 0
 31 81 59 120 78 146 c 0
 102 178 144 211 178 239 c 0
 198 255 220 270 243 285 c 1
 196 325 159 366 129 405 c 0
 124 411 122 417 122 421 c 0
 122 432 137 438 169 438 c 2
 520 438 l 1
 554 437 572 431 572 421 c 0
 572 418 571 415 568 411 c 0
 509 337 471 296 456 285 c 1
 481 274 507 263 529 246 c 0
 579 209 621 146 648 85 c 0
 658 64 661 51 665 34 c 0
 666 28 668 20 668 12 c 0
 668 9 667 6 667 3 c 1
 654 1 637 0 618 0 c 0
 596 0 574 0 555 3 c 1
 555 5 555 7 555 9 c 0
 555 71 529 115 503 154 c 0
 479 190 431 229 398 254 c 1
 398 201 l 1
 398 174 l 2
 398 115 398 54 401 3 c 1
 385 1 367 0 347 0 c 0
 326 0 303 0 285 3 c 1
 285 88 289 178 294 259 c 1
 233 226 187 175 157 110 c 0
 145 84 141 45 141 20 c 0
 141 13 142 7 142 3 c 1
 127 1 110 0 91 0 c 0
 68 0 49 1 32 3 c 1
EndSplineSet
Validated: 19457
Colour: ff00
EndChar

StartChar: uni046C
Encoding: 1132 1132 159
Width: 1170
GlyphClass: 2
Flags: W
HStem: 0 24<3 63 183 243 270 313 449 510 580 640 760 820 890 951 1087 1130> 447 26<183 578> 740 36<548.469 868.996> 745 24<3 63 183 243>
VStem: 63 120<23 447 473 745> 313 136<24 161.353> 640 120<24 426> 951 136<24 161.338>
DStem2: 687 487 599 473 0.532451 -0.846461<-284.971 -35.0052>
AnchorPoint: "HalfMark" 507 828.6 basechar 0
AnchorPoint: "DoubleTitlo" 1170 828.4 basechar 0
AnchorPoint: "Yerok" 975 828.6 basechar 0
AnchorPoint: "Diacritic" 695 830 basechar 0
LayerCount: 2
Fore
SplineSet
544 726 m 1xef
 687 487 l 2
 691 480 695 476 700 476 c 0
 704 476 708 479 712 486 c 2
 868 717 l 2
 879 732 878 740 867 740 c 2
 558 740 l 2
 542 740 537 735 544 726 c 1xef
3 0 m 1
 3 23 l 1
 63 23 l 1
 63 745 l 1
 3 745 l 1
 3 769 l 1
 243 769 l 1
 243 745 l 1
 183 745 l 1xdf
 183 473 l 1
 599 473 l 1
 443 721 l 2
 434 734 430 745 430 754 c 0
 430 769 443 776 469 776 c 2
 931 776 l 2
 952 776 963 769 963 756 c 0
 963 749 960 741 954 731 c 2
 786 447 l 1
 874 427 950 361 999 293 c 0
 1040 235 1071 167 1083 85 c 0
 1086 67 1087 49 1087 33 c 0
 1087 30 1087 27 1087 24 c 1
 1130 24 l 1
 1130 0 l 1
 890 0 l 1
 890 24 l 1
 951 24 l 1
 951 108 939 186 912 246 c 0
 886 303 853 360 808 399 c 0
 793 412 777 421 760 426 c 1
 760 24 l 1
 820 24 l 1
 820 0 l 1
 580 0 l 1
 580 24 l 1
 640 24 l 1
 640 426 l 1
 601 414 572 384 549 354 c 0
 525 322 505 284 488 246 c 0
 461 186 449 108 449 24 c 1
 510 24 l 1
 510 0 l 1
 270 0 l 1
 270 24 l 1
 313 24 l 1
 313 27 313 31 313 34 c 0
 313 69 319 109 332 153 c 0
 361 248 425 340 499 394 c 0
 537 422 563 440 578 447 c 1
 183 447 l 1
 183 23 l 1
 243 23 l 1
 243 0 l 1
 3 0 l 1
EndSplineSet
Validated: 19457
Colour: ff00ff
EndChar

StartChar: uni046D
Encoding: 1133 1133 160
Width: 860
GlyphClass: 2
Flags: W
HStem: 0 18G<75.5 93 259.5 280.5 516.5 537 787 807.5> 252 41<136 375> 406 32<404.003 657.998>
VStem: 30 106<-1.94238 252 293 329.726> 211 110<1.11401 107.525> 302 102<386.807 426.5> 465 116<1.00269 251.38> 474 104<6.98798 254> 735 113<0.84787 90.125>
AnchorPoint: "right" 725 536.2 basechar 0
AnchorPoint: "left" 350.778 535.8 basechar 0
AnchorPoint: "HalfMark" 461.5 537.7 basechar 0
AnchorPoint: "DoubleTitlo" 860 538 basechar 0
AnchorPoint: "Yerok" 725 538 basechar 0
AnchorPoint: "Diacritic" 525 538.7 basechar 0
LayerCount: 2
Fore
SplineSet
212 3 m 1xf980
 211 10 211 17 211 24 c 0xf980
 211 81 239 120 258 146 c 0
 282 178 325 211 358 239 c 0
 364 243 369 248 375 252 c 1
 135 252 l 1
 135 232 135 143 135 121 c 0
 135 83 136 32 136 0 c 1
 118 -2 101 -3 85 -3 c 0
 66 -3 47 -2 30 0 c 1
 30 0 30 34 30 60 c 0
 30 204 33 280 39 372 c 0
 41 399 43 418 46 429 c 1
 71 436 99 440 129 440 c 2
 142 440 l 1
 140 427 136 360 136 318 c 2
 136 293 l 1
 414 293 l 1
 371 330 337 369 309 405 c 0
 304 411 302 417 302 421 c 0
 302 432 317 438 349 438 c 2
 700 438 l 1
 734 437 752 431 752 421 c 0
 752 418 751 415 748 411 c 0
 689 337 651 296 636 285 c 1
 661 274 687 263 709 246 c 0
 759 209 801 146 829 85 c 0
 838 64 841 51 845 34 c 0
 846 28 848 20 848 12 c 0
 848 9 847 6 847 3 c 1
 834 1 817 0 798 0 c 0
 776 0 754 0 735 3 c 1
 735 5 735 7 735 9 c 0
 735 71 709 115 683 154 c 0
 659 190 611 229 578 254 c 1
 578 201 l 1
 578 174 l 2xf580
 578 115 578 54 581 3 c 1
 565 1 547 0 527 0 c 0
 506 0 483 0 465 3 c 1xf280
 465 88 470 178 474 259 c 1
 413 226 367 175 337 110 c 0
 325 84 321 45 321 20 c 0
 321 13 322 7 322 3 c 1
 307 1 290 0 271 0 c 0
 248 0 229 1 212 3 c 1xf980
406 398 m 0
 431 360 463 326 502 296 c 0
 510 291 521 288 529 288 c 0
 539 288 552 296 552 296 c 1
 591 324 623 357 652 393 c 0
 656 398 658 401 658 403 c 0
 658 405 655 406 651 406 c 2
 416 406 l 2
 408 406 404 405 404 402 c 0xf480
 404 401 404 400 406 398 c 0
EndSplineSet
Validated: 19457
Colour: ff00ff
EndChar

StartChar: uni046E
Encoding: 1134 1134 161
Width: 699
GlyphClass: 2
Flags: W
HStem: -288 51<123.385 268.19> -202 43<335.477 476.834> -110 72<310.715 451.245> -64 60<163.733 304.949> 48 32<30.6725 42 43 67> 48 24<200 235.856> 276 39<286.898 432.75> 389 22<60.0469 92 224 253.953> 578 36<347.695 435.955> 772 24<111.047 153>
VStem: 37 98<-212.752 -93.3631> 67 131<80 191.362> 92 132<413 509.128> 489 118<-308.661 -215.972> 500 111<359.536 519.35> 510 121<27.6201 184.889>
AnchorPoint: "HalfMark" 332 828.6 basechar 0
AnchorPoint: "DoubleTitlo" 698.5 830.4 basechar 0
AnchorPoint: "Yerok" 500 827.6 basechar 0
AnchorPoint: "Diacritic" 328 829 basechar 0
LayerCount: 2
Fore
SplineSet
631 87 m 0xcbc1
 631 -35 519 -110 404 -110 c 0xebc1
 331 -110 285 -64 211 -64 c 0
 166 -64 135 -107 135 -162 c 0
 135 -207 173 -237 214 -237 c 0
 270 -237 299 -196 341 -177 c 0
 366 -166 389 -159 421 -159 c 0
 422 -159 424 -159 425 -159 c 0
 499 -159 606 -182 606 -254 c 0
 606 -264 607 -273 607 -279 c 0
 607 -292 606 -300 604 -310 c 1
 595 -313 583 -315 570 -315 c 0
 542 -315 507 -309 483 -302 c 1
 487 -288 489 -264 489 -248 c 0
 489 -215 447 -202 412 -202 c 0
 406 -202 399 -202 392 -202 c 0
 378 -202 364 -204 356 -208 c 0
 311 -232 279 -288 160 -288 c 0
 89 -288 37 -227 37 -154 c 0
 37 -51 99 -4 201 -4 c 0xd3e4
 231 -4 290 -20 316 -28 c 0
 342 -36 356 -38 384 -38 c 0
 462 -38 510 33 510 112 c 0
 510 206 454 276 350 276 c 0
 271 276 198 194 198 126 c 0
 198 121 198 117 198 113 c 0xe3d1
 198 96 200 83 200 72 c 1
 225 72 l 2
 233 72 236 64 236 58 c 0
 236 52 232 48 224 48 c 2xe7c8
 41 48 l 2
 33 48 30 64 30 70 c 0
 30 76 34 82 42 82 c 1
 43 80 l 1
 67 80 l 1
 67 107 73 161 84 187 c 0
 124 281 213 315 346 315 c 0
 364 315 384 311 404 311 c 1
 464 325 500 369 500 434 c 0xcbd2
 500 518 453 578 367 578 c 0
 366 578 366 578 365 578 c 0
 317 578 284 560 262 534 c 0
 234 501 224 456 224 423 c 0
 224 420 224 416 224 413 c 1
 242 413 l 2
 250 413 254 407 254 401 c 0
 254 395 250 389 242 389 c 2
 72 389 l 2
 64 389 60 393 60 399 c 0
 60 405 64 411 72 411 c 2
 92 411 l 1
 92 519 148 580 245 603 c 1
 153 768 l 1
 123 772 l 1
 115 772 111 778 111 785 c 0
 111 790 115 796 121 796 c 0
 122 796 122 796 123 796 c 2
 264 780 l 1
 273 780 277 772 276 766 c 1
 319 637 l 1
 328 666 347 714 368 729 c 0
 405 756 462 784 506 797 c 0
 507 797 509 797 510 797 c 0xcbc9
 514 797 517 793 517 789 c 0
 517 765 501 725 478 716 c 1
 447 712 411 703 385 678 c 0
 364 658 357 637 347 614 c 1
 478 614 611 579 611 445 c 0xcbc2
 611 348 561 313 473 295 c 1
 559 266 631 204 631 87 c 0xcbc1
EndSplineSet
Validated: 19457
Colour: ff00
EndChar

StartChar: uni046F
Encoding: 1135 1135 162
Width: 472
GlyphClass: 2
Flags: W
HStem: -202 76<338.234 370.359> -182 21<160.626 238.642> -19 38<205.983 304.724> 3 39<139.865 243.461> 208 30<243.33 291.093> 567 20G<142 156.5 299.5 304 349 357>
VStem: 55 105<286.34 384.642> 55 67<-135.315 -18.0228> 64 108<102.196 184.525> 321 88<261.228 390.426> 328 89<39.9755 177.671>
AnchorPoint: "right" 423 540.1 basechar 0
AnchorPoint: "left" 48.7778 539.7 basechar 0
AnchorPoint: "HalfMark" 238.5 538.7 basechar 0
AnchorPoint: "DoubleTitlo" 471 625 basechar 0
AnchorPoint: "Yerok" 300 625 basechar 0
AnchorPoint: "Diacritic" 241 628.7 basechar 0
AnchorPoint: "Numeral" 244 216 basechar 0
LayerCount: 2
Fore
SplineSet
199 -161 m 0x5c80
 242 -161 263 -126 306 -126 c 0
 329 -126 368 -138 386 -163 c 0
 391 -170 397 -180 394 -191 c 1
 385 -198 369 -202 352 -202 c 0x8c80
 348 -202 343 -202 338 -201 c 1
 332 -184 316 -168 300 -161 c 1
 284 -164 276 -168 260 -172 c 0
 232 -178 215 -182 183 -182 c 0
 100 -181 55 -138 55 -59 c 0
 55 -25 71 -0 93 16 c 0
 112 30 139 42 168 42 c 0x5d
 200 42 221 30 246 22 c 0
 253 20 260 19 266 19 c 0
 306 19 328 63 328 107 c 0
 328 148 310 183 284 198 c 0
 273 205 261 208 247 208 c 0
 208 208 190 185 178 158 c 0
 174 148 172 125 172 116 c 2
 173 105 l 1
 156 102 136 101 117 101 c 0
 99 101 80 102 65 105 c 1
 65 111 64 116 64 121 c 0x2ca0
 64 161 75 191 100 212 c 0
 124 232 156 245 195 245 c 0
 216 245 229 242 243 236 c 1
 250 238 259 238 259 238 c 1
 270 238 l 2
 277 238 286 237 292 236 c 1
 292 246 292 248 296 255 c 0
 308 277 321 294 321 327 c 0
 321 381 289 416 236 417 c 0
 199 417 176 388 166 359 c 0
 162 348 160 337 160 325 c 2
 160 289 l 1
 143 286 122 285 102 285 c 0
 86 285 67 286 55 289 c 1
 56 314 l 2
 58 367 80 394 98 407 c 0
 122 425 150 436 181 440 c 1
 167 490 139 544 110 577 c 0
 109 578 109 579 109 580 c 0
 109 587 136 587 148 587 c 2
 150 587 l 2
 163 587 174 586 183 584 c 1
 209 562 229 513 239 474 c 1
 244 496 249 522 258 540 c 0
 268 562 288 580 292 582 c 0
 294 584 298 584 301 584 c 0
 307 584 315 583 322 583 c 0
 334 583 345 586 353 586 c 0
 361 586 366 580 359 573 c 0
 337 551 301 545 287 511 c 0
 275 482 271 461 268 442 c 1
 351 437 409 409 409 324 c 0x2e40
 409 306 407 288 398 273 c 0
 381 245 353 239 327 228 c 1
 374 211 417 172 417 109 c 0
 417 22 359 -19 273 -19 c 0x2c20
 237 -19 218 3 184 3 c 0
 161 3 143 -10 134 -23 c 0
 126 -36 122 -54 122 -75 c 0x1d20
 122 -115 144 -144 172 -157 c 0
 180 -161 190 -161 199 -161 c 0x5c80
EndSplineSet
Validated: 19457
Position2: "Numeral Kerning-1" dx=250 dy=0 dh=0 dv=0
Colour: ff00
EndChar

StartChar: uni0470
Encoding: 1136 1136 163
Width: 884
GlyphClass: 2
Flags: W
HStem: 0 24<334 413 513 620> 660 117<746.778 820.421> 1043 29<561.919 600.711>
VStem: 218 116<24 252.345> 413 100<-92.3484 0 24 291.564> 620 24<24 370.602>
DStem2: 362 1034 366 1010 0.986036 0.166531<-3.0107 28.2225 196.564 231.144>
AnchorPoint: "HalfMark" 464 828.6 basechar 0
AnchorPoint: "DoubleTitlo" 884 1206.4 basechar 0
AnchorPoint: "Yerok" 750 840.6 basechar 0
AnchorPoint: "Diacritic" 465 1125 basechar 0
LayerCount: 2
Fore
SplineSet
884 761 m 1
 879 709 864 659 850 615 c 1
 845 615 839 611 836 615 c 0
 822 631 814 660 792 660 c 2
 791 660 l 1
 737 657 706 611 687 554 c 0
 676 520 662 465 653 378 c 0
 648 326 644 261 644 182 c 2
 644 0 l 1
 513 0 l 1
 513 -29 l 2
 513 -69 535 -108 577 -120 c 0
 584 -122 588 -129 588 -135 c 0
 588 -142 584 -148 577 -150 c 0
 535 -159 488 -199 479 -231 c 0
 476 -239 472 -243 463 -244 c 1
 454 -243 449 -239 446 -231 c 0
 437 -199 391 -159 349 -150 c 0
 342 -148 338 -142 338 -135 c 0
 338 -129 342 -122 349 -120 c 0
 391 -108 413 -69 413 -29 c 2
 413 0 l 1
 218 0 l 1
 218 195 180 437 119 598 c 0
 97 658 69 713 36 758 c 1
 36 758 35 759 35 761 c 0
 35 764 37 767 42 770 c 1
 58 772 80 772 101 772 c 0
 126 772 152 771 170 770 c 1
 191 738 212 685 232 621 c 0
 265 514 294 377 312 253 c 0
 326 164 334 82 334 24 c 1
 413 24 l 1
 413 37 l 2
 413 216 412 474 407 695 c 0
 404 821 400 934 394 1014 c 1
 366 1010 l 2
 365 1010 364 1010 363 1010 c 0
 356 1010 352 1016 352 1022 c 0
 352 1027 355 1033 362 1034 c 2
 587 1072 l 2
 588 1072 589 1072 590 1072 c 0
 597 1072 601 1066 601 1060 c 0
 601 1055 598 1049 591 1048 c 2
 563 1043 l 1
 540 782 513 316 513 37 c 2
 513 24 l 1
 620 24 l 1
 620 192 l 2
 620 322 635 473 659 572 c 0
 675 638 691 694 724 735 c 0
 744 760 779 777 814 777 c 0
 842 777 862 769 884 761 c 1
EndSplineSet
Validated: 19457
Colour: ff00
EndChar

StartChar: uni0471
Encoding: 1137 1137 164
Width: 708
GlyphClass: 2
Flags: W
HStem: -256 21<258.012 303.766> 0 24<237 298 388 461> 348 112<545.413 656.602> 420 20G<101.5 120> 650 23<248.02 291.552> 657 28<409.016 451.649>
VStem: 139 98<24 214.29> 291 117<378.171 650> 298 89<-189.667 0 24 274.449> 304 74<-224 -121> 461 25<24 195.889> 470 23<73.1111 273.886>
AnchorPoint: "right" 611 536.2 basechar 0
AnchorPoint: "left" 80.7778 535.8 basechar 0
AnchorPoint: "HalfMark" 341.5 537.7 basechar 0
AnchorPoint: "DoubleTitlo" 708 626 basechar 0
AnchorPoint: "Yerok" 550 539 basechar 0
AnchorPoint: "Diacritic" 345 726.7 basechar 0
AnchorPoint: "Numeral" 356 274 basechar 0
LayerCount: 2
Fore
SplineSet
291 459 m 2xd3
 291 521 292 597 292 650 c 1
 276 650 l 2
 271 650 265 650 259 651 c 0
 252 651 248 655 248 662 c 0
 248 671 255 673 264 673 c 0xdb
 271 673 278 672 284 672 c 0
 321 672 413 679 439 685 c 0
 440 685 440 685 441 685 c 0xc7
 448 685 452 679 452 673 c 0xcb
 452 659 421 660 408 657 c 1
 405 443 396 233 388 24 c 1
 461 24 l 1xc720
 470 245 l 2
 472 294 479 335 492 370 c 0
 514 432 559 460 645 460 c 0
 658 460 671 460 680 459 c 0
 683 459 687 457 687 453 c 0
 687 453 687 452 686 451 c 2
 672 424 l 2
 665 410 660 386 660 366 c 0
 660 355 661 345 664 338 c 0
 665 336 657 329 654 332 c 0
 637 343 626 348 601 348 c 0
 528 348 495 285 493 209 c 2xe610
 486 0 l 1
 387 0 l 1xe6a0
 386 -43 384 -84 383 -121 c 2
 378 -224 l 1
 383 -223 389 -221 394 -221 c 0
 401 -221 405 -227 405 -233 c 0
 405 -237 403 -241 397 -242 c 0
 358 -251 317 -256 269 -256 c 0
 262 -256 258 -252 258 -245 c 0
 258 -238 262 -235 269 -235 c 0
 281 -235 292 -234 304 -234 c 1xe640
 301 -159 300 -82 298 0 c 1
 139 0 l 1
 137 130 116 250 84 349 c 0
 73 380 63 408 50 430 c 0
 49 431 49 432 49 432 c 0
 49 436 56 437 58 437 c 0
 75 439 92 440 111 440 c 0
 129 440 148 439 167 437 c 1
 202 364 220 264 231 162 c 0
 235 119 237 73 237 24 c 1
 298 24 l 1xd280
 295 126 292 210 292 336 c 0
 292 356 291 376 291 397 c 2
 291 459 l 2xd3
EndSplineSet
Validated: 19457
AlternateSubs2: "'salt' Stylistic Alternatives-1" uni0471.alt2 uni0471.alt
Substitution2: "Short Forms for Half Titlos-1" uni0471.alt
Position2: "Numeral Kerning-1" dx=250 dy=0 dh=0 dv=0
Colour: ff00
EndChar

StartChar: uni0472
Encoding: 1138 1138 165
Width: 858
GlyphClass: 2
Flags: W
HStem: -8 24<375 423.206> 276 24<200.43 217 337 539 663 684 796 815> 753 25<475.276 511>
VStem: 150 17<17.5336 62.5732> 205 127<301.22 502.224> 350 32<16.4862 85.9549> 494 41<608.5 750.111> 539 126<300 470.286> 684 112<30 276>
AnchorPoint: "HalfMark" 486 828.6 basechar 0
AnchorPoint: "DoubleTitlo" 858.5 828.4 basechar 0
AnchorPoint: "Yerok" 600 800 basechar 0
AnchorPoint: "Diacritic" 450 829 basechar 0
LayerCount: 2
Fore
SplineSet
35 300 m 2
 217 300 l 1
 209 326 205 354 205 388 c 0
 205 486 250 579 312 650 c 0
 379 727 467 778 539 778 c 0
 544 778 552 770 549 766 c 0
 536 745 535 733 535 710 c 0
 535 670 581 619 609 558 c 0
 640 490 665 422 665 332 c 0
 665 321 663 310 663 300 c 1
 815 300 l 1
 815 276 l 1
 796 276 l 1
 796 30 l 1
 684 30 l 1
 684 276 l 1
 659 276 l 1
 640 188 578 111 503 50 c 0
 457 13 424 -8 359 -8 c 0
 353 -8 343 0 344 6 c 0
 345 15 350 23 350 38 c 0
 350 78 298 142 273 184 c 0
 253 218 236 246 225 276 c 1
 210 276 l 1
 193 263 188 224 182 194 c 0
 175 157 167 61 167 21 c 0
 167 14 151 17 150 23 c 0
 144 63 132 102 113 142 c 0
 84 202 57 240 30 276 c 0
 28 279 27 283 27 287 c 0
 27 294 30 300 35 300 c 2
511 753 m 1
 494 753 455 733 441 720 c 0
 377 661 332 514 332 386 c 0
 332 354 334 326 334 300 c 1
 539 300 l 1
 539 407 512 476 498 568 c 0
 495 584 494 600 494 617 c 0
 494 670 506 723 514 749 c 1
 511 753 l 1
488 69 m 1
 531 138 539 192 539 276 c 1
 337 276 l 1
 341 242 350 209 367 170 c 0
 377 146 382 112 382 80 c 0
 382 57 380 34 375 16 c 1
 416 16 458 44 488 69 c 1
EndSplineSet
Validated: 19457
Colour: ff00
EndChar

StartChar: uni0473
Encoding: 1139 1139 166
Width: 751
GlyphClass: 2
Flags: W
HStem: -183 21G<640.5 645.5> -10 24<14.1422 30.3181 129 213.37> -0 25<129.38 263 472 612.971 613 621.449>
VStem: 33 98<-190.105 -10.8979> 263 50<24 201.474> 425 49<25 191.138> 634 17<-182.98 -131.613>
AnchorPoint: "right" 655 536.2 basechar 0
AnchorPoint: "left" 80.7778 535.8 basechar 0
AnchorPoint: "HalfMark" 366.5 537.7 basechar 0
AnchorPoint: "DoubleTitlo" 753 537 basechar 0
AnchorPoint: "Yerok" 550 500 basechar 0
AnchorPoint: "Diacritic" 369 538.7 basechar 0
AnchorPoint: "Numeral" 372 98 basechar 0
LayerCount: 2
Fore
SplineSet
104 -195 m 0xbe
 77 -195 49 -191 30 -183 c 1
 31 -156 33 -113 33 -83 c 0
 33 -58 33 -29 28 -10 c 1
 25 -10 l 2
 18 -10 14 -3 14 4 c 0
 14 9 17 14 23 14 c 0xde
 98 20 182 22 263 23 c 1
 263 29 263 35 263 41 c 0
 263 177 284 306 325 401 c 0
 331 417 355 467 369 467 c 0
 370 467 372 466 373 465 c 0
 431 402 455 289 467 181 c 0
 472 140 474 98 474 56 c 0
 474 45 473 35 472 25 c 1
 556 23 643 19 717 13 c 0
 727 12 730 6 730 -0 c 0
 730 -9 724 -20 719 -25 c 0
 704 -38 689 -65 679 -86 c 0
 666 -110 653 -142 651 -174 c 0
 650 -180 648 -183 643 -183 c 0
 638 -183 635 -180 634 -174 c 2
 634 -174 625 -108 625 -66 c 0
 625 -60 625 -53 625 -47 c 0
 625 -23 624 -5 613 -5 c 1
 613 -5 613 -5 613 -4 c 0
 613 0 573 0 549 -0 c 2
 468 -0 l 1
 455 -78 420 -149 378 -197 c 0
 376 -199 374 -200 371 -200 c 0
 369 -200 366 -199 363 -196 c 0
 330 -161 306 -107 286 -58 c 0
 278 -39 272 -19 267 -0 c 1
 220 -1 174 -1 129 -4 c 1
 129 -34 131 -69 131 -101 c 0
 131 -124 131 -148 131 -171 c 0
 131 -180 131 -188 130 -194 c 1
 122 -195 113 -195 104 -195 c 0xbe
367 237 m 0
 341 237 331 198 326 171 c 0
 317 130 313 75 313 24 c 1
 322 25 360 25 370 25 c 0
 397 25 397 25 425 25 c 1xbe
 424 78 419 132 409 174 c 0
 403 200 392 237 367 237 c 0
EndSplineSet
Validated: 19457
Position2: "Numeral Kerning-1" dx=250 dy=0 dh=0 dv=0
Colour: ff00
EndChar

StartChar: uni0474
Encoding: 1140 1140 167
Width: 678
GlyphClass: 2
Flags: W
HStem: 0 24<271 377 401 468> 750 20G<42.5 207 643 646.5>
VStem: 162 109<24 291.125>
DStem2: 377 24 401 24 0.0623783 0.998053<1.49708 551.62>
AnchorPoint: "HalfMark" 341 828.6 basechar 0
AnchorPoint: "DoubleTitlo" 678 838.4 basechar 0
AnchorPoint: "Yerok" 494 827.6 basechar 0
AnchorPoint: "Diacritic" 341 829 basechar 0
LayerCount: 2
Fore
SplineSet
468 0 m 5
 162 0 l 5
 162 7 162 15 162 22 c 4
 162 178 154 391 113 565 c 4
 95 639 72 706 40 758 c 4
 39 759 39 761 39 763 c 4
 39 766 41 770 44 770 c 6
 197 770 l 5
 217 721 231 654 242 577 c 4
 267 400 271 176 271 24 c 5
 377 24 l 5
 405 472 l 6
 413 601 436 661 466 701 c 4
 485 727 522 758 563 770 c 4
 590 778 609 778 637 782 c 4
 640 782 642 783 644 783 c 4
 649 783 652 781 649 771 c 4
 641 743 635 718 635 686 c 4
 635 655 652 614 652 590 c 4
 652 588 647 586 645 588 c 4
 615 624 579 646 537 646 c 4
 536 646 535 646 534 646 c 4
 467 646 436 585 429 470 c 6
 401 24 l 5
 468 24 l 5
 468 0 l 5
EndSplineSet
Validated: 19457
Colour: ff00
EndChar

StartChar: uni0475
Encoding: 1141 1141 168
Width: 520
GlyphClass: 2
Flags: W
HStem: -5 51<254.139 268.566> 337 105<390.108 472.572>
VStem: 267 26<46 142.179>
AnchorPoint: "right" 455 536.2 basechar 0
AnchorPoint: "left" 80.7778 535.8 basechar 0
AnchorPoint: "HalfMark" 238.5 538.7 basechar 0
AnchorPoint: "DoubleTitlo" 519 539 basechar 0
AnchorPoint: "Yerok" 375 500 basechar 0
AnchorPoint: "Diacritic" 259 539 basechar 0
LayerCount: 2
Fore
SplineSet
475 358 m 4
 475 352 478 342 478 334 c 4
 478 328 476 324 472 324 c 4
 451 324 435 337 410 337 c 4
 371 337 353 322 343 299 c 5
 322 239 294 125 294 52 c 4
 294 42 293 32 293 23 c 4
 293 14 293 6 293 0 c 5
 271 -3 250 -5 228 -5 c 4
 206 -5 183 -3 159 0 c 5
 151 121 120 239 87 330 c 4
 72 369 58 403 44 429 c 4
 43 431 43 435 43 437 c 4
 43 440 44 440 46 440 c 4
 51 440 56 441 62 441 c 4
 90 441 131 437 158 432 c 5
 170 417 182 392 193 359 c 4
 223 273 247 140 256 46 c 5
 267 46 l 5
 271 90 288 222 316 306 c 4
 328 343 352 387 372 405 c 4
 392 423 409 435 428 440 c 4
 435 441 441 442 447 442 c 4
 458 442 495 440 495 433 c 4
 495 432 495 430 494 429 c 4
 488 415 480 403 477 383 c 4
 476 374 475 366 475 358 c 4
EndSplineSet
Validated: 19457
Colour: ff00
EndChar

StartChar: uni0476
Encoding: 1142 1142 169
Width: 678
GlyphClass: 2
Flags: W
HStem: 0 24<271 377 401 468> 646 136<539.292 605.467> 750 20G<42.5 206.5>
VStem: 162 109<24 292.495>
DStem2: 225 1024 184 1017 0.283017 -0.959115<0 183.71> 354 1024 313 1017 0.283017 -0.959115<0 183.71> 377 24 401 24 0.0623783 0.998053<1.49708 551.591>
AnchorPoint: "HalfMark" 326 827.6 basechar 0
AnchorPoint: "DoubleTitlo" 677 1121.4 basechar 0
AnchorPoint: "Yerok" 494 827.6 basechar 0
AnchorPoint: "Diacritic" 271 1040 basechar 0
LayerCount: 2
Fore
SplineSet
468 0 m 1xd0
 162 0 l 1
 162 7 162 15 162 22 c 0
 162 172 155 374 118 544 c 0
 100 626 75 701 40 758 c 0
 39 759 39 761 39 763 c 0
 39 766 41 770 44 770 c 2
 197 770 l 1xb0
 216 723 230 657 241 583 c 0
 267 406 271 178 271 24 c 1
 377 24 l 1
 405 472 l 2
 413 601 434 661 464 701 c 0
 495 744 561 782 637 782 c 0
 647 782 653 784 649 771 c 0
 641 743 635 718 635 686 c 0
 635 655 652 614 652 590 c 0
 652 588 647 586 645 588 c 0
 615 624 579 646 537 646 c 0
 536 646 535 646 534 646 c 0
 467 646 436 585 429 470 c 2
 401 24 l 1
 468 24 l 1
 468 0 l 1xd0
237 836 m 1
 184 1017 l 2
 183 1020 186 1024 189 1024 c 2
 225 1024 l 1
 279 841 l 2
 280 838 277 836 274 836 c 2
 237 836 l 1
366 836 m 1
 313 1017 l 2
 312 1020 315 1024 318 1024 c 2
 354 1024 l 1
 408 841 l 2
 409 838 406 836 403 836 c 2
 366 836 l 1
EndSplineSet
Validated: 19457
Ligature2: "Cyrillic Canonical Equivalents" uni0474 uni030F
LCarets2: 1 0
Colour: ff00
EndChar

StartChar: uni0477
Encoding: 1143 1143 170
Width: 520
GlyphClass: 2
Flags: W
HStem: -5 51<254.139 268.566> 337 105<390.108 472.572>
VStem: 267 26<46 142.179>
DStem2: 219 666 147 658 0.413316 -0.910587<-11.9005 144.238> 371 671 299 663 0.413316 -0.910587<-11.9005 144.238>
AnchorPoint: "left" 79.7778 712.9 basechar 0
AnchorPoint: "right" 446 713.6 basechar 0
AnchorPoint: "HalfMark" 238.5 538.7 basechar 0
AnchorPoint: "DoubleTitlo" 519 715 basechar 0
AnchorPoint: "Yerok" 258 715 basechar 0
AnchorPoint: "Diacritic" 260 716.7 basechar 0
LayerCount: 2
Fore
SplineSet
475 358 m 0
 475 352 478 342 478 334 c 0
 478 328 476 324 472 324 c 0
 451 324 435 337 410 337 c 0
 371 337 353 322 343 299 c 1
 322 239 294 125 294 52 c 0
 294 42 293 32 293 23 c 0
 293 14 293 6 293 0 c 1
 271 -3 250 -5 228 -5 c 0
 206 -5 183 -3 159 0 c 1
 151 121 120 239 87 330 c 0
 72 369 58 403 44 429 c 0
 43 431 43 435 43 437 c 0
 43 440 44 440 46 440 c 0
 51 440 56 441 62 441 c 0
 90 441 131 437 158 432 c 1
 170 417 182 392 193 359 c 0
 223 273 247 140 256 46 c 1
 267 46 l 1
 271 90 288 222 316 306 c 0
 328 343 352 387 372 405 c 0
 392 423 409 435 428 440 c 0
 435 441 441 442 447 442 c 0
 458 442 495 440 495 433 c 0
 495 432 495 430 494 429 c 0
 488 415 480 403 477 383 c 0
 476 374 475 366 475 358 c 0
371 671 m 1
 435 530 l 1
 435 528 l 2
 435 521 417 520 404 520 c 2
 397 520 l 2
 385 520 371 521 361 523 c 1
 299 663 l 2
 297 667 301 671 304 671 c 0
 312 672 325 673 339 673 c 0
 350 673 362 672 371 671 c 1
219 666 m 1
 283 525 l 1
 283 523 l 2
 283 516 265 515 252 515 c 2
 245 515 l 2
 233 515 219 516 209 518 c 1
 147 658 l 2
 147 659 146 659 146 660 c 0
 146 663 150 666 152 666 c 0
 160 667 173 668 187 668 c 0
 198 668 210 667 219 666 c 1
EndSplineSet
Validated: 19457
Ligature2: "Cyrillic Canonical Equivalents" uni0475 uni030F
LCarets2: 1 0
Colour: ff00
EndChar

StartChar: uni0478
Encoding: 1144 1144 171
Width: 1105
GlyphClass: 3
Flags: W
HStem: -9 25<246 282.194> 4 25<817.811 839> 326 119<949.8 1052.95> 753 25<295.443 355>
VStem: 55 126<314.573 536.163> 222 24<16 75.4459> 355 25<674.249 753> 410 124<234.965 472.522> 839 60<-328.468 4 28 225.512>
AnchorPoint: "HalfMark" 798 540.6 basechar 0
AnchorPoint: "DoubleTitlo" 1104 541.4 basechar 0
AnchorPoint: "Yerok" 950 539.6 basechar 0
AnchorPoint: "Diacritic" 800 540 basechar 0
LayerCount: 2
Fore
SplineSet
590 431 m 0xbf80
 590 439 608 440 624 440 c 0
 629 440 634 440 638 440 c 0
 642 440 646 440 650 440 c 0
 671 440 692 440 710 437 c 1
 745 349 811 87 819 29 c 1
 827 29 834 28 842 28 c 1
 842 145 865 293 904 373 c 0
 928 423 960 440 1013 445 c 0
 1016 445 1020 445 1024 445 c 0
 1046 445 1078 442 1078 433 c 0
 1078 432 1077 431 1076 429 c 0
 1063 414 1053 385 1053 356 c 0
 1053 347 1054 339 1056 329 c 0
 1056 327 1053 323 1050 323 c 0
 1039 323 1024 326 1009 326 c 0
 992 326 973 325 961 316 c 0
 910 279 901 116 900 4 c 0
 899 -28 899 -52 899 -74 c 0
 899 -84 899 -93 899 -103 c 0
 899 -158 897 -263 892 -312 c 0
 887 -349 880 -373 867 -404 c 0
 857 -427 846 -448 824 -458 c 0
 821 -459 815 -460 812 -460 c 0
 807 -460 802 -458 802 -454 c 0
 802 -451 804 -447 808 -442 c 0
 821 -424 824 -403 828 -375 c 0
 834 -336 839 -264 839 -211 c 2
 839 4 l 1
 838 4 836 4 835 4 c 0x7f80
 818 4 796 2 776 0 c 0
 753 -2 732 -4 710 -9 c 1
 696 59 671 189 635 307 c 0
 622 349 608 389 592 424 c 0
 591 425 590 430 590 431 c 0xbf80
386 66 m 0
 354 40 289 -9 235 -9 c 0xbf80
 228 -9 222 -5 222 0 c 2
 222 30 l 2
 222 68 179 142 152 182 c 0
 107 248 55 322 55 432 c 0
 55 561 160 675 213 718 c 0
 253 751 302 778 368 778 c 0
 374 778 380 773 380 768 c 2
 380 727 l 2
 380 664 433 610 477 539 c 0
 515 477 534 437 534 360 c 0
 534 215 460 128 386 66 c 0
410 315 m 0
 410 407 399 457 377 538 c 0
 361 596 355 646 355 695 c 2
 355 753 l 1
 314 753 289 747 254 717 c 0
 206 675 181 538 181 431 c 0
 181 322 197 211 222 153 c 0
 235 123 246 66 246 40 c 2
 246 16 l 1
 263 16 273 23 292 32 c 0
 309 40 315 45 336 63 c 0
 372 94 410 220 410 315 c 0
EndSplineSet
Validated: 19457
LCarets2: 1 0
Colour: ff00
EndChar

